<svg xmlns="http://www.w3.org/2000/svg" width="600" height="600" viewBox="0 0 158.75 158.75" xmlns:v="https://vecta.io/nano"><g fill-rule="evenodd"><path d="M0 0h158.75v158.75H0z" fill="#00408b"/><path d="M80.325 38.285a55.85 55.85 0 0 0-55.851 55.851 55.85 55.85 0 0 0 4.37 21.633h102.962a55.85 55.85 0 0 0-11.988-61.126 55.85 55.85 0 0 0-39.493-16.358z" fill="#fff"/><path d="M80.326 41.071c-14.074 0-27.572 5.591-37.523 15.543S27.26 80.063 27.26 94.137c.003 6.715 1.28 13.368 3.764 19.607l3.293.001 51.644-10.352h.705c.022-2.233.098-4.986.387-7.186a11.42 11.42 0 0 1 .109-.746c.022-.1.033-.198.05-.295v.004a11.42 11.42 0 0 1 22.362.019l.028-.022c.417 2.315.532 5.624.546 8.227h.223l17.665 10.352h1.586c2.484-6.239 3.761-12.893 3.764-19.608 0-29.307-23.758-53.066-53.065-53.066z"/></g><rect width="153.458" height="153.458" x="2.646" y="2.646" rx="7.938" fill="none" stroke="#fff" stroke-width="2.646"/></svg>