<?xml version="1.0" encoding="UTF-8" standalone="no"?>
<!-- Created with Inkscape (http://www.inkscape.org/) -->

<svg
   width="221.2272mm"
   height="194.86749mm"
   viewBox="0 0 221.22721 194.8675"
   version="1.1"
   id="svg1"
   inkscape:version="1.3.2 (091e20e, 2023-11-25, custom)"
   sodipodi:docname="Segnale stradale italiano 1992 - figura II 23.svg"
   xmlns:inkscape="http://www.inkscape.org/namespaces/inkscape"
   xmlns:sodipodi="http://sodipodi.sourceforge.net/DTD/sodipodi-0.dtd"
   xmlns="http://www.w3.org/2000/svg"
   xmlns:svg="http://www.w3.org/2000/svg">
  <sodipodi:namedview
     id="namedview1"
     pagecolor="#ffffff"
     bordercolor="#000000"
     borderopacity="0.25"
     inkscape:showpageshadow="2"
     inkscape:pageopacity="0.0"
     inkscape:pagecheckerboard="0"
     inkscape:deskcolor="#d1d1d1"
     inkscape:document-units="mm"
     inkscape:zoom="0.51654112"
     inkscape:cx="416.23018"
     inkscape:cy="201.33925"
     inkscape:window-width="1920"
     inkscape:window-height="991"
     inkscape:window-x="-9"
     inkscape:window-y="-9"
     inkscape:window-maximized="1"
     inkscape:current-layer="layer1" />
  <defs
     id="defs1" />
  <g
     inkscape:label="Livello 1"
     inkscape:groupmode="layer"
     id="layer1"
     transform="translate(-16.12186,-37.63639)">
    <g
       id="g65"
       transform="translate(-697.72397,-438.6136)">
      <path
         id="rect14439-6-7-2-2-0-2-1-0-2"
         style="fill:#000000;fill-rule:evenodd;stroke-width:1.89776;stroke-linecap:round;stroke-linejoin:round;paint-order:markers fill stroke"
         d="m 824.12513,476.24999 c -0.088,0 -0.1767,0.016 -0.2651,0.02 -0.1876,0.01 -0.374,0.024 -0.5607,0.042 -0.2732,0.026 -0.546,0.052 -0.8185,0.097 -0.013,0 -0.026,0 -0.039,0.01 -0.3638,0.061 -0.7263,0.1412 -1.0868,0.2367 -0.021,0.01 -0.042,0.01 -0.063,0.016 -0.3391,0.092 -0.676,0.2004 -1.0102,0.323 -0.043,0.016 -0.086,0.03 -0.1287,0.047 -0.3137,0.1191 -0.6242,0.2536 -0.9317,0.4005 -0.054,0.026 -0.1074,0.051 -0.1608,0.077 -0.2353,0.1166 -0.4694,0.2388 -0.7002,0.3721 -0.069,0.04 -0.1343,0.083 -0.202,0.1235 -0.036,0.022 -0.071,0.044 -0.107,0.066 -2.0293,1.2515 -3.5686,3.0003 -4.5465,4.9976 l -97.9537,169.66 c -0.7379,1.2451 -1.2678,2.6279 -1.5234,4.1108 -0.029,0.1688 -0.054,0.3389 -0.076,0.5101 -0.01,0.039 -0.01,0.077 -0.015,0.1157 -0.042,0.3503 -0.069,0.7051 -0.081,1.064 0,0.052 0,0.104 0,0.1561 0,0.084 -0.01,0.1665 -0.01,0.2506 0,0.2693 0.012,0.5357 0.029,0.8005 0,0.031 0,0.063 0.01,0.094 0.1135,1.576 0.5334,3.0611 1.1865,4.4116 0.01,0.013 0.012,0.025 0.018,0.038 1.9215,3.939 5.8934,6.6762 10.5513,6.8177 0.048,0 0.096,0 0.1447,0 0.078,0 0.1555,0.01 0.2341,0.01 h 196.8804 c 0.079,0 0.1559,0 0.2341,-0.01 0.048,0 0.097,0 0.1452,0 4.6594,-0.1416 8.6326,-2.8807 10.5533,-6.8218 0,-0.01 0.01,-0.019 0.014,-0.029 0.6544,-1.3517 1.0749,-2.8384 1.1886,-4.4162 0,-0.031 0,-0.063 0.01,-0.094 0.017,-0.2648 0.028,-0.5312 0.028,-0.8005 0,-0.082 -0.01,-0.1624 -0.01,-0.2439 -10e-4,-0.055 0,-0.1108 0,-0.1664 -0.012,-0.3576 -0.038,-0.7109 -0.08,-1.0599 0,-0.04 -0.01,-0.08 -0.015,-0.1193 -0.022,-0.1694 -0.047,-0.3378 -0.076,-0.5049 -10e-5,-7e-4 -4e-4,0 -5e-4,0 -2e-4,-8e-4 -4e-4,0 -5e-4,0 -0.257,-1.489 -0.7907,-2.8768 -1.5338,-4.1258 l -97.9485,-169.6532 c -0.9778,-1.9921 -2.5142,-3.7366 -4.5388,-4.9858 -0.037,-0.023 -0.075,-0.046 -0.1121,-0.069 -0.067,-0.04 -0.1317,-0.082 -0.1995,-0.1214 -0.2273,-0.1313 -0.4576,-0.2513 -0.6893,-0.3664 -0.061,-0.03 -0.1225,-0.059 -0.184,-0.088 -0.3008,-0.1432 -0.6044,-0.275 -0.9111,-0.3917 -0.05,-0.019 -0.1002,-0.036 -0.1503,-0.054 -0.3267,-0.1194 -0.6557,-0.2257 -0.9871,-0.3157 -0.03,-0.01 -0.061,-0.015 -0.091,-0.023 -0.3516,-0.093 -0.7051,-0.17 -1.0599,-0.23 -0.021,0 -0.042,-0.01 -0.062,-0.01 -0.2633,-0.043 -0.5271,-0.068 -0.7911,-0.094 -0.1944,-0.019 -0.3886,-0.035 -0.584,-0.044 -0.1926,-0.01 -0.3844,-0.012 -0.5767,-0.012 -0.1135,-10e-5 -0.2263,-0.01 -0.34,-0.01 z"
         sodipodi:nodetypes="sssscscsssssscccsscsssscscssssscscscsssscsscccsssssssssssssss" />
      <path
         id="rect14439-7-2-2-2-0-5-1"
         style="fill:#ffffff;fill-rule:evenodd;stroke-width:1.87477;stroke-linecap:round;stroke-linejoin:round;paint-order:markers fill stroke"
         d="m 824.13263,476.51849 c -0.084,0 -0.1674,0.015 -0.2512,0.019 -0.1897,0.01 -0.3781,0.024 -0.5668,0.043 -0.1943,0.019 -0.388,0.04 -0.5819,0.069 -0.1867,0.027 -0.3716,0.061 -0.5566,0.098 -0.2457,0.048 -0.4913,0.096 -0.7353,0.1602 -0.03,0.01 -0.06,0.015 -0.09,0.023 -0.3246,0.088 -0.6469,0.192 -0.9669,0.309 -0.048,0.017 -0.096,0.034 -0.1431,0.052 -0.3038,0.1155 -0.6045,0.2459 -0.9023,0.3881 -0.054,0.026 -0.108,0.051 -0.1618,0.078 -0.2297,0.1139 -0.4583,0.2327 -0.6836,0.3628 -0.067,0.039 -0.1306,0.081 -0.1964,0.1204 -0.036,0.022 -0.072,0.044 -0.1085,0.066 -1.9833,1.2237 -3.4879,2.9328 -4.4442,4.885 l -97.9697,169.6878 c -0.3276,0.5537 -0.6118,1.1343 -0.8475,1.7415 -0.015,0.039 -0.028,0.079 -0.043,0.1184 -0.3222,0.8566 -0.5579,1.7559 -0.676,2.6949 0,0.023 -0.01,0.046 -0.01,0.07 -0.041,0.3412 -0.067,0.6869 -0.079,1.0366 0,0.056 0,0.1109 0,0.1664 0,0.08 -0.01,0.1583 -0.01,0.2382 0,0.2629 0.011,0.5228 0.028,0.7814 0,0.031 0,0.062 0.01,0.093 0.081,1.1228 0.3249,2.1965 0.6935,3.2101 0.016,0.043 0.031,0.087 0.048,0.1297 0.1251,0.3319 0.2645,0.6557 0.4176,0.9726 0.01,0.014 0.014,0.029 0.021,0.043 1.8798,3.8515 5.764,6.528 10.3187,6.6673 0.048,0 0.096,0 0.1447,0 0.076,0 0.1518,0.01 0.2284,0.01 h 196.8805 c 0.077,0 0.1522,0 0.2284,-0.01 0.048,-10e-4 0.096,0 0.1437,0 4.5552,-0.1389 8.4398,-2.8155 10.3198,-6.6673 0.01,-0.014 0.014,-0.029 0.021,-0.043 0.1526,-0.3158 0.2912,-0.6387 0.416,-0.9695 0.018,-0.046 0.034,-0.092 0.051,-0.1385 0.3668,-1.0103 0.6103,-2.08 0.6914,-3.1987 0,-0.034 0.01,-0.068 0.01,-0.1013 0.016,-0.2577 0.028,-0.5168 0.028,-0.7788 0,-0.08 0,-0.1587 -0.01,-0.2382 -10e-4,-0.055 0,-0.1105 0,-0.1659 -0.012,-0.3497 -0.038,-0.6953 -0.079,-1.0366 0,-0.024 -0.01,-0.047 -0.01,-0.071 -0.1158,-0.9215 -0.3451,-1.8045 -0.6578,-2.6469 -0.02,-0.054 -0.038,-0.1087 -0.059,-0.1623 -8e-4,0 0,0 0,-0.01 -0.2372,-0.6103 -0.5238,-1.1936 -0.8537,-1.7497 l -97.9729,-169.6951 c -0.9567,-1.9445 -2.4573,-3.647 -4.4343,-4.8669 -0.036,-0.022 -0.072,-0.044 -0.1085,-0.066 -0.066,-0.04 -0.1295,-0.082 -0.1964,-0.1204 -0.2253,-0.1301 -0.4539,-0.2489 -0.6837,-0.3628 -0.054,-0.027 -0.1077,-0.052 -0.1617,-0.078 -0.2981,-0.1422 -0.5989,-0.2725 -0.9028,-0.3881 -0.047,-0.018 -0.094,-0.034 -0.1411,-0.051 -0.3204,-0.1172 -0.6429,-0.2212 -0.9679,-0.3095 -0.03,-0.01 -0.06,-0.015 -0.09,-0.023 -0.2441,-0.064 -0.4896,-0.112 -0.7354,-0.1602 -0.185,-0.036 -0.3698,-0.07 -0.5565,-0.098 -0.194,-0.028 -0.3876,-0.05 -0.5819,-0.069 -0.1887,-0.018 -0.3771,-0.034 -0.5669,-0.043 -0.1922,-0.01 -0.3838,-0.013 -0.5756,-0.012 -0.1082,-1e-4 -0.2157,-0.01 -0.3241,-0.01 z"
         sodipodi:nodetypes="ssssssssssssscccscscsssscscscssssscscscscsssscsscccsssssssssssssss" />
      <path
         id="rect14439-6-0-0-9-4-1-1-8"
         style="fill:#d92124;fill-rule:evenodd;stroke-width:1.50297;stroke-linecap:round;stroke-linejoin:round;paint-order:markers fill stroke"
         d="m 824.24043,480.48889 c -0.057,0 -0.1144,0.01 -0.1716,0.013 -0.1235,0.01 -0.2462,0.017 -0.369,0.028 -0.1311,0.013 -0.2618,0.027 -0.3927,0.046 -0.1241,0.018 -0.247,0.041 -0.37,0.065 -0.1285,0.025 -0.2566,0.052 -0.3845,0.084 -0.1237,0.031 -0.2458,0.066 -0.3679,0.1029 -0.123,0.037 -0.2455,0.075 -0.3674,0.1178 -0.132,0.047 -0.2613,0.099 -0.3907,0.1529 -0.1072,0.044 -0.2144,0.088 -0.3204,0.1375 -0.135,0.063 -0.2663,0.1334 -0.3979,0.2041 -0.075,0.04 -0.1528,0.073 -0.2274,0.1163 -0.031,0.018 -0.058,0.039 -0.088,0.057 -0.1004,0.06 -0.1972,0.1261 -0.2951,0.1907 -0.1339,0.088 -0.2678,0.1749 -0.3948,0.2693 -0.038,0.029 -0.074,0.06 -0.1121,0.09 -0.9877,0.7623 -1.7613,1.7172 -2.2825,2.7858 l -98.1155,169.9411 c -0.3997,0.674 -0.7019,1.411 -0.8888,2.1957 -0.011,0.046 -0.025,0.092 -0.035,0.139 -0.035,0.1614 -0.061,0.326 -0.086,0.491 -0.017,0.1057 -0.036,0.2109 -0.048,0.3167 -0.014,0.1228 -0.02,0.2476 -0.028,0.3721 -0.01,0.1452 -0.02,0.2902 -0.022,0.4351 -4e-4,0.034 0,0.067 0,0.1013 0,0.086 0.01,0.1691 0.013,0.2543 0.01,0.1396 0.01,0.2791 0.021,0.418 0.012,0.1438 0.031,0.2849 0.051,0.4264 0.015,0.1048 0.029,0.2095 0.047,0.3136 0.032,0.1766 0.071,0.3497 0.1137,0.522 0.015,0.061 0.03,0.1222 0.046,0.1829 0.057,0.206 0.1219,0.4078 0.1943,0.6067 0.01,0.028 0.02,0.056 0.031,0.084 0.084,0.2239 0.1782,0.4422 0.2816,0.6558 0,0.01 0.01,0.012 0.01,0.018 1.1334,2.3258 3.3638,4.0037 6.0302,4.3713 0.057,0.01 0.1135,0.019 0.1705,0.026 0.1497,0.017 0.302,0.026 0.4542,0.035 0.1238,0.01 0.2474,0.017 0.3711,0.019 0.035,5e-4 0.069,0.01 0.1043,0.01 h 196.8795 c 0.035,0 0.069,0 0.1044,-0.01 0.1237,0 0.2472,-0.011 0.371,-0.019 0.1523,-0.01 0.3045,-0.017 0.4543,-0.035 0.057,-0.01 0.1136,-0.018 0.1705,-0.026 2.6664,-0.3676 4.8968,-2.0455 6.0301,-4.3713 0,-0.01 0.01,-0.012 0.01,-0.018 0.1039,-0.2146 0.1981,-0.434 0.2827,-0.6589 0.01,-0.026 0.018,-0.052 0.028,-0.077 0.073,-0.2002 0.1389,-0.4033 0.1959,-0.6108 0.017,-0.06 0.031,-0.1198 0.046,-0.1799 0.044,-0.1757 0.084,-0.3525 0.1157,-0.5327 0.018,-0.097 0.03,-0.1951 0.044,-0.293 0.02,-0.1459 0.04,-0.2915 0.052,-0.4398 0.012,-0.1386 0.016,-0.2777 0.021,-0.417 0,-0.085 0.013,-0.1684 0.013,-0.2543 0,-0.034 0,-0.067 0,-0.1013 0,-0.1449 -0.012,-0.2899 -0.022,-0.4351 -0.01,-0.1245 -0.014,-0.2493 -0.028,-0.3721 -0.012,-0.1061 -0.031,-0.2118 -0.048,-0.3178 -0.025,-0.1642 -0.051,-0.3281 -0.086,-0.4888 -0.011,-0.049 -0.025,-0.097 -0.037,-0.1452 -0.187,-0.7828 -0.4884,-1.5181 -0.8873,-2.1906 l -98.1154,-169.9411 c -0.5213,-1.0689 -1.295,-2.0239 -2.283,-2.7863 -0.038,-0.03 -0.074,-0.061 -0.1127,-0.09 -0.1222,-0.091 -0.2511,-0.1747 -0.3798,-0.2594 -0.1044,-0.069 -0.2076,-0.1396 -0.3147,-0.2036 -0.028,-0.017 -0.054,-0.037 -0.082,-0.053 -0.073,-0.042 -0.1482,-0.074 -0.2217,-0.1137 -0.1337,-0.072 -0.2674,-0.1432 -0.4046,-0.2072 -0.1017,-0.047 -0.2043,-0.089 -0.307,-0.1318 -0.1372,-0.057 -0.2745,-0.113 -0.4145,-0.1623 -0.1147,-0.04 -0.23,-0.076 -0.3457,-0.1105 -0.1257,-0.038 -0.2514,-0.074 -0.3788,-0.106 -0.1278,-0.032 -0.2559,-0.059 -0.3844,-0.084 -0.1229,-0.024 -0.2456,-0.047 -0.3695,-0.065 -0.131,-0.019 -0.2616,-0.033 -0.3928,-0.046 -0.1228,-0.012 -0.2455,-0.022 -0.3689,-0.028 -0.1297,-0.01 -0.2587,-0.01 -0.3881,-0.01 -0.072,0 -0.1442,-0.01 -0.2165,0 z"
         sodipodi:nodetypes="ssssssssssssscscccscsssssssscscscscsccsssscscscscscscsssssscscccsccssssssssssssss" />
      <path
         sodipodi:type="star"
         style="fill:#ffffff;stroke-width:0.499999;paint-order:markers stroke fill"
         id="path2991-5-5-5"
         inkscape:flatsided="true"
         sodipodi:sides="3"
         sodipodi:cx="108.56278"
         sodipodi:cy="53.623089"
         sodipodi:r1="18.772087"
         sodipodi:r2="9.3860435"
         sodipodi:arg1="-1.5707963"
         sodipodi:arg2="-0.52359878"
         inkscape:rounded="0"
         inkscape:randomized="0"
         d="m 108.56278,34.851002 16.25711,28.158131 -32.514212,-10e-7 z"
         inkscape:transform-center-y="-21.802623"
         transform="matrix(4.6457535,0,0,4.6457535,320.10158,352.99303)"
         inkscape:transform-center-x="4.8645369e-06" />
      <g
         id="g64">
        <circle
           style="fill:#000000;stroke-width:2.74594;stroke-linecap:round;paint-order:fill markers stroke"
           id="path28-5"
           cx="799.47156"
           cy="578.32672"
           r="6.6393623" />
        <path
           id="path28-8-2"
           style="fill:#000000;stroke-width:2.3998;stroke-linecap:round;paint-order:fill markers stroke"
           d="m 850.34806,577.42436 a 5.8024681,5.8024681 0 0 0 -5.80219,5.80221 5.8024681,5.8024681 0 0 0 5.80219,5.80353 5.8024681,5.8024681 0 0 0 4.05514,-1.67259 l 1.66863,0.99719 -1.97305,1.13811 4.21206,2.45569 0.15694,-2.16053 2.55277,1.52632 a 1.2864315,1.2864315 0 0 0 1.76432,-0.44407 1.2864315,1.2864315 0 0 0 -0.44403,-1.76432 l -2.33472,-1.39606 1.7258,-0.99583 -4.21206,-2.45438 -0.13559,1.88133 -1.59013,-0.95062 a 5.8024681,5.8024681 0 0 0 0.35629,-1.96377 5.8024681,5.8024681 0 0 0 -5.80219,-5.80221 z" />
        <path
           style="fill:#000000;stroke-width:2.57286;stroke-linecap:round;paint-order:fill markers stroke"
           d="m 784.79809,603.43351 15.56618,9.42903 -6.69518,11.047 -15.39879,-9.65218 z"
           id="path29-5"
           sodipodi:nodetypes="ccccc" />
        <g
           id="path30-5"
           transform="matrix(0.68073672,0,0,0.68073672,-708.93659,640.4391)">
          <path
             style="color:#000000;fill:#42e749;fill-opacity:0.44012;stroke-linecap:round;-inkscape-stroke:none;paint-order:fill markers stroke"
             d="M 2209.5358,-52.476005 2225.354,-77.63763"
             id="path31-4" />
          <path
             id="path32-2"
             style="color:#000000;fill:#000000;stroke-linecap:round;-inkscape-stroke:none;paint-order:fill markers stroke"
             d="m 2229.3516,-82.720814 c -2.7345,-0.202434 -5.3414,1.072652 -7.0371,3.171875 l -15.8184,25.162108 c -1.0557,1.678935 -0.5502,3.895786 1.1289,4.951171 1.6789,1.05569 3.8958,0.550228 4.9512,-1.128906 l 8.4961,-13.513671 9.6914,11.765624 -4.0977,9.589843 1.9512,0.740235 -2.2344,5.414062 c -0.2508,0.626251 -0.5238,1.240402 -0.5811,1.867964 -0.057,0.627563 0.062,1.256961 0.128,1.839067 l 3.1426,25.5468733 c 0.2931,2.3829767 2.4628,4.0769377 4.8457,3.7832029 2.383,-0.2931 4.0769,-2.4628044 3.7832,-4.8457028 l -3.1133,-25.2871074 2.1602,-5.234375 1.8007,0.683594 2.2129,-5.65625 3.5254,4.263672 1.4551,-1.115235 6.3965,6.603516 c 0.5447,0.554038 1.349,1.19955 2.5664,1.434512 1.2173,0.234963 2.1276,0.275038 3.3477,-0.385684 l 14.8671,-8.150391 c 2.105,-1.15366 2.8763,-3.795328 1.7227,-5.90039 -0.554,-1.011196 -1.487,-1.760851 -2.5938,-2.083984 -1.1071,-0.323282 -2.2973,-0.193299 -3.3085,0.361328 l -12.254,6.71875 -3.8007,-3.921875 1.4355,-1.101563 -9.3418,-10.572264 -4.164,-13.654296 15.4179,5.310546 c 1.8747,0.644631 3.9171,-0.352093 4.5625,-2.226562 0.6461,-1.874743 -0.3499,-3.918289 -2.2246,-4.564453 l -28.1015,-9.677734 c -0.2965,-0.102328 -0.6051,-0.165365 -0.918,-0.1875 z"
             sodipodi:nodetypes="cscscccccczcsccccccccczccsscccccccsccc" />
        </g>
        <g
           id="path30-2-7-0"
           transform="matrix(0.68073672,0,0,0.68073672,-708.93659,640.4391)">
          <path
             style="color:#000000;fill:#42e749;fill-opacity:0.44012;stroke-linecap:round;-inkscape-stroke:none;paint-order:fill markers stroke"
             d="m 2266.0289,-65.749157 5.9719,6.317376"
             id="path57-4" />
          <path
             id="path58-3"
             style="color:#000000;fill:#000000;stroke-linecap:round;-inkscape-stroke:none;paint-order:fill markers stroke"
             d="m 2292.7071,-71.992299 c -1.1138,-0.08558 -1.9313,-0.223529 -3.0702,-0.04172 -1.1389,0.181817 -1.9637,0.680523 -2.9923,1.278044 L 2273,-62.77746 l -4.7734,-5.048828 c -1.147,-1.214471 -3.0615,-1.268696 -4.2754,-0.121093 -1.2139,1.147554 -1.2672,3.062037 -0.1191,4.27539 l 5.9707,6.316406 c 0.6944,0.735125 1.8172,1.105822 2.707,1.109196 0.8898,0.0034 1.5348,-0.142619 2.2012,-0.525212 l 7.6093,-4.449218 3.0586,8.005859 -4.998,14.343749 h 2.4765 l -3.0039,9.097655 c -0.5177,1.313245 -0.8694,2.419188 -0.7773,3.81836 l 2.7754,18.2324202 c 0.2982,1.9605136 2.1293,3.3080514 4.0898,3.0097655 1.9605,-0.2981881 3.3081,-2.129315 3.0098,-4.0898435 l -2.7188,-17.8554672 4.1875,-12.21289 h 2.6543 l 4.5332,7.808593 c 0.5422,0.931859 1.3319,1.564684 2.2731,1.839996 0.9411,0.275311 1.9746,0.344144 2.8207,0.09164 l 16.1387,-4.941405 c 1.8964,-0.580229 2.9633,-2.588044 2.3828,-4.484375 -0.5802,-1.896422 -2.5881,-2.963297 -4.4844,-2.382813 l -14.0625,4.304688 -1.4004,-2.41211 2.0215,-0.80664 -6.9668,-13.361327 4.0527,-10.095703 3.0664,0.966797 2.8438,7.208984 c 0.6128,1.554255 2.37,2.316955 3.9238,1.703125 1.5524,-0.613555 2.314,-2.369113 1.7012,-3.921875 l -3.4297,-8.695312 c -0.4461,-1.125301 -1.7253,-1.589203 -3.2223,-2.113102 l -11.8949,-3.699398 c -0.2157,-0.06833 -0.4385,-0.112225 -0.664,-0.130859 z"
             sodipodi:nodetypes="czcccscczccccccccsccccczccsscccccccscccccc" />
        </g>
        <path
           style="fill:#000000;stroke-width:4.11658;stroke-linecap:round;paint-order:fill markers stroke"
           d="m 867.76217,604.10304 3.7939,5.35611 -10.60064,4.24026 -0.61375,-6.63935 z"
           id="path61-2" />
      </g>
    </g>
  </g>
</svg>
