<?xml version="1.0" encoding="UTF-8" standalone="no"?>
<!-- Created with Inkscape (http://www.inkscape.org/) -->

<svg
   xmlns:dc="http://purl.org/dc/elements/1.1/"
   xmlns:cc="http://creativecommons.org/ns#"
   xmlns:rdf="http://www.w3.org/1999/02/22-rdf-syntax-ns#"
   xmlns:svg="http://www.w3.org/2000/svg"
   xmlns="http://www.w3.org/2000/svg"
   xmlns:sodipodi="http://sodipodi.sourceforge.net/DTD/sodipodi-0.dtd"
   xmlns:inkscape="http://www.inkscape.org/namespaces/inkscape"
   width="600"
   height="600"
   id="svg2"
   version="1.1"
   inkscape:version="0.48.5 r10040"
   sodipodi:docname="CANC pip.svg">
  <defs
     id="defs4" />
  <sodipodi:namedview
     id="base"
     pagecolor="#ffffff"
     bordercolor="#666666"
     borderopacity="1.0"
     inkscape:pageopacity="0.0"
     inkscape:pageshadow="2"
     inkscape:zoom="0.24748737"
     inkscape:cx="159.60132"
     inkscape:cy="302.00572"
     inkscape:document-units="px"
     inkscape:current-layer="layer1"
     showgrid="false"
     inkscape:object-paths="true"
     inkscape:snap-intersection-paths="true"
     inkscape:object-nodes="true"
     inkscape:snap-smooth-nodes="true"
     inkscape:snap-object-midpoints="true"
     fit-margin-top="0"
     fit-margin-left="0"
     fit-margin-right="0"
     fit-margin-bottom="0"
     inkscape:window-width="1366"
     inkscape:window-height="705"
     inkscape:window-x="-8"
     inkscape:window-y="-8"
     inkscape:window-maximized="1"
     inkscape:snap-global="true"
     inkscape:snap-midpoints="true" />
  <metadata
     id="metadata7">
    <rdf:RDF>
      <cc:Work
         rdf:about="">
        <dc:format>image/svg+xml</dc:format>
        <dc:type
           rdf:resource="http://purl.org/dc/dcmitype/StillImage" />
        <dc:title></dc:title>
      </cc:Work>
    </rdf:RDF>
  </metadata>
  <g
     inkscape:label="Livello 1"
     inkscape:groupmode="layer"
     id="layer1"
     transform="translate(0,-452.36218)">
    <rect
       style="fill:#d40000;fill-opacity:1;fill-rule:evenodd;stroke:none;opacity:1"
       id="rect2985"
       width="600"
       height="600"
       x="2.7755576e-016"
       y="452.36218" />
    <rect
       style="fill:none;stroke:#000000;stroke-width:0;stroke-miterlimit:4;stroke-opacity:1;stroke-dasharray:none"
       id="rect3755"
       width="580"
       height="580"
       x="10.333334"
       y="462.02887"
       rx="31.666655"
       ry="31.666655" />
    <rect
       style="fill:none;stroke:#ffffff;stroke-width:10.00000095000000000;stroke-miterlimit:4;stroke-opacity:1;stroke-dasharray:none"
       id="rect4892"
       width="580"
       height="580"
       x="10"
       y="462.36212"
       rx="30.000059"
       ry="30.000059" />
    <g
       style="font-size:315.64254761px;font-style:normal;font-weight:normal;line-height:125%;letter-spacing:0px;word-spacing:0px;fill:#ffffff;fill-opacity:1;stroke:none;font-family:Sans"
       id="text6457">
      <path
         d="m 141.96774,638.8944 c 27.1447,0.62957 46.71501,14.51662 58.71098,41.6612 l -32.51018,20.51753 c -7.78969,-14.94325 -16.83795,-22.41497 -27.1448,-22.41516 -4.63016,1.9e-4 -8.57633,1.63132 -11.83852,4.89338 -3.26231,3.26245 -5.10536,7.52328 -5.52914,12.78252 -0.41747,4.21285 1.26824,8.52828 5.05714,12.94628 1.25861,1.47075 4.94148,4.83896 11.04864,10.10464 15.99011,12.41342 34.08663,27.77426 54.2896,46.08258 7.99496,10.10154 11.99251,22.41205 11.99264,36.93157 -1.3e-4,16.61958 -5.05084,30.92726 -15.15215,42.92307 -11.36663,13.25454 -26.41281,20.19967 -45.13858,20.83541 -27.77418,0.84126 -47.871067,-14.7315 -60.290734,-46.71833 l 33.781694,-19.25566 c 7.15379,17.46726 15.67546,26.20085 25.56504,26.2008 2.94751,5e-5 5.89189,-0.73524 8.83313,-2.20588 7.5776,-3.78878 11.36644,-10.20733 11.36653,-19.25566 -9e-5,-6.52443 -2.31514,-11.99577 -6.94514,-16.41403 -11.78401,-9.88942 -23.56794,-19.77892 -35.35181,-29.66855 -17.46723,-14.51947 -27.989281,-25.04152 -31.566183,-31.56618 -5.471355,-9.47194 -8.207024,-19.36145 -8.207015,-29.66855 -9e-6,-15.99642 5.997913,-29.88668 17.993788,-41.67083 11.99581,-11.7837 25.67416,-17.46375 41.03507,-17.04015 z"
         style="font-variant:normal;font-stretch:normal;text-align:center;letter-spacing:8px;text-anchor:middle;fill:#ffffff;font-family:CodiceBiancoCondensed;-inkscape-font-specification:CodiceBiancoCondensed"
         id="path6466" />
      <path
         d="m 301.20028,640.15628 c 16.83135,2.4e-4 31.35094,7.78662 43.55883,23.35917 15.36072,19.99114 23.04114,49.45095 23.04129,88.37952 -1.5e-4,39.34624 -7.3659,69.12072 -22.09729,89.32353 -11.78405,16.62597 -26.4096,24.93893 -43.87671,24.93892 -18.30208,10e-6 -33.66293,-9.57483 -46.08258,-28.72455 -13.67837,-21.25598 -20.51754,-50.08646 -20.51753,-86.49153 -1e-5,-36.1929 6.7332,-64.28488 20.19966,-84.27602 11.99581,-17.67247 27.2539,-26.5088 45.77433,-26.50904 z M 280.68274,750.6331 c -5e-5,47.97707 7.04783,71.96555 21.14366,71.9655 13.67827,5e-5 20.51744,-23.98843 20.51754,-71.9655 -10e-5,-47.13558 -7.04798,-70.70343 -21.14366,-70.70363 -13.67842,2e-4 -20.51759,23.56805 -20.51754,70.70363 z"
         style="font-variant:normal;font-stretch:normal;text-align:center;letter-spacing:8px;text-anchor:middle;fill:#ffffff;font-family:CodiceBiancoCondensed;-inkscape-font-specification:CodiceBiancoCondensed"
         id="path6468" />
      <path
         d="m 452.03317,638.8944 c 27.1447,0.62957 46.71501,14.51662 58.71098,41.6612 l -32.51019,20.51753 c -7.78968,-14.94325 -16.83794,-22.41497 -27.14479,-22.41516 -4.63016,1.9e-4 -8.57633,1.63132 -11.83852,4.89338 -3.26231,3.26245 -5.10536,7.52328 -5.52914,12.78252 -0.41747,4.21285 1.26824,8.52828 5.05714,12.94628 1.25861,1.47075 4.94148,4.83896 11.04864,10.10464 15.99011,12.41342 34.08663,27.77426 54.28959,46.08258 7.99497,10.10154 11.99252,22.41205 11.99265,36.93157 -1.3e-4,16.61958 -5.05085,30.92726 -15.15215,42.92307 -11.36663,13.25454 -26.41281,20.19967 -45.13858,20.83541 -27.77418,0.84126 -47.87107,-14.7315 -60.29073,-46.71833 l 33.78169,-19.25566 c 7.15379,17.46726 15.67546,26.20085 25.56504,26.2008 2.94751,5e-5 5.89189,-0.73524 8.83313,-2.20588 7.5776,-3.78878 11.36644,-10.20733 11.36653,-19.25566 -9e-5,-6.52443 -2.31514,-11.99577 -6.94514,-16.41403 -11.78401,-9.88942 -23.56794,-19.77892 -35.35181,-29.66855 -17.46723,-14.51947 -27.98928,-25.04152 -31.56618,-31.56618 -5.47136,-9.47194 -8.20703,-19.36145 -8.20702,-29.66855 -10e-6,-15.99642 5.99791,-29.88668 17.99379,-41.67083 11.99581,-11.7837 25.67415,-17.46375 41.03507,-17.04015 z"
         style="font-variant:normal;font-stretch:normal;text-align:center;letter-spacing:8px;text-anchor:middle;fill:#ffffff;font-family:CodiceBiancoCondensed;-inkscape-font-specification:CodiceBiancoCondensed"
         id="path6470" />
    </g>
  </g>
</svg>
