<?xml version="1.0" encoding="UTF-8" standalone="no"?>
<!-- Created with Inkscape (http://www.inkscape.org/) -->

<svg
   width="158.75mm"
   height="238.125mm"
   viewBox="0 0 158.75 238.125"
   version="1.1"
   id="svg31451"
   inkscape:version="1.2.1 (9c6d41e410, 2022-07-14)"
   sodipodi:docname="Segnale stradale italiano - motel albergo (figura II 365).svg"
   xmlns:inkscape="http://www.inkscape.org/namespaces/inkscape"
   xmlns:sodipodi="http://sodipodi.sourceforge.net/DTD/sodipodi-0.dtd"
   xmlns="http://www.w3.org/2000/svg"
   xmlns:svg="http://www.w3.org/2000/svg">
  <sodipodi:namedview
     id="namedview31453"
     pagecolor="#ffffff"
     bordercolor="#000000"
     borderopacity="0.25"
     inkscape:showpageshadow="2"
     inkscape:pageopacity="0.0"
     inkscape:pagecheckerboard="0"
     inkscape:deskcolor="#d1d1d1"
     inkscape:document-units="mm"
     showgrid="false"
     inkscape:zoom="0.76257015"
     inkscape:cx="287.84237"
     inkscape:cy="256.36986"
     inkscape:window-width="1920"
     inkscape:window-height="991"
     inkscape:window-x="-9"
     inkscape:window-y="-9"
     inkscape:window-maximized="1"
     inkscape:current-layer="layer1" />
  <defs
     id="defs31448" />
  <g
     inkscape:label="Livello 1"
     inkscape:groupmode="layer"
     id="layer1"
     transform="translate(-29.224304,21.913023)">
    <g
       id="g14166"
       transform="translate(1231.3703,-1078.3598)">
      <rect
         style="fill:#00408b;fill-rule:evenodd;stroke-width:29.4791;paint-order:markers fill stroke"
         id="rect3812-6-0-8-4-4"
         width="158.75"
         height="238.125"
         x="-1202.146"
         y="1056.4468" />
      <rect
         style="fill:none;fill-rule:evenodd;stroke:#ffffff;stroke-width:3.175;paint-order:markers fill stroke"
         id="rect3812-0-8-2-9-1-1"
         width="152.39999"
         height="231.77499"
         x="-1198.9709"
         y="1059.6218"
         ry="10.31875"
         rx="10.31875" />
      <rect
         style="fill:#ffffff;fill-rule:evenodd;stroke-width:4.84527;paint-order:markers fill stroke"
         id="rect10936-6-3-8-6-6"
         width="119.0625"
         height="119.0625"
         x="-1182.3022"
         y="1076.2905" />
      <g
         id="g14092"
         transform="matrix(3.1512769,0,0,3.1512769,380.19961,-429.43781)">
        <path
           style="fill:#000000;fill-rule:evenodd;stroke-width:2.013;stroke-opacity:0.553846;paint-order:markers fill stroke"
           d="m -474.18014,509.11827 1.98818,-0.53264 v -3.50699 l 9.37495,-2.54362 v 3.46364 l 2.12466,-0.59054 v -7.87368 c 0,-1.09239 -0.64721,-1.49068 -1.96866,-1.1366 l -9.46571,2.53633 c -1.54748,0.41465 -2.02584,1.25402 -2.02584,2.2364 z"
           id="path13530-1"
           sodipodi:nodetypes="ccccccccccc" />
        <path
           style="fill:#000000;fill-rule:evenodd;stroke-width:2.013;stroke-opacity:0.553846;paint-order:markers fill stroke"
           d="m -490.49084,492.13697 3.60204,1.92882 11.942,-3.30886 9.91118,5.10909 -8.47693,2.24398 c -1.16106,0.36579 -1.83273,1.38135 -1.83273,2.30121 v 4.26985 l -15.14556,-8.0053 z"
           id="path13964-2"
           sodipodi:nodetypes="ccccccccc" />
        <path
           style="fill:#000000;fill-rule:evenodd;stroke-width:2.013;stroke-opacity:0.553846;paint-order:markers fill stroke"
           d="m -493.5926,498.69981 1.93858,-0.44019 v -8.57604 l 11.34044,-3.18942 v -1.55446 c 0,-0.84187 -0.65107,-1.2018 -1.77563,-0.90048 l -9.72467,2.66961 c -0.83349,0.22333 -1.74805,1.01001 -1.74805,2.27185 z"
           id="path13966-0"
           sodipodi:nodetypes="ccccccccc" />
        <path
           style="fill:#000000;fill-rule:evenodd;stroke-width:2.013;stroke-opacity:0.553846;paint-order:markers fill stroke"
           d="m -481.48328,487.94545 -8.81345,2.4076 c -0.38165,0.10227 -0.38296,0.40289 -0.14947,0.53769 l 3.05964,1.63781 c 0.39513,0.22812 0.69173,0.21997 1.41188,0.027 l 8.75319,-2.37862 c 0.46109,-0.1236 0.26654,-0.4883 -0.0208,-0.65419 l -2.72858,-1.47919 c -0.40215,-0.159 -0.8007,-0.2888 -1.51241,-0.0981 z"
           id="path13968-2"
           sodipodi:nodetypes="ccccccccc" />
      </g>
    </g>
  </g>
</svg>
