<?xml version="1.0" encoding="UTF-8" standalone="no"?>
<!-- Created with Inkscape (http://www.inkscape.org/) -->

<svg
   xmlns:dc="http://purl.org/dc/elements/1.1/"
   xmlns:cc="http://creativecommons.org/ns#"
   xmlns:rdf="http://www.w3.org/1999/02/22-rdf-syntax-ns#"
   xmlns:svg="http://www.w3.org/2000/svg"
   xmlns="http://www.w3.org/2000/svg"
   xmlns:sodipodi="http://sodipodi.sourceforge.net/DTD/sodipodi-0.dtd"
   xmlns:inkscape="http://www.inkscape.org/namespaces/inkscape"
   version="1.1"
   width="319.276"
   height="279.61874"
   id="svg2"
   xml:space="preserve"
   inkscape:version="0.48.4 r9939"
   sodipodi:docname="AJAX1.svg"><sodipodi:namedview
     pagecolor="#ffffff"
     bordercolor="#666666"
     borderopacity="1"
     objecttolerance="10"
     gridtolerance="10"
     guidetolerance="10"
     inkscape:pageopacity="0"
     inkscape:pageshadow="2"
     inkscape:window-width="1280"
     inkscape:window-height="1004"
     id="namedview9"
     showgrid="false"
     fit-margin-top="0.2"
     fit-margin-left="0.2"
     fit-margin-right="0.2"
     fit-margin-bottom="0.2"
     inkscape:zoom="2"
     inkscape:cx="169.37023"
     inkscape:cy="124.76527"
     inkscape:window-x="-8"
     inkscape:window-y="-8"
     inkscape:window-maximized="1"
     inkscape:current-layer="svg2"
     showguides="true"
     inkscape:guide-bbox="true" /><defs
     id="defs52" /><metadata
     id="metadata4"><rdf:RDF><cc:Work
         rdf:about=""><dc:format>image/svg+xml</dc:format><dc:type
           rdf:resource="http://purl.org/dc/dcmitype/StillImage" /><dc:title /></cc:Work></rdf:RDF></metadata><path
     style="fill:#cd1e00;fill-opacity:1;fill-rule:nonzero;stroke:none"
     d="m 159.638,0.2 c 3.75736,1.3e-4 7.51377,1.87636 9.71878,5.65625 l 148.18797,256.81249 c 1.08125,1.71125 1.53125,3.61374 1.53125,5.59375 0,6.12 -4.94627,11.15625 -11.15629,11.15625 l -296.56343,0 C 5.14627,279.41874 0.2,274.38249 0.2,268.26249 c 0,-1.98001 0.45,-3.8825 1.53125,-5.59375 L 149.91922,5.85625 C 152.12423,2.07636 155.88064,0.20013 159.638,0.2 z"
     id="path11"
     inkscape:connector-curvature="0"
     sodipodi:nodetypes="cccssssccc" /><path
     inkscape:connector-curvature="0"
     style="fill:#ffffff;fill-opacity:1;fill-rule:nonzero;stroke:none"
     d="m 159.638,56.12835 109.574,189.71997 -219.1475,0 z"
     id="path13"
     sodipodi:nodetypes="cccc" /><path
     inkscape:connector-curvature="0"
     style="fill:#000000;fill-rule:nonzero;stroke:none"
     d="m 202.52137,170.69899 c -4.68,6.74875 -9.80875,13.32125 -15.38875,19.53 -0.0888,0.27 -0.18,0.45 -0.18,0.63 0,0.45125 0.35875,0.72 0.9,0.72 l 8.1,-0.54 c -3.96,16.83 -18.90125,28.8 -36.27125,28.8 l 0,16.74 c 25.11,-0.09 46.89125,-17.37 52.56,-41.76 l 6.84,2.25125 c 0.09,0.0887 0.18,0.0887 0.27,0.0887 0.45125,0 0.81,-0.36 0.81,-0.72125 0,-0.17875 0,-0.27 -0.09,-0.3575 -4.5,-8.82125 -9.81,-17.19125 -15.65875,-25.29 -0.27125,-0.36125 -0.63125,-0.54125 -0.99,-0.54125 -0.45125,0 -0.72125,0.18 -0.90125,0.45 z"
     id="path15" /><path
     inkscape:connector-curvature="0"
     style="fill:#000000;fill-rule:nonzero;stroke:none"
     d="m 128.00137,151.34774 c 8.37,0.63125 16.65,1.80125 24.84,3.5125 -0.27,0 -0.18,0 -0.18,0 0.54,0 0.9,-0.36125 0.9,-0.81 0,-0.0913 -0.0887,-0.27125 -0.18,-0.36125 l -4.5,-6.74875 c 16.56,-5.04125 34.3825,2.06875 43.02,17.09875 l 14.58,-8.45875 c -9.63,-16.74 -27.53875,-27 -46.8,-27 -5.31,0 -10.62,0.81 -15.65875,2.24875 l -1.53125,-7.11 c 0,-0.36012 -0.44875,-0.62987 -0.80875,-0.62987 -0.27125,0 -0.54125,0.18075 -0.63,0.36012 -5.22125,8.281 -9.99125,17.191 -13.95125,26.18975 -0.09,0.27125 -0.09,0.45125 -0.09,0.54 0,0.72125 0.45125,1.16875 0.99,1.16875 z"
     id="path17" /><path
     inkscape:connector-curvature="0"
     style="fill:#000000;fill-rule:nonzero;stroke:none"
     d="m 148.52137,225.59899 c -3.6,-7.29 -6.75,-15.02875 -9.36,-23.03875 -0.0888,-0.27125 -0.44875,-0.45125 -0.72,-0.45125 -0.27,0 -0.53875,0.0913 -0.71875,0.36 l -3.60125,7.29 c -12.59862,-11.87875 -15.38925,-30.87 -6.65875,-45.81 l -14.67037,-8.36875 c -4.59113,8.09875 -7.11063,17.45875 -7.11063,26.99875 0,14.94 6.11938,29.25 17.0105,39.42 l -5.40037,4.77 c -0.1795,0.18 -0.26975,0.36 -0.26975,0.63 0,0.45125 0.36012,0.81 0.72012,0.81 2.87975,0.09 5.57988,0.18 8.36925,0.18 7.2,0 14.49,-0.45 21.69125,-1.26 0.36,-0.0887 0.71875,-0.54 0.71875,-1.07875 0,-0.18 0,-0.27125 0,-0.45125 z"
     id="path19" /></svg>