<?xml version="1.0" encoding="UTF-8" standalone="no"?>
<!-- Created with Inkscape (http://www.inkscape.org/) -->

<svg
   xmlns:dc="http://purl.org/dc/elements/1.1/"
   xmlns:cc="http://creativecommons.org/ns#"
   xmlns:rdf="http://www.w3.org/1999/02/22-rdf-syntax-ns#"
   xmlns:svg="http://www.w3.org/2000/svg"
   xmlns="http://www.w3.org/2000/svg"
   xmlns:sodipodi="http://sodipodi.sourceforge.net/DTD/sodipodi-0.dtd"
   xmlns:inkscape="http://www.inkscape.org/namespaces/inkscape"
   id="svg17624"
   version="1.1"
   inkscape:version="0.48.2 r9819"
   width="241.05469"
   height="241.01562"
   xml:space="preserve"
   sodipodi:docname="AJAX1.svg"><metadata
     id="metadata17630"><rdf:RDF><cc:Work
         rdf:about=""><dc:format>image/svg+xml</dc:format><dc:type
           rdf:resource="http://purl.org/dc/dcmitype/StillImage" /><dc:title /></cc:Work></rdf:RDF></metadata><defs
     id="defs17628"><inkscape:perspective
       sodipodi:type="inkscape:persp3d"
       inkscape:vp_x="0 : 0.5 : 1"
       inkscape:vp_y="0 : 1000 : 0"
       inkscape:vp_z="1 : 0.5 : 1"
       inkscape:persp3d-origin="0.5 : 0.33333333 : 1"
       id="perspective17632" /><clipPath
       clipPathUnits="userSpaceOnUse"
       id="clipPath17642"><path
         d="m -2,710 501,0 0,-711 -501,0 0,711 z"
         id="path17644"
         inkscape:connector-curvature="0" /></clipPath><clipPath
       clipPathUnits="userSpaceOnUse"
       id="clipPath17648"><path
         d="m 0,708.06 498,0 0,-708 -498,0 0,708 z"
         id="path17650"
         inkscape:connector-curvature="0" /></clipPath><clipPath
       clipPathUnits="userSpaceOnUse"
       id="clipPath17798"><path
         d="m -2,710 501,0 0,-711 -501,0 0,711 z"
         id="path17800"
         inkscape:connector-curvature="0" /></clipPath><clipPath
       clipPathUnits="userSpaceOnUse"
       id="clipPath17804"><path
         d="m 0,708.06 498,0 0,-708 -498,0 0,708 z"
         id="path17806"
         inkscape:connector-curvature="0" /></clipPath></defs><sodipodi:namedview
     pagecolor="#ffffff"
     bordercolor="#666666"
     borderopacity="1"
     objecttolerance="10"
     gridtolerance="10"
     guidetolerance="10"
     inkscape:pageopacity="0"
     inkscape:pageshadow="2"
     inkscape:window-width="1280"
     inkscape:window-height="1004"
     id="namedview17626"
     showgrid="false"
     inkscape:zoom="1.4158115"
     inkscape:cx="291.15104"
     inkscape:cy="230.43097"
     inkscape:window-x="-8"
     inkscape:window-y="-8"
     inkscape:window-maximized="1"
     inkscape:current-layer="g17634"
     fit-margin-top="0"
     fit-margin-left="0"
     fit-margin-right="0"
     fit-margin-bottom="0"
     showguides="true"
     inkscape:guide-bbox="true" /><g
     id="g17634"
     inkscape:groupmode="layer"
     inkscape:label="GG1999P002"
     transform="matrix(1.25,0,0,-1.25,-396.01562,396.91406)"><path
       style="fill:#ffffff;fill-rule:nonzero;stroke:#000000;stroke-width:1.20000005;stroke-miterlimit:4;stroke-opacity:1;stroke-dasharray:none"
       d="m 509.04682,181.4425 -56.126,-56.126 -79.3701,0 -56.1259,56.126 0,79.369 56.1259,56.126 79.3701,0 56.126,-56.126 0,-79.369 z"
       id="path11"
       inkscape:connector-curvature="0" /><path
       style="fill:#c2111e;fill-opacity:1;fill-rule:nonzero;stroke:none"
       d="m 501.96176,184.37657 -51.975,-51.975 -73.5004,0 -51.9756,51.975 0,73.4994 51.9756,51.9756 73.5004,0 51.975,-51.9756 0,-73.4994 z"
       id="path13"
       inkscape:connector-curvature="0" /><path
       inkscape:connector-curvature="0"
       style="fill:#ffffff;fill-opacity:1;fill-rule:nonzero;stroke:none"
       d="m 429.28244,217.10829 c -12.14001,-0.0229 -18.59326,-8.64495 -18.60004,-19.81451 0.007,-12.36265 7.08312,-20.00136 18.60004,-20.01253 12.71059,0.0111 18.72139,8.56569 18.75844,20.01253 -0.0371,11.43861 -6.50049,19.7916 -18.75844,19.81451 z m -72.47281,-0.56763 c -8.69667,-0.017 -14.18531,-4.32902 -14.15134,-11.14155 -0.034,-4.71126 3.52825,-9.118 9.33302,-10.28348 l 8.01293,-1.6237 c 3.17409,-0.65969 4.92772,-2.65493 4.96353,-4.93713 -0.0358,-3.53345 -3.15105,-5.10172 -8.07893,-5.08235 -3.78979,-0.0193 -6.73132,1.33363 -10.5211,5.29356 l -5.10874,-4.09227 c 5.27987,-5.31045 8.67027,-7.08296 15.62984,-7.11527 8.77694,0.0323 14.49131,5.36094 14.52095,12.47483 -0.0296,4.78703 -3.64324,8.34711 -8.29015,9.24061 l -8.60697,1.82172 c -3.90896,0.77366 -5.32204,2.45504 -5.33315,4.5939 0.0111,3.0306 2.27782,5.28565 6.74565,5.28036 0,0 6.39666,0.0111 9.33302,-4.4355 l 5.41235,3.86785 c -3.81756,6.11582 -13.86091,6.13842 -13.86091,6.13842 z m 100.86789,-0.63365 0,-37.50368 6.81165,0 0.0661,13.6761 7.78851,0 c 8.82387,-0.003 12.78471,6.72999 12.81805,11.9864 -0.0333,5.62119 -3.43632,11.86585 -13.71571,11.84118 l -13.76851,0 z m -80.40654,-0.21121 0,-5.71598 10.81152,0 0,-31.57649 6.60044,0 0,31.57649 10.81152,0 0,5.71598 -28.22348,0 z m 52.01146,-4.51471 c 7.44615,-0.0252 11.81122,-4.65631 11.78837,-13.88731 0.0229,-8.53901 -3.09666,-14.13516 -11.78837,-14.16454 -8.34715,0.0293 -11.74438,5.19434 -11.70918,14.16454 -0.0352,8.2077 3.02239,13.86207 11.70918,13.88731 z m 35.20673,-0.99006 7.33968,0 c 4.02136,0.0264 6.95619,-2.3978 6.95687,-6.20441 -0.001,-4.10913 -2.60098,-6.14753 -7.03607,-6.12521 l -7.26048,0 0,12.32962 z"
       id="path2834" /><path
       inkscape:connector-curvature="0"
       style="font-size:119.63858795px;font-style:normal;font-variant:normal;font-weight:bold;font-stretch:normal;text-align:center;line-height:125%;letter-spacing:0px;word-spacing:0px;text-anchor:middle;fill:#ffffff;fill-opacity:1;stroke:none;font-family:ae_AlMohanad;-inkscape-font-specification:ae_AlMohanad Bold"
       d="m 455.8281,278.84706 c -0.18917,-0.43532 -0.46385,-0.79036 -0.80363,-1.07563 l -0.69235,-0.72944 -3.47415,-4.52505 1.63198,-1.4589 1.64435,-1.00144 2.29961,-1.22399 c 0.22593,-0.14086 0.54028,-0.2566 0.93963,-0.34618 l 1.23635,-0.136 1.92871,1.8298 1.10036,1.0509 0.12363,0.34618 0.84072,-0.74181 1.81744,-1.06326 c 2.08426,-1.08822 3.46743,-1.63202 4.14178,-1.63199 l 2.12652,2.06471 c 1.17873,1.26189 2.21706,2.71003 3.11561,4.3396 l -7.71484,4.3025 -3.12797,-2.84361 c -0.45916,-0.40594 -0.65276,-0.63879 -0.59345,-0.70472 l -0.9149,0.34618 -1.57016,0.86545 -1.76799,1.19926 z m -63.21467,-4.56214 c -0.66211,-0.19756 -1.8397,-1.18364 -3.53597,-2.95488 -1.69636,-1.77131 -2.54693,-2.83963 -2.54689,-3.21451 -4e-5,-0.55785 1.26816,-1.8489 3.79561,-3.86979 1.13492,-0.87423 1.93968,-1.31056 2.41088,-1.31053 0.40104,-3e-5 0.93464,0.23467 1.60726,0.70472 l 1.84216,1.40944 c 1.91608,1.66974 2.86828,2.8106 2.86834,3.41233 -0.26453,0.55229 -1.29117,1.66056 -3.07852,3.32579 -1.78744,1.66516 -2.90753,2.49739 -3.36287,2.49743 z m 73.42694,-6.36721 c -3.40492,-3e-5 -6.84324,-2.13615 -10.31118,-6.39194 -3.14043,-3.84983 -4.71051,-6.97711 -4.7105,-9.38391 -10e-6,-1.81244 0.92325,-3.39606 2.75707,-4.74759 1.8338,-1.35157 3.84937,-2.02763 6.04576,-2.02762 2.29443,-1e-5 4.23294,0.50245 5.83558,1.50835 l 2.91779,3.10324 c 0.54984,-0.67217 0.98794,-2.01858 1.3229,-4.04287 l 0.21018,-1.00144 0.0742,-0.72945 0.21018,-0.90254 -65.08157,0 2.46034,4.21596 c 0.31346,0.32919 0.51828,0.82112 0.61818,1.49599 l 0.14836,2.03998 c -6e-5,2.16172 -0.49497,4.28362 -1.48362,6.35485 -0.98878,2.07118 -2.29391,3.01549 -3.91924,2.84361 -1.17531,-3e-5 -2.47683,-0.30178 -3.90687,-0.90254 -1.43015,-0.60082 -2.90415,-1.45419 -4.42614,-2.57161 -0.54302,-0.40055 -1.01901,-0.76247 -1.42181,-1.08799 -0.40289,-0.32556 -0.825,-0.69114 -1.26107,-1.08799 l -2.31198,-2.15125 c -1.48706,-1.37168 -2.91341,-3.01639 -4.27778,-4.93305 l -0.82836,-1.32289 c -0.26277,-0.44443 -0.39566,-0.88216 -0.39563,-1.3229 l 0,-0.72945 0,-0.84072 -22.84778,0 c -1.84083,-3e-5 -3.37047,0.77389 -4.58687,2.33669 -1.21642,1.56277 -1.82981,3.28418 -1.8298,5.16795 l 0.14836,1.26108 0.33382,1.50835 0.75417,2.84361 0.21018,0.79126 c -10e-6,1.08085 -0.51732,1.61959 -1.54544,1.61962 -1.50103,-3e-5 -2.79437,-2.01448 -3.86978,-6.05812 l -0.6429,-2.34907 -0.43273,-2.3738 c -0.14713,-0.76814 -0.244,-1.23479 -0.27199,-1.40944 -0.028,-0.17467 -0.0371,-0.45989 -0.0371,-0.85308 l -0.0371,-1.73089 c -10e-6,-3.40174 1.06347,-6.14231 3.18978,-8.22174 2.1263,-2.07944 4.87855,-3.11561 8.2712,-3.11561 l 113.5342,0 c 0.29422,0.80653 0.54845,1.78988 0.76654,2.95488 0.21803,1.165 0.45062,2.69901 0.69235,4.59923 l 0.66763,5.43995 c -3e-5,4.65999 -1.18307,9.53254 -3.56069,14.60132 -2.37768,5.06872 -4.76957,7.60353 -7.17084,7.60356 z m -4.9825,-8.81519 c 0.5622,-0.064 1.22697,-0.40481 2.00289,-1.01381 0.89329,-0.54922 1.75983,-1.51026 2.59634,-2.8807 l -0.11127,-0.0371 -0.17309,-0.0618 -0.63054,-0.0742 -1.07563,-0.19781 -1.00144,0 -0.66763,0 -0.7789,0.16072 c -0.56925,0.23956 -1.09017,0.5317 -1.55781,0.89018 l -0.9149,0.75415 c -0.13399,0.12435 -0.26198,0.22588 -0.38327,0.30909 l 1.23636,1.32289 c 0.76538,0.54682 1.2522,0.82834 1.45889,0.82836 z m -64.03067,-8.9141 c 1.2873,-2e-5 2.28266,-0.6807 3.00434,-2.05234 0.38177,-0.64013 0.61699,-1.22665 0.69236,-1.76798 0.13127,-0.38957 0.19775,-0.96688 0.19781,-1.71853 -0.24526,-0.29995 -0.51459,-0.50846 -0.79126,-0.61818 -1.08949,-0.6072 -2.29494,-0.90255 -3.62251,-0.90254 l -0.80363,0.0618 -0.98909,0.22254 c -0.78296,0.24506 -1.54105,0.56792 -2.27488,0.952 -1.33119,0.82481 -1.99058,1.54499 -1.99053,2.17597 0.345,0.92724 1.20922,1.72131 2.6087,2.36144 l 1.3229,0.67999 0.98908,0.34618 c 0.57269,0.17373 1.12946,0.25961 1.65671,0.25963 z"
       id="path3216"
       sodipodi:nodetypes="cccccccccccccccccccccccccsccccccccccsccccccccccccccscccccccccccccccccccccccscccccccccccccccccccccccccccccccccccccc" /></g></svg>