<?xml version="1.0" encoding="UTF-8" standalone="no"?>
<!-- Created with Inkscape (http://www.inkscape.org/) -->

<svg
   width="159.27916mm"
   height="159.27916mm"
   viewBox="0 0 159.27916 159.27916"
   version="1.1"
   id="svg24937"
   inkscape:version="1.2.1 (9c6d41e410, 2022-07-14)"
   sodipodi:docname="Segnale stradale italiano - divieto di transito agli autoveicoli.svg"
   xmlns:inkscape="http://www.inkscape.org/namespaces/inkscape"
   xmlns:sodipodi="http://sodipodi.sourceforge.net/DTD/sodipodi-0.dtd"
   xmlns="http://www.w3.org/2000/svg"
   xmlns:svg="http://www.w3.org/2000/svg">
  <sodipodi:namedview
     id="namedview24939"
     pagecolor="#ffffff"
     bordercolor="#000000"
     borderopacity="0.25"
     inkscape:showpageshadow="2"
     inkscape:pageopacity="0.0"
     inkscape:pagecheckerboard="0"
     inkscape:deskcolor="#d1d1d1"
     inkscape:document-units="mm"
     showgrid="false"
     inkscape:zoom="0.76257015"
     inkscape:cx="318.00353"
     inkscape:cy="-66.223416"
     inkscape:window-width="1920"
     inkscape:window-height="991"
     inkscape:window-x="-9"
     inkscape:window-y="-9"
     inkscape:window-maximized="1"
     inkscape:current-layer="layer1" />
  <defs
     id="defs24934" />
  <g
     inkscape:label="Livello 1"
     inkscape:groupmode="layer"
     id="layer1"
     transform="translate(-21.326542,28.636087)">
    <g
       id="g24910"
       transform="translate(-309.83762,-777.54326)">
      <circle
         style="fill:#000000;fill-rule:evenodd;stroke-width:7.29393"
         id="path2578-46"
         cx="410.80374"
         cy="828.54675"
         r="79.63958" />
      <g
         id="g4092-4-3"
         transform="translate(-399.7985,337.23769)">
        <circle
           style="fill:#ffffff;fill-rule:evenodd;stroke-width:7.2697"
           id="path2578-4-5-5"
           cx="810.60211"
           cy="491.30896"
           r="79.375" />
        <circle
           style="fill:#d40000;fill-rule:evenodd;stroke-width:7.02738"
           id="path2578-41-4-9"
           cx="810.60211"
           cy="491.30893"
           r="76.729164" />
        <circle
           style="fill:#ffffff;fill-rule:evenodd;stroke-width:5.20995"
           id="path2578-41-6-1-7"
           cx="810.60211"
           cy="491.30893"
           r="56.885418" />
      </g>
      <g
         id="g1618"
         transform="matrix(2.5728119,0,0,2.572812,298.28963,778.16563)">
        <path
           id="rect1168"
           style="fill:#000000;fill-rule:evenodd;stroke-width:0.216734;paint-order:markers fill stroke"
           d="m 30.400212,24.461039 c -0.480318,5e-6 -0.867131,0.386296 -0.867131,0.866614 v 10e-4 c 0,0.480315 0.386813,0.86713 0.867131,0.86713 H 57.0637 c 0.480318,0 0.867131,-0.386815 0.867131,-0.86713 v -10e-4 c 0,-0.480318 -0.386813,-0.866605 -0.867131,-0.866614 z"
           sodipodi:nodetypes="cssccsscc" />
        <path
           id="path1278"
           style="fill:#000000;fill-rule:evenodd;stroke-width:0.264583;paint-order:markers fill stroke"
           d="m 43.731698,16.892509 c -0.993569,0 -10.382758,0.401932 -12.092802,1.160136 -1.710045,0.758204 -2.125452,1.714881 -2.125452,2.98173 0,1.266849 0.719961,2.899048 3.404443,2.899048 h 21.628138 c 2.684482,0 3.404443,-1.632199 3.404443,-2.899048 0,-1.266849 -0.415407,-2.223526 -2.125452,-2.98173 -1.710044,-0.758204 -11.099749,-1.160136 -12.093318,-1.160136 z"
           sodipodi:nodetypes="sssccsss" />
        <circle
           style="fill:#ffffff;fill-rule:evenodd;stroke-width:0.319528;paint-order:markers fill stroke"
           id="path1382"
           cx="32.918076"
           cy="20.82859"
           r="2.0492477" />
        <path
           id="path1384"
           style="fill:#000000;fill-rule:evenodd;stroke-width:0.264583;paint-order:markers fill stroke"
           d="m 43.731698,9.3461995 c -2.283534,0 -4.673922,0.2566492 -6.661093,0.4878256 -1.987172,0.2311759 -2.567385,0.7688289 -2.905765,1.5942179 l -2.515092,5.930904 1.983858,-0.401526 1.843298,-4.521171 c 0.177352,-0.474806 0.708778,-0.842351 1.116728,-0.878499 2.468072,-0.343596 4.812734,-0.440563 7.138066,-0.498678 2.325338,0.05812 4.670503,0.155082 7.138582,0.498678 0.407952,0.03615 0.939375,0.403693 1.116728,0.878499 l 1.843298,4.521171 1.983858,0.401526 -2.515092,-5.930904 C 52.960691,10.602854 52.380484,10.065201 50.393306,9.8340251 48.406129,9.6028487 46.015238,9.3461995 43.731698,9.3461995 Z" />
        <path
           id="rect1438"
           style="fill:#000000;fill-rule:evenodd;stroke-width:0.30153;paint-order:markers fill stroke"
           d="m 31.117997,26.737903 v 2.522843 c 0,0.516328 0.415916,0.932243 0.932243,0.932243 h 2.754871 c 0.516327,0 0.932243,-0.415915 0.932243,-0.932243 v -2.522843 z" />
        <circle
           style="fill:#ffffff;fill-rule:evenodd;stroke-width:0.319528;paint-order:markers fill stroke"
           id="path1382-0"
           cx="-54.545845"
           cy="20.828592"
           r="2.0492477"
           transform="scale(-1,1)" />
        <path
           id="rect1438-7"
           style="fill:#000000;fill-rule:evenodd;stroke-width:0.30153;paint-order:markers fill stroke"
           d="m 56.345924,26.737906 v 2.522843 c 0,0.516328 -0.415916,0.932243 -0.932243,0.932243 H 52.65881 c -0.516327,0 -0.932243,-0.415915 -0.932243,-0.932243 v -2.522843 z" />
      </g>
    </g>
  </g>
</svg>
