<?xml version="1.0" encoding="UTF-8" standalone="no"?>
<!-- Created with Inkscape (http://www.inkscape.org/) -->

<svg
   xmlns:dc="http://purl.org/dc/elements/1.1/"
   xmlns:cc="http://creativecommons.org/ns#"
   xmlns:rdf="http://www.w3.org/1999/02/22-rdf-syntax-ns#"
   xmlns:svg="http://www.w3.org/2000/svg"
   xmlns="http://www.w3.org/2000/svg"
   xmlns:sodipodi="http://sodipodi.sourceforge.net/DTD/sodipodi-0.dtd"
   xmlns:inkscape="http://www.inkscape.org/namespaces/inkscape"
   width="600"
   height="600"
   id="svg5000"
   version="1.1"
   inkscape:version="0.48.5 r10040"
   sodipodi:docname="CANC 81.svg">
  <defs
     id="defs5002" />
  <sodipodi:namedview
     id="base"
     pagecolor="#ffffff"
     bordercolor="#666666"
     borderopacity="1.0"
     inkscape:pageopacity="0.0"
     inkscape:pageshadow="2"
     inkscape:zoom="0.49497475"
     inkscape:cx="526.5216"
     inkscape:cy="284.40216"
     inkscape:document-units="px"
     inkscape:current-layer="layer1"
     showgrid="false"
     fit-margin-top="0"
     fit-margin-left="0"
     fit-margin-right="0"
     fit-margin-bottom="0"
     inkscape:window-width="1366"
     inkscape:window-height="705"
     inkscape:window-x="-8"
     inkscape:window-y="-8"
     inkscape:window-maximized="1"
     inkscape:snap-object-midpoints="true"
     inkscape:snap-global="true"
     inkscape:object-paths="true" />
  <metadata
     id="metadata5005">
    <rdf:RDF>
      <cc:Work
         rdf:about="">
        <dc:format>image/svg+xml</dc:format>
        <dc:type
           rdf:resource="http://purl.org/dc/dcmitype/StillImage" />
        <dc:title />
      </cc:Work>
    </rdf:RDF>
  </metadata>
  <g
     inkscape:label="Livello 1"
     inkscape:groupmode="layer"
     id="layer1"
     transform="translate(0,-452.375)">
    <path
       sodipodi:type="arc"
       style="fill:#ffffff;fill-opacity:1;stroke:#000000;stroke-width:1.23414862;stroke-miterlimit:4;stroke-opacity:1;stroke-dasharray:none"
       id="path6483-2-8"
       sodipodi:cx="1092.9851"
       sodipodi:cy="238.36539"
       sodipodi:rx="361.63461"
       sodipodi:ry="377.79706"
       d="m 1454.6197,238.36539 a 361.63461,377.79706 0 1 1 -723.26921,0 361.63461,377.79706 0 1 1 723.26921,0 z"
       transform="matrix(0.828184,0,0,0.79275366,-605.19278,563.40997)" />
    <path
       style="fill:#000000;fill-opacity:1;stroke:none"
       d="M 101.8125 243.65625 C 96.732863 261.56184 94 280.46668 94 300 C 94 319.53332 96.732863 338.43816 101.8125 356.34375 L 158.15625 300 L 101.8125 243.65625 z "
       transform="translate(0,452.375)"
       id="path7031-3" />
    <path
       style="fill:#d40000;fill-opacity:1;stroke:none"
       d="m 300,462.375 c -160.16258,0 -290.0000018,129.83742 -290.0000018,290 0,160.16258 129.8374218,290 290.0000018,290 160.16258,0 290,-129.83742 290,-290 0,-160.16258 -129.83742,-290 -290,-290 z m 0,75 c 118.74122,0 215,96.25878 215,215 0,118.74122 -96.25878,215 -215,215 -118.74122,0 -215.000002,-96.25878 -215.000002,-215 0,-118.74122 96.258782,-215 215.000002,-215 z"
       id="path6993-7-7"
       inkscape:connector-curvature="0" />
    <g
       style="font-size:320.97518921px;font-style:normal;font-weight:normal;line-height:125%;letter-spacing:0px;word-spacing:0px;fill:#000000;fill-opacity:1;stroke:none;font-family:Sans"
       id="text7010-4">
      <path
         d="m 230.18821,808.97269 51.35721,0 0,47.49782 -112.97998,0 0,-37.86896 c 11.34302,-18.19322 27.49886,-45.58436 48.46757,-82.17349 9.84102,-18.40211 14.97706,-32.9515 15.40814,-43.64823 0.42438,-10.70291 -2.89299,-16.05445 -9.95211,-16.05464 -1.28654,1.9e-4 -2.67748,0.21569 -4.17284,0.6465 -4.49288,1.28012 -7.59475,5.66518 -9.30561,13.1552 -1.28652,5.34845 -1.71425,9.73678 -1.2832,13.165 l -44.94123,0 c -1e-5,-24.82132 6.74247,-43.97454 20.22748,-57.45973 12.19194,-12.40726 27.48905,-18.07878 45.89138,-17.01459 17.33773,1.0712 31.24716,7.81369 41.72834,20.22747 9.84749,11.34327 14.44805,24.28949 13.8017,38.83871 -0.42461,12.40765 -4.16971,26.42157 -11.23531,42.04179 -4.06194,8.99229 -11.38888,22.31401 -21.98085,39.96517 -10.59217,17.65137 -17.60239,30.54535 -21.03069,38.68198 z"
         style="font-variant:normal;font-stretch:normal;fill:#000000;font-family:CodiceNeroCondensed;-inkscape-font-specification:CodiceNeroCondensed"
         id="path7177" />
    </g>
    <g
       style="font-size:138.72279358px;font-style:normal;font-weight:normal;line-height:125%;letter-spacing:0px;word-spacing:0px;fill:#000000;fill-opacity:1;stroke:none;font-family:Sans"
       id="text7016-2"
       transform="translate(-3e-4,-3.4920897e-6)">
      <path
         d="m 302.86115,840.66024 c 4.34636,3e-5 7.67528,1.34063 9.98679,4.02181 2.31145,2.68123 3.46719,6.10329 3.46723,10.2662 -4e-5,3.97666 -1.61864,7.58358 -4.85581,10.82078 -3.69727,3.51379 -8.32164,5.27069 -13.87313,5.27069 -1.20232,0 -1.98834,-0.23143 -2.35805,-0.69429 -0.73946,-0.73945 -1.29404,-2.45119 -1.66376,-5.13522 -0.0931,-0.82976 1.13245,-1.5685 3.67678,-2.21622 2.54431,-0.64772 3.81647,-1.24958 3.81649,-1.80559 -2e-5,-0.27658 -0.18488,-0.59973 -0.55459,-0.96946 -2.49777,0 -4.64837,-0.9483 -6.45183,-2.8449 -1.80347,-1.89659 -2.7052,-4.09236 -2.70519,-6.5873 -10e-6,-2.9606 1.04001,-5.3885 3.12008,-7.28371 2.08003,-1.89517 4.87836,-2.84276 8.39499,-2.84279 z"
         style="font-variant:normal;font-stretch:normal;letter-spacing:-7px;fill:#000000;fill-opacity:1;font-family:CodiceNeroCondensed;-inkscape-font-specification:CodiceNeroCondensed"
         id="path7021-3"
         inkscape:connector-curvature="0" />
      <path
         d="m 349.27548,760.75324 c 7.86013,10e-5 14.14825,2.289 18.8644,6.86671 4.71605,4.5779 7.07409,10.104 7.07415,16.57832 -6e-5,11.09744 -5.13244,19.00417 -15.39718,23.72021 4.62292,0.7395 8.73786,3.14412 12.34484,7.21386 4.256,4.80928 6.38403,10.58939 6.3841,17.34034 -7e-5,7.40016 -2.63611,13.92113 -7.90815,19.56293 -5.54874,5.91842 -12.34629,8.87762 -20.39269,8.87762 -10.82081,0 -18.68097,-4.5778 -23.58051,-13.73342 -2.0349,-3.79318 -3.37691,-8.32583 -4.02604,-13.59795 l 20.25299,-4.16152 c -0.27662,3.7001 0.27938,6.61415 1.66799,8.74215 1.10914,1.94178 2.6346,2.91266 4.57639,2.91263 1.84859,3e-5 3.51305,-0.9017 4.9934,-2.70519 1.48027,-1.80344 2.22042,-4.23063 2.22046,-7.28159 -4e-5,-4.71889 -1.9418,-8.09579 -5.82527,-10.13073 -3.05379,-1.57199 -7.12357,-2.03344 -12.20937,-1.38435 l 0,-19.28352 c 4.62294,7e-5 8.59958,-1.64111 11.92996,-4.92354 3.3303,-3.28229 4.39431,-7.09806 3.19204,-11.44734 -0.64917,-2.21826 -1.99118,-3.32743 -4.02604,-3.32752 -0.55321,9e-5 -1.19952,0.13838 -1.93893,0.41488 -1.29548,0.46295 -2.49779,1.57353 -3.60693,3.33176 -1.38861,2.21842 -2.17463,4.8079 -2.35805,7.76844 l -19.00834,-2.08288 c 1.29543,-10.91101 4.90236,-18.81774 10.82078,-23.72021 4.43949,-3.69996 9.75815,-5.54999 15.956,-5.55009 z"
         style="font-variant:normal;font-stretch:normal;letter-spacing:-7px;fill:#000000;fill-opacity:1;font-family:CodiceNeroCondensed;-inkscape-font-specification:CodiceNeroCondensed"
         id="path7023-3"
         inkscape:connector-curvature="0" />
      <path
         d="m 412.49205,760.47806 c 9.61842,1.1e-4 17.24857,5.59535 22.89044,16.78576 4.80917,9.61574 7.21379,20.66653 7.21386,33.15241 -7e-5,12.66945 -2.21982,23.81338 -6.65927,33.43183 -5.54874,11.83683 -13.31718,17.75523 -23.30533,17.75523 -10.07854,0 -17.9387,-5.9184 -23.5805,-17.75523 -4.53266,-9.70876 -6.79898,-20.85269 -6.79898,-33.43183 0,-12.02302 2.17318,-22.70409 6.51957,-32.04323 5.54866,-11.92986 13.45539,-17.89483 23.72021,-17.89494 z m -7.20963,49.93817 c -3e-5,19.42044 2.44975,29.13063 7.34933,29.13061 1.10914,2e-5 2.03486,-0.55456 2.77717,-1.66376 2.68116,-3.79035 4.02176,-12.94596 4.0218,-27.46685 -4e-5,-5.91834 -0.32461,-11.3753 -0.9737,-16.37088 -1.20235,-8.59953 -3.19067,-12.89934 -5.96497,-12.89942 -4.80645,8e-5 -7.20966,9.75684 -7.20963,29.2703 z"
         style="font-variant:normal;font-stretch:normal;letter-spacing:-7px;fill:#000000;fill-opacity:1;font-family:CodiceNeroCondensed;-inkscape-font-specification:CodiceNeroCondensed"
         id="path7025-4"
         inkscape:connector-curvature="0" />
    </g>
    <g
       style="font-size:132.96089172px;font-style:normal;font-weight:normal;line-height:125%;letter-spacing:0px;word-spacing:0px;fill:#000000;fill-opacity:1;stroke:none;font-family:Sans"
       id="text7027-1">
      <path
         d="m 363.4102,635.79999 c 2.83759,-4.52015 7.44707,-6.78026 13.82845,-6.78033 4.78524,7e-5 8.86317,1.41754 12.2338,4.25241 3.8114,3.19208 5.71714,7.44719 5.71722,12.76535 l 0,48.66333 -19.41583,0 0,-44.54076 c -6e-5,-2.83759 -1.5068,-4.25641 -4.52022,-4.25647 -2.83499,6e-5 -4.25246,1.41888 -4.25241,4.25647 l 0,44.54076 -19.41177,0 0,-44.54076 c -3e-5,-3.01342 -1.46349,-4.52016 -4.39037,-4.52022 -2.92424,6e-5 -4.38634,1.5068 -4.38631,4.52022 l 0,44.54076 -18.34867,0 0,-64.22034 15.69091,0 1.0631,3.19337 c 3.36782,-3.36777 7.62293,-5.05169 12.76535,-5.05177 5.75911,8e-5 10.23469,2.39273 13.42675,7.17798 z"
         style="font-variant:normal;font-stretch:normal;fill:#000000;font-family:CodiceNeroCondensed;-inkscape-font-specification:CodiceNeroCondensed"
         id="path7180" />
    </g>
    <path
       id="path7187"
       d="M 498.1875,808.71876 C 503.26713,790.81317 506,771.90833 506,752.37501 c 0,-19.53332 -2.73287,-38.43816 -7.8125,-56.34375 l -56.34375,56.34375 56.34375,56.34375 z"
       style="fill:#000000;fill-opacity:1;stroke:none"
       inkscape:connector-curvature="0" />
  </g>
</svg>
