<?xml version="1.0" encoding="UTF-8" standalone="no"?>
<!-- Created with Inkscape (http://www.inkscape.org/) -->

<svg
   xmlns:dc="http://purl.org/dc/elements/1.1/"
   xmlns:cc="http://creativecommons.org/ns#"
   xmlns:rdf="http://www.w3.org/1999/02/22-rdf-syntax-ns#"
   xmlns:svg="http://www.w3.org/2000/svg"
   xmlns="http://www.w3.org/2000/svg"
   xmlns:sodipodi="http://sodipodi.sourceforge.net/DTD/sodipodi-0.dtd"
   xmlns:inkscape="http://www.inkscape.org/namespaces/inkscape"
   width="600"
   height="600"
   id="svg5000"
   version="1.1"
   inkscape:version="0.48.5 r10040"
   sodipodi:docname="Nuovo documento 12">
  <defs
     id="defs5002" />
  <sodipodi:namedview
     id="base"
     pagecolor="#ffffff"
     bordercolor="#666666"
     borderopacity="1.0"
     inkscape:pageopacity="0.0"
     inkscape:pageshadow="2"
     inkscape:zoom="0.35"
     inkscape:cx="375"
     inkscape:cy="520.01282"
     inkscape:document-units="px"
     inkscape:current-layer="layer1"
     showgrid="false"
     fit-margin-top="0"
     fit-margin-left="0"
     fit-margin-right="0"
     fit-margin-bottom="0"
     inkscape:window-width="1366"
     inkscape:window-height="705"
     inkscape:window-x="-8"
     inkscape:window-y="-8"
     inkscape:window-maximized="1" />
  <metadata
     id="metadata5005">
    <rdf:RDF>
      <cc:Work
         rdf:about="">
        <dc:format>image/svg+xml</dc:format>
        <dc:type
           rdf:resource="http://purl.org/dc/dcmitype/StillImage" />
        <dc:title></dc:title>
      </cc:Work>
    </rdf:RDF>
  </metadata>
  <g
     inkscape:label="Livello 1"
     inkscape:groupmode="layer"
     id="layer1"
     transform="translate(0,-452.375)">
    <path
       inkscape:connector-curvature="0"
       id="path3771-7-4"
       style="fill:#ffffff;fill-opacity:1;fill-rule:nonzero;stroke:none"
       d="m 589.49999,752.36238 c 0,159.8863 -129.6134,289.49982 -289.49979,289.49982 -159.8865,0 -289.5003,-129.61352 -289.5003,-289.49982 0,-159.8868 129.6138,-289.50024 289.5003,-289.50024 159.88639,0 289.49979,129.61344 289.49979,289.50024 z m 10.00001,0 c 0,165.409 -134.0908,299.49982 -299.4998,299.49982 C 134.5908,1051.8622 0.5,917.77138 0.5,752.36238 c 0,-165.4094 134.0908,-299.50025 299.5002,-299.50025 165.409,0 299.4998,134.09085 299.4998,299.50025 z" />
    <path
       style="font-size:medium;font-style:normal;font-variant:normal;font-weight:normal;font-stretch:normal;text-indent:0;text-align:start;text-decoration:none;line-height:normal;letter-spacing:normal;word-spacing:normal;text-transform:none;direction:ltr;block-progression:tb;writing-mode:lr-tb;text-anchor:start;baseline-shift:baseline;color:#000000;fill:#000000;fill-opacity:1;stroke:none;stroke-width:1;marker:none;visibility:visible;display:inline;overflow:visible;enable-background:accumulate;font-family:Sans;-inkscape-font-specification:Sans"
       d="m 300.32969,456.69924 -79.90619,580.43756 79.25,10.9064 79.90608,-580.43767 -79.24989,-10.90629 z"
       id="path3790-1-8"
       inkscape:connector-curvature="0" />
    <path
       d="m 589.49999,752.36238 c 0,159.8863 -129.6134,289.49982 -289.49979,289.49982 -159.8865,0 -289.5003,-129.61352 -289.5003,-289.49982 0,-159.8868 129.6138,-289.50024 289.5003,-289.50024 159.88639,0 289.49979,129.61344 289.49979,289.50024 z m 10.00001,0 c 0,165.409 -134.0908,299.49982 -299.4998,299.49982 C 134.5908,1051.8622 0.5,917.77138 0.5,752.36238 c 0,-165.4094 134.0908,-299.50025 299.5002,-299.50025 165.409,0 299.4998,134.09085 299.4998,299.50025 z"
       style="fill:#ffffff;fill-opacity:1;fill-rule:evenodd;stroke:#000000;stroke-width:1;stroke-linecap:butt;stroke-linejoin:round;stroke-miterlimit:4;stroke-opacity:1;stroke-dasharray:none"
       id="path4904"
       inkscape:connector-curvature="0" />
    <g
       style="font-size:356.6390686px;font-style:normal;font-weight:normal;line-height:125%;letter-spacing:0px;word-spacing:0px;fill:#a5a5a5;fill-opacity:1;stroke:none;font-family:Sans"
       id="text4906">
      <path
         d="m 126.4089,626.64386 105.92076,0 0,47.43143 -56.34523,0 -6.06225,37.81018 c 0.95042,-1.18977 5.11164,-1.78475 12.48367,-1.78493 14.74375,1.8e-4 27.10769,4.39721 37.09186,13.19111 14.50426,12.60355 21.75647,33.05049 21.75663,61.34088 -1.6e-4,27.81897 -7.37209,51.00136 -22.1158,69.54723 -14.74399,18.54595 -33.17018,27.8189 -55.27862,27.81889 -24.24908,10e-6 -43.15053,-9.7482 -56.70439,-29.24466 -9.98406,-14.26493 -14.976073,-28.76934 -14.976055,-43.51328 l 52.067915,-8.55463 c 2.85147,19.01763 9.14953,27.93142 18.8942,26.7414 5.23137,-0.71101 9.74994,-4.69265 13.55573,-11.94493 3.80558,-7.25213 5.82814,-16.82076 6.06769,-28.70592 0.23208,-21.63679 -4.64384,-33.16994 -14.62777,-34.59948 -3.56271,-0.47148 -6.94937,0.66043 -10.15999,3.39574 -3.21079,2.73558 -5.17168,6.12406 -5.88267,10.16543 L 106.4372,755.38786 z"
         style="font-variant:normal;font-stretch:normal;text-align:center;word-spacing:-5.64444351px;text-anchor:middle;fill:#a5a5a5;font-family:CodiceNeroCondensed;-inkscape-font-specification:CodiceNeroCondensed"
         id="path5039" />
      <path
         d="m 432.39917,622.72571 c 24.72779,2.7e-4 44.34393,14.38495 58.84849,43.15411 12.36379,24.72085 18.54576,53.13106 18.54593,85.23073 -1.7e-4,32.57157 -5.70688,61.22123 -17.12015,85.94905 -14.26513,30.43102 -34.23681,45.64651 -59.91511,45.6465 -25.91067,10e-6 -46.11817,-15.21548 -60.62254,-45.6465 -11.6529,-24.96001 -17.47934,-53.60966 -17.47932,-85.94905 -2e-5,-30.90971 5.58697,-58.36941 16.76099,-82.37919 14.26493,-30.67018 34.59215,-46.00538 60.98171,-46.00565 z m -18.53504,128.38484 c -8e-5,49.92753 6.29798,74.89122 18.8942,74.89115 2.85145,7e-5 5.23137,-1.4257 7.13975,-4.27732 6.89294,-9.74451 10.33946,-33.28243 10.33957,-70.61383 -1.1e-4,-15.21535 -0.83453,-29.2445 -2.50326,-42.08751 -3.09109,-22.10834 -8.20283,-33.1626 -15.33522,-33.16282 -12.35678,2.2e-4 -18.53512,25.08364 -18.53504,75.25033 z"
         style="font-variant:normal;font-stretch:normal;text-align:center;word-spacing:-5.64444351px;text-anchor:middle;fill:#a5a5a5;font-family:CodiceNeroCondensed;-inkscape-font-specification:CodiceNeroCondensed"
         id="path5041" />
    </g>
  </g>
</svg>
