<?xml version="1.0" encoding="UTF-8" standalone="no"?>
<svg
   xmlns:dc="http://purl.org/dc/elements/1.1/"
   xmlns:cc="http://creativecommons.org/ns#"
   xmlns:rdf="http://www.w3.org/1999/02/22-rdf-syntax-ns#"
   xmlns:svg="http://www.w3.org/2000/svg"
   xmlns="http://www.w3.org/2000/svg"
   width="124.28657mm"
   height="124.29061mm"
   viewBox="0 0 440.38548 440.3998"
   id="svg99509"
   version="1.1">
  <defs
     id="defs99511">
    <clipPath
       clipPathUnits="userSpaceOnUse"
       id="clipPath96523">
      <path
         d="m 0,0 595.276,0 0,841.89 L 0,841.89 0,0 Z"
         id="path96525" />
    </clipPath>
    <clipPath
       clipPathUnits="userSpaceOnUse"
       id="clipPath96487">
      <path
         d="m 0,0 595.276,0 0,841.89 L 0,841.89 0,0 Z"
         id="path96489" />
    </clipPath>
    <clipPath
       clipPathUnits="userSpaceOnUse"
       id="clipPath96451">
      <path
         d="m 0,0 595.276,0 0,841.89 L 0,841.89 0,0 Z"
         id="path96453" />
    </clipPath>
    <clipPath
       clipPathUnits="userSpaceOnUse"
       id="clipPath96523-7">
      <path
         d="m 0,0 595.276,0 0,841.89 L 0,841.89 0,0 Z"
         id="path96525-2" />
    </clipPath>
    <clipPath
       id="clipPath4357"
       clipPathUnits="userSpaceOnUse">
      <path
         id="path4359"
         d="m 0,0 595.276,0 0,841.89 L 0,841.89 0,0 Z" />
    </clipPath>
    <clipPath
       id="clipPath4341"
       clipPathUnits="userSpaceOnUse">
      <path
         id="path4343"
         d="m 0,0 595.276,0 0,841.89 L 0,841.89 0,0 Z" />
    </clipPath>
    <clipPath
       id="clipPath4403"
       clipPathUnits="userSpaceOnUse">
      <path
         id="path4405"
         d="m 0,0 595.276,0 0,841.89 L 0,841.89 0,0 Z" />
    </clipPath>
    <clipPath
       id="clipPath4377"
       clipPathUnits="userSpaceOnUse">
      <path
         id="path4379"
         d="m 0,0 595.276,0 0,841.89 L 0,841.89 0,0 Z" />
    </clipPath>
    <clipPath
       id="clipPath4463"
       clipPathUnits="userSpaceOnUse">
      <path
         id="path4465"
         d="m 0,0 595.276,0 0,841.89 L 0,841.89 0,0 Z" />
    </clipPath>
    <clipPath
       id="clipPath4435"
       clipPathUnits="userSpaceOnUse">
      <path
         id="path4437"
         d="m 0,0 595.276,0 0,841.89 L 0,841.89 0,0 Z" />
    </clipPath>
    <clipPath
       id="clipPath4521"
       clipPathUnits="userSpaceOnUse">
      <path
         id="path4523"
         d="m 0,0 595.276,0 0,841.89 L 0,841.89 0,0 Z" />
    </clipPath>
    <clipPath
       id="clipPath4489"
       clipPathUnits="userSpaceOnUse">
      <path
         id="path4491"
         d="m 0,0 595.276,0 0,841.89 L 0,841.89 0,0 Z" />
    </clipPath>
    <clipPath
       id="clipPath4617"
       clipPathUnits="userSpaceOnUse">
      <path
         id="path4619"
         d="m 0,0 595.276,0 0,841.89 L 0,841.89 0,0 Z" />
    </clipPath>
    <clipPath
       id="clipPath4577"
       clipPathUnits="userSpaceOnUse">
      <path
         id="path4579"
         d="m 0,0 595.276,0 0,841.89 L 0,841.89 0,0 Z" />
    </clipPath>
    <clipPath
       id="clipPath4729"
       clipPathUnits="userSpaceOnUse">
      <path
         id="path4731"
         d="m 0,0 595.276,0 0,841.89 L 0,841.89 0,0 Z" />
    </clipPath>
    <clipPath
       id="clipPath4705"
       clipPathUnits="userSpaceOnUse">
      <path
         id="path4707"
         d="m 0,0 595.276,0 0,841.89 L 0,841.89 0,0 Z" />
    </clipPath>
    <clipPath
       id="clipPath4677"
       clipPathUnits="userSpaceOnUse">
      <path
         id="path4679"
         d="m 0,0 595.276,0 0,841.89 L 0,841.89 0,0 Z" />
    </clipPath>
    <clipPath
       id="clipPath4789"
       clipPathUnits="userSpaceOnUse">
      <path
         id="path4791"
         d="m 0,0 595.276,0 0,841.89 L 0,841.89 0,0 Z" />
    </clipPath>
    <clipPath
       id="clipPath4813"
       clipPathUnits="userSpaceOnUse">
      <path
         id="path4815"
         d="m 0,0 595.276,0 0,841.89 L 0,841.89 0,0 Z" />
    </clipPath>
  </defs>
  <metadata
     id="metadata99514">
    <rdf:RDF>
      <cc:Work
         rdf:about="">
        <dc:format>image/svg+xml</dc:format>
        <dc:type
           rdf:resource="http://purl.org/dc/dcmitype/StillImage" />
        <dc:title></dc:title>
      </cc:Work>
    </rdf:RDF>
  </metadata>
  <ellipse
     transform="matrix(0,1,-1,0,0,0)"
     ry="204.67068"
     rx="199.06328"
     cy="-221.3419"
     cx="219.48737"
     id="path99477"
     style="opacity:1;fill:#ffffff;fill-opacity:1;fill-rule:nonzero;stroke:none;stroke-width:7;stroke-linecap:round;stroke-linejoin:round;stroke-miterlimit:4;stroke-dasharray:none;stroke-dashoffset:0;stroke-opacity:1" />
  <g
     transform="matrix(4.7762598,0,0,-4.7762598,220.19035,399.99265)"
     id="g94165">
    <path
       id="path94167"
       style="fill:#ed1c24;fill-opacity:1;fill-rule:nonzero;stroke:none"
       d="m 0,0 c -20.789,0 -37.641,16.855 -37.641,37.643 0,20.789 16.852,37.641 37.641,37.641 20.788,0 37.642,-16.852 37.642,-37.641 C 37.642,16.855 20.788,0 0,0 m 0,83.746 c -25.462,0 -46.101,-20.642 -46.101,-46.103 0,-25.461 20.639,-46.103 46.101,-46.103 25.46,0 46.102,20.642 46.102,46.103 C 46.102,63.104 25.46,83.746 0,83.746" />
  </g>
  <path
     d="m 118.45426,231.79568 c 1.87646,-10.58117 4.91703,-22.44807 9.97885,-34.65668 3.79926,-9.15066 8.76263,-18.50981 15.32446,-27.46356 9.78773,-13.41904 23.33419,-25.88826 40.63936,-34.5061 17.27042,-8.66417 37.90574,-13.39008 61.3268,-13.36691 l 87.77104,0 29.72227,30.95008 -29.72227,34.04277 -87.77104,0 c -18.50982,0.0579 -30.11031,4.14097 -38.43857,9.28387 -6.25488,3.92088 -10.91708,8.68733 -14.86113,14.38623 -5.86685,8.48463 -9.77036,19.3438 -11.91324,29.75122 -2.17762,10.35531 -2.62936,20.02142 -2.61778,25.2454 0,1.53476 0.0405,2.68149 0.0637,3.3649 l 0.0232,0.60232 0.0116,0.0927 0.0811,1.09461 0,77.10879 -31.95781,-23.98284 -30.47518,23.98284 0,-74.89642 c -0.0927,-1.55214 -0.18533,-3.99038 -0.18533,-7.36686 0,-7.65644 0.48649,-19.5465 3.00003,-33.66632"
     style="fill:#000000;fill-opacity:1;fill-rule:nonzero;stroke:none"
     id="path4819" />
  <g
     transform="matrix(5.791557,0,0,-5.791557,370.7831,336.91524)"
     id="g4825">
    <path
       id="path4827"
       style="fill:#ed1c24;fill-opacity:1;fill-rule:nonzero;stroke:none"
       d="m 0,0 -6.023,-6.231 -47.688,46.097 6.024,6.23 L 0,0 Z" />
  </g>
</svg>
