<?xml version="1.0" encoding="UTF-8" standalone="no"?>
<!-- Created with Inkscape (http://www.inkscape.org/) -->

<svg
   xmlns:dc="http://purl.org/dc/elements/1.1/"
   xmlns:cc="http://creativecommons.org/ns#"
   xmlns:rdf="http://www.w3.org/1999/02/22-rdf-syntax-ns#"
   xmlns:svg="http://www.w3.org/2000/svg"
   xmlns="http://www.w3.org/2000/svg"
   xmlns:sodipodi="http://sodipodi.sourceforge.net/DTD/sodipodi-0.dtd"
   xmlns:inkscape="http://www.inkscape.org/namespaces/inkscape"
   version="1.1"
   width="500"
   height="500"
   id="svg2"
   xml:space="preserve"
   inkscape:version="0.48.2 r9819"
   sodipodi:docname="Mauritius Road Signs - Restrictive Sign - No entry for buses and coaches.svg"><sodipodi:namedview
     pagecolor="#ffffff"
     bordercolor="#666666"
     borderopacity="1"
     objecttolerance="10"
     gridtolerance="10"
     guidetolerance="10"
     inkscape:pageopacity="0"
     inkscape:pageshadow="2"
     inkscape:window-width="1024"
     inkscape:window-height="706"
     id="namedview19"
     showgrid="false"
     fit-margin-top="0"
     fit-margin-left="0"
     fit-margin-right="0"
     fit-margin-bottom="0"
     inkscape:zoom="0.69232574"
     inkscape:cx="170.44501"
     inkscape:cy="341.86784"
     inkscape:window-x="-8"
     inkscape:window-y="-8"
     inkscape:window-maximized="1"
     inkscape:current-layer="g12" /><defs
     id="defs20" /><metadata
     id="metadata8"><rdf:RDF><cc:Work
         rdf:about=""><dc:format>image/svg+xml</dc:format><dc:type
           rdf:resource="http://purl.org/dc/dcmitype/StillImage" /></cc:Work></rdf:RDF></metadata><g
     transform="matrix(2.20022,0,0,-2.20022,-366.60066,1087.7228)"
     id="g10"><g
       transform="scale(0.1,0.1)"
       id="g12"><path
         d="M 2802.8667,4943.7 C 3430.0834,4943.725 3938.7,4435.0834 3938.7,3807.8667 3938.725,3180.2333 3430.0834,2671.6167 2802.8667,2671.2 2175.2333,2671.5917 1666.6167,3180.2333 1666.2,3807.8667 1666.5917,4435.0834 2175.2333,4943.7 2802.8667,4943.7"
         inkscape:connector-curvature="0"
         id="path14"
         style="fill:#db0000;fill-opacity:1" /><path
         d="m 2802.8667,4717.8667 c 502.25,-0.4083 909.5833,-407.75 910,-910 -0.4083,-502.6667 -407.75,-910 -910,-910 -502.6667,0 -910,407.3333 -910,910 -0.01,502.25 407.3333,909.5833 910,910"
         inkscape:connector-curvature="0"
         id="path16"
         style="fill:#ffffff" /><path
         d="m 2391.2,3716.2 c 42.2083,0.125 76.4,-34.0583 76.6667,-75.8333 C 2467.6,3597.8 2433.4083,3563.6083 2391.2,3563.7 c -42.1333,-0.092 -76.3167,34.1 -76.6667,76.6667 0.35,41.775 34.5334,75.9583 76.6667,75.8333"
         inkscape:connector-curvature="0"
         id="path18" /><path
         d="m 3146.2,3716.2 c 42.5667,0.125 76.7583,-34.0583 76.6667,-75.8333 0.092,-42.5667 -34.1,-76.7584 -76.6667,-76.6667 -41.775,-0.092 -75.9583,34.1 -75.8333,76.6667 -0.125,41.775 34.0583,75.9583 75.8333,75.8333"
         inkscape:connector-curvature="0"
         id="path20" /><path
         d="m 2391.2,3677.8667 c 21.0167,0.092 38.025,-16.9167 38.3333,-37.5 -0.3083,-21.375 -17.3166,-38.3834 -38.3333,-38.3334 -20.9417,-0.05 -37.95,16.9584 -38.3333,38.3334 0.3833,20.5833 17.3916,37.5916 38.3333,37.5"
         inkscape:connector-curvature="0"
         id="path22"
         style="fill:#ffffff" /><path
         d="m 3146.2,3677.8667 c 21.375,0.092 38.3833,-16.9167 38.3333,-37.5 0.05,-21.375 -16.9583,-38.3834 -38.3333,-38.3334 -20.5833,-0.05 -37.5917,16.9584 -37.5,38.3334 -0.092,20.5833 16.9167,37.5916 37.5,37.5"
         inkscape:connector-curvature="0"
         id="path24"
         style="fill:#ffffff" /><path
         d="m 3238.7,3616.2 c 2.025,7.7333 3.05,15.6 3.3333,24.1667 -0.2833,52.1583 -42.8833,94.7583 -95.8333,95 -52.1583,-0.2417 -94.7583,-42.8417 -95,-95 0.2417,-8.525 1.2583,-16.475 3.3333,-24.1667 H 2483.7 c 1.6667,7.7333 2.6917,15.6 2.5,24.1667 0.1917,52.1583 -42.4083,94.7583 -95,95 -52.5167,-0.2417 -95.1167,-42.8417 -95,-95 -0.1167,-8.525 0.9,-16.475 2.5,-24.1667 h -205.8333 c -43.175,0.1667 -42.5,45 -42.5,45 0,0 0.1583,133.7583 0,150 0.1583,16.9833 20,18.3333 20,18.3333 l 6.6666,193.3334 c 0.8917,37.475 29.1667,33.3333 29.1667,33.3333 h 1363.3334 c 60,0.01 91.9833,-58.1417 91.6666,-92.5 v -285 l -322.5,-62.5"
         inkscape:connector-curvature="0"
         id="path26" /><path
         d="m 2551.2,3848.7 c 11.6917,-0.1667 20.9833,9.1333 20.8333,20.8333 v 90 c 0.15,11.3667 -9.1416,20.6667 -20.8333,20.8334 h -224.1667 c -11.1583,-0.1667 -20.45,-9.4667 -20.8333,-20.8334 v -90 c 0.3833,-11.7 9.675,-21 20.8333,-20.8333 H 2551.2"
         inkscape:connector-curvature="0"
         id="path28"
         style="fill:#ffffff" /><path
         d="m 2218.7,3662.8667 c 11.6583,0.2916 20.9583,9.5916 20.8333,20.8333 v 275.8333 c 0.125,11.3667 -9.175,20.6667 -20.8333,20.8334 h -53.3333 C 2154.1,3980.2 2144.8,3970.9 2144.5333,3959.5333 V 3683.7 c 0.2667,-11.2417 9.5667,-20.5417 20.8334,-20.8333 H 2218.7"
         inkscape:connector-curvature="0"
         id="path30"
         style="fill:#ffffff" /><path
         d="m 2864.5333,3848.7 c 11.5167,-0.1667 20.8167,9.1333 20.8334,20.8333 v 90 c -0.017,11.3667 -9.3167,20.6667 -20.8334,20.8334 h -224.1666 c -11.325,-0.1667 -20.625,-9.4667 -20.8334,-20.8334 v -90 c 0.2084,-11.7 9.5084,-21 20.8334,-20.8333 h 224.1666"
         inkscape:connector-curvature="0"
         id="path32"
         style="fill:#ffffff" /><path
         d="m 3175.3667,3848.7 c 11.775,-0.1667 21.075,9.1333 20.8333,20.8333 v 90 c 0.2417,11.3667 -9.0583,20.6667 -20.8333,20.8334 H 2951.2 c -11.075,-0.1667 -20.375,-9.4667 -20,-20.8334 v -90 c -0.375,-11.7 8.925,-21 20,-20.8333 h 224.1667"
         inkscape:connector-curvature="0"
         id="path34"
         style="fill:#ffffff" /><path
         d="m 3484.5334,3848.7 c 11.3416,-0.1667 20.6416,9.1333 20.8333,20.8333 v 50.8334 c -0.1917,33.3916 -27.1917,59.8333 -58.3333,60 h -185.0001 c -11.65,-0.1667 -20.95,-9.4667 -20.8333,-20.8334 v -90 c -0.1167,-11.7 9.1833,-21 20.8333,-20.8333 h 222.5001"
         inkscape:connector-curvature="0"
         id="path36"
         style="fill:#ffffff" /></g></g></svg>