<?xml version="1.0" encoding="UTF-8" standalone="no"?>
<svg
   xmlns:dc="http://purl.org/dc/elements/1.1/"
   xmlns:cc="http://creativecommons.org/ns#"
   xmlns:rdf="http://www.w3.org/1999/02/22-rdf-syntax-ns#"
   xmlns:svg="http://www.w3.org/2000/svg"
   xmlns="http://www.w3.org/2000/svg"
   xmlns:sodipodi="http://sodipodi.sourceforge.net/DTD/sodipodi-0.dtd"
   xmlns:inkscape="http://www.inkscape.org/namespaces/inkscape"
   width="158.75mm"
   height="158.75137mm"
   viewBox="0 0 158.75 158.75137"
   version="1.1"
   id="svg26447"
   inkscape:version="1.0 (4035a4fb49, 2020-05-01)"
   sodipodi:docname="tt5.svg">
  <defs
     id="defs26441" />
  <sodipodi:namedview
     id="base"
     pagecolor="#ffffff"
     bordercolor="#666666"
     borderopacity="1.0"
     inkscape:pageopacity="0.0"
     inkscape:pageshadow="2"
     inkscape:zoom="0.7"
     inkscape:cx="890.82681"
     inkscape:cy="489.33641"
     inkscape:document-units="mm"
     inkscape:current-layer="layer1"
     inkscape:document-rotation="0"
     showgrid="false"
     inkscape:window-width="1920"
     inkscape:window-height="1001"
     inkscape:window-x="-9"
     inkscape:window-y="-9"
     inkscape:window-maximized="1" />
  <metadata
     id="metadata26444">
    <rdf:RDF>
      <cc:Work
         rdf:about="">
        <dc:format>image/svg+xml</dc:format>
        <dc:type
           rdf:resource="http://purl.org/dc/dcmitype/StillImage" />
        <dc:title />
      </cc:Work>
    </rdf:RDF>
  </metadata>
  <g
     inkscape:label="Layer 1"
     inkscape:groupmode="layer"
     id="layer1"
     transform="translate(18.19905,-61.962159)">
    <path
       style="color:#000000;font-style:normal;font-variant:normal;font-weight:normal;font-stretch:normal;font-size:medium;line-height:normal;font-family:sans-serif;font-variant-ligatures:normal;font-variant-position:normal;font-variant-caps:normal;font-variant-numeric:normal;font-variant-alternates:normal;font-variant-east-asian:normal;font-feature-settings:normal;font-variation-settings:normal;text-indent:0;text-align:start;text-decoration:none;text-decoration-line:none;text-decoration-style:solid;text-decoration-color:#000000;letter-spacing:normal;word-spacing:normal;text-transform:none;writing-mode:lr-tb;direction:ltr;text-orientation:mixed;dominant-baseline:auto;baseline-shift:baseline;text-anchor:start;white-space:normal;shape-padding:0;shape-margin:0;inline-size:0;clip-rule:nonzero;display:inline;overflow:visible;visibility:visible;opacity:1;isolation:auto;mix-blend-mode:normal;color-interpolation:sRGB;color-interpolation-filters:linearRGB;solid-color:#000000;solid-opacity:1;vector-effect:none;fill:#ffffff;fill-opacity:1;fill-rule:evenodd;stroke:#000000;stroke-width:0.502709;stroke-linecap:square;stroke-linejoin:round;stroke-miterlimit:2;stroke-dasharray:none;stroke-dashoffset:0;stroke-opacity:1;paint-order:stroke fill markers;color-rendering:auto;image-rendering:auto;shape-rendering:auto;text-rendering:auto;enable-background:accumulate;stop-color:#000000;stop-opacity:1"
       d="m 61.17534,62.213513 c -43.672423,0 -79.123142,35.451946 -79.123036,79.124347 -1.06e-4,43.67239 35.450613,79.12372 79.123036,79.12432 43.67288,1.6e-4 79.12439,-35.45132 79.12426,-79.12432 1.3e-4,-43.672954 -35.45138,-79.124485 -79.12426,-79.124347 z"
       id="path26405"
       sodipodi:nodetypes="ccccc" />
    <path
       id="rect24776"
       style="opacity:1;fill:#000000;fill-opacity:1;fill-rule:evenodd;stroke-width:0.847987;stroke-linecap:round;stroke-linejoin:round;stroke-miterlimit:10;stroke-opacity:0.823529"
       d="m 80.953982,104.32301 c -1.040318,-0.004 -2.3181,0.48603 -3.11844,1.27335 -0.835039,0.82146 -1.404797,2.14896 -1.3814,3.23058 0.02858,1.25091 0.757543,2.61675 1.737039,3.45487 0.828978,0.70937 2.172927,1.04242 3.117037,1.00118 1.275982,-0.0555 2.208737,-0.6886 2.946086,-1.50997 0.702385,-0.78243 1.141661,-2.21063 1.128374,-2.94608 -0.01588,-0.91938 -0.32724,-2.08337 -0.991618,-2.82984 -0.847505,-0.95225 -2.250794,-1.66944 -3.437078,-1.67409 z m 1.426527,10.29488 c -0.897025,0.0326 -1.637179,0.42537 -1.637179,0.42537 l -2.087147,1.06409 -0.615468,0.31321 -12.566685,6.41737 c 0,0 -0.764319,0.53012 -1.020336,0.90681 -0.229999,0.33809 -0.380994,0.80675 -0.419875,1.153 -0.109309,0.97918 0.313001,2.16745 1.117417,2.73682 0.145834,0.10312 0.38875,0.16762 0.596332,0.18053 0.231587,0.0143 0.689337,-0.11762 0.689337,-0.11762 l 9.859969,-5.06059 1.619366,5.41757 -10.22376,2.823 c 0,0 -0.892181,0.3414 -1.23231,0.65924 -0.336954,0.31488 -0.733114,1.17351 -0.733114,1.17351 l -3.639525,11.77888 c 0,0 -0.08496,0.70918 0.151921,1.33354 0.248791,0.65681 0.833398,1.23561 1.334898,1.42106 0.567985,0.2101 1.488565,0.29627 2.196588,-0.0821 0.264143,-0.14105 0.495598,-0.30456 0.686585,-0.50608 0.329463,-0.34735 0.534795,-0.73036 0.534795,-0.73036 l 3.334518,-10.4809 11.341203,-2.80794 0.774138,-0.19287 c 0,0 0.955438,-0.14078 1.386853,-0.34193 0.722844,-0.33704 1.435155,-0.78658 1.932605,-1.41013 0.434723,-0.54493 0.740419,-1.68509 0.748147,-2.0338 v -10.42753 c 0,0 -0.07914,-0.84196 -0.547076,-1.6235 -0.382636,-0.6394 -1.056701,-1.25916 -1.555104,-1.52775 -0.463282,-0.24977 -1.33106,-0.48624 -2.026988,-0.46092 z M 16.12366,132.4052 v 17.91861 H 61.175261 V 132.4052 Z m 70.693776,1.12154 c -6.5092,0.063 -12.333721,2.96722 -16.304695,7.53071 -0.0053,0.006 -0.01059,0.0119 -0.01588,0.0177 l 0.02382,0.0329 1.876522,1.87652 0.01588,6.9e-4 c 3.548214,-4.16345 8.778468,-6.80061 14.616911,-6.80034 6.991961,1.8e-4 13.116466,3.77822 16.516676,9.43733 l 0.0738,0.006 1.99825,-1.72059 0.0397,0.0233 c -3.86364,-6.2444 -10.760795,-10.40575 -18.629802,-10.40535 -0.0704,-3.4e-4 -0.140276,-3.4e-4 -0.210679,0 z m 0.246145,3.86246 c -9.869974,0 -17.988377,8.12286 -17.988377,17.98153 0,9.85866 8.118403,17.98151 17.988377,17.98151 9.869944,0 17.986979,-8.12285 17.986979,-17.98151 0,-9.85867 -8.117035,-17.98153 -17.986979,-17.98153 z m 0,11.5026 c 3.638837,0 6.470694,2.82916 6.470694,6.47893 0,3.64977 -2.831857,6.47893 -6.470694,6.47893 -3.638864,0 -6.47212,-2.82916 -6.47212,-6.47893 0,-3.64977 2.833256,-6.47893 6.47212,-6.47893 z m -58.143527,2.28957 c -6.034935,0 -11.093629,5.05784 -11.093629,11.08408 0,6.02623 5.058694,11.07858 11.093629,11.07858 6.034962,0 11.092306,-5.05235 11.092306,-11.07858 0,-6.02624 -5.057344,-11.08408 -11.092306,-11.08408 z m 5.710263,0.30638 c 0,0 1.030578,0.61143 1.953117,1.33079 0.456453,0.35601 0.848669,0.77503 1.150263,1.08735 0.362653,0.37516 0.866058,0.99311 1.244644,1.54279 0.426704,0.6197 0.708473,1.153 0.708473,1.153 h 21.488394 v -5.11393 c 0,0 -19.165239,0.0275 -26.544891,0 z m -5.710263,6.12195 c 2.482064,0 4.661237,2.17885 4.661237,4.65575 0,2.47689 -2.179173,4.65437 -4.661237,4.65437 -2.482037,0 -4.66121,-2.17748 -4.66121,-4.65437 0,-2.4769 2.179173,-4.65575 4.66121,-4.65575 z" />
    <path
       style="color:#000000;font-style:normal;font-variant:normal;font-weight:normal;font-stretch:normal;font-size:medium;line-height:normal;font-family:sans-serif;font-variant-ligatures:normal;font-variant-position:normal;font-variant-caps:normal;font-variant-numeric:normal;font-variant-alternates:normal;font-variant-east-asian:normal;font-feature-settings:normal;font-variation-settings:normal;text-indent:0;text-align:start;text-decoration:none;text-decoration-line:none;text-decoration-style:solid;text-decoration-color:#000000;letter-spacing:normal;word-spacing:normal;text-transform:none;writing-mode:lr-tb;direction:ltr;text-orientation:mixed;dominant-baseline:auto;baseline-shift:baseline;text-anchor:start;white-space:normal;shape-padding:0;shape-margin:0;inline-size:0;clip-rule:nonzero;display:inline;overflow:visible;visibility:visible;opacity:1;isolation:auto;mix-blend-mode:normal;color-interpolation:sRGB;color-interpolation-filters:linearRGB;solid-color:#000000;solid-opacity:1;vector-effect:none;fill:#ed232a;fill-opacity:1;fill-rule:evenodd;stroke:none;stroke-width:1.69334;stroke-linecap:square;stroke-linejoin:round;stroke-miterlimit:2;stroke-dasharray:none;stroke-dashoffset:0;stroke-opacity:1;paint-order:stroke fill markers;color-rendering:auto;image-rendering:auto;shape-rendering:auto;text-rendering:auto;enable-background:accumulate;stop-color:#000000;stop-opacity:1"
       d="m 61.17534,64.455361 c -42.460651,0 -76.881321,34.421949 -76.881241,76.882499 -8e-5,42.46056 34.42059,76.8819 76.881241,76.88256 42.46119,1.3e-4 76.88268,-34.42144 76.88246,-76.88256 2.2e-4,-42.461092 -34.42127,-76.882629 -76.88246,-76.882499 z M 61.007009,83.12475 c 0.04341,-5.6e-5 0.08655,-5.6e-5 0.129954,0 32.144282,1.51e-4 58.202127,26.05803 58.202267,58.20219 -1.4e-4,32.14411 -26.057985,58.20205 -58.202267,58.20216 C 28.992998,199.52899 2.9350491,173.47105 2.9349171,141.32694 2.9350491,109.23355 28.913729,83.196563 61.006982,83.12475 Z"
       id="path26407" />
  </g>
</svg>
