<?xml version="1.0" encoding="UTF-8" standalone="no"?>
<svg
   inkscape:output_extension="org.inkscape.output.svg.inkscape"
   sodipodi:docname="BG_road_sign_Ð14.svg"
   inkscape:version="1.2.2 (732a01da63, 2022-12-09)"
   sodipodi:version="0.32"
   id="svg2"
   height="176.33951"
   width="200.09941"
   version="1.0"
   xmlns:inkscape="http://www.inkscape.org/namespaces/inkscape"
   xmlns:sodipodi="http://sodipodi.sourceforge.net/DTD/sodipodi-0.dtd"
   xmlns="http://www.w3.org/2000/svg"
   xmlns:svg="http://www.w3.org/2000/svg"
   xmlns:rdf="http://www.w3.org/1999/02/22-rdf-syntax-ns#"
   xmlns:cc="http://creativecommons.org/ns#"
   xmlns:dc="http://purl.org/dc/elements/1.1/">
  <metadata
     id="metadata12">
    <rdf:RDF>
      <cc:Work
         rdf:about="">
        <dc:format>image/svg+xml</dc:format>
        <dc:type
           rdf:resource="http://purl.org/dc/dcmitype/StillImage" />
      </cc:Work>
    </rdf:RDF>
  </metadata>
  <sodipodi:namedview
     inkscape:document-rotation="0"
     inkscape:window-maximized="1"
     inkscape:showpageshadow="false"
     showgrid="false"
     height="200px"
     width="200px"
     inkscape:current-layer="g19671"
     inkscape:window-y="-9"
     inkscape:window-x="-9"
     inkscape:cy="81.250174"
     inkscape:cx="108.9235"
     inkscape:zoom="3.1076857"
     id="base"
     pagecolor="#ffffff"
     bordercolor="#666666"
     borderopacity="1.0"
     objecttolerance="10.0"
     gridtolerance="10.0"
     guidetolerance="10.0"
     inkscape:pageopacity="0.0"
     inkscape:pageshadow="2"
     inkscape:window-width="1920"
     inkscape:window-height="991"
     inkscape:pagecheckerboard="0"
     inkscape:snap-intersection-paths="true"
     inkscape:snap-smooth-nodes="true"
     inkscape:snap-bbox="true"
     inkscape:snap-bbox-edge-midpoints="true"
     inkscape:bbox-nodes="true"
     showguides="true"
     inkscape:guide-bbox="true"
     inkscape:deskcolor="#d1d1d1" />
  <defs
     id="defs4">
    <inkscape:perspective
       id="perspective14"
       inkscape:persp3d-origin="450 : 388.21958 : 1"
       inkscape:vp_z="900 : 538.21958 : 1"
       inkscape:vp_y="0 : 1000 : 0"
       inkscape:vp_x="0 : 538.21958 : 1"
       sodipodi:type="inkscape:persp3d" />
  </defs>
  <path
     inkscape:connector-curvature="0"
     id="path2368"
     d="m -2179.8215,-980.35131 c 0,0 0,0 0,0 z"
     style="fill:#000000" />
  <path
     inkscape:connector-curvature="0"
     id="path2370"
     d="M -2182.7903,-980.28881 Z"
     style="fill:#000000" />
  <g
     id="g60885"
     transform="matrix(-1,0,0,1,200.0994,0)">
    <g
       id="g59600"
       transform="matrix(-1,0,0,1,200.0994,0)">
      <path
         inkscape:connector-curvature="0"
         style="fill:#ffffff;fill-opacity:1;fill-rule:nonzero;stroke:#000000;stroke-width:0.719;stroke-linecap:round;stroke-linejoin:round;stroke-miterlimit:2;stroke-dasharray:none;stroke-dashoffset:0;stroke-opacity:1"
         d="m 109.14608,5.4282 c -1.78264,-3.08734 -5.2702,-5.0187 -9.09641,-5.0187 -3.895769,0 -7.384625,2.03698 -9.200977,5.18302 L 1.968186,159.55198 c -1.90754234,3.30428 -2.18998578,7.46636 -0.1493624,11.00082 1.947898,3.37386 5.4562249,5.3772 9.0889524,5.3772 H 189.19157 c 3.63273,0 7.14106,-2.00336 9.08895,-5.3772 2.04062,-3.53442 1.75835,-7.69662 -0.14938,-11.00082 z"
         id="path3084"
         sodipodi:nodetypes="cscssssssc" />
      <path
         sodipodi:nodetypes="scccscsccscccc"
         inkscape:connector-curvature="0"
         d="m 100.05208,3.73792 c -2.641979,0 -4.936739,1.38592 -6.092049,3.3869801 L 5.0820064,161.08222 c -1.3305702,2.3048 -1.5073162,5.05224 -0.149866,7.40338 1.3211227,2.28828 3.6617777,3.57432 5.9721596,3.57432 h 178.28807 c 2.31038,-4e-5 4.65104,-1.28608 5.97216,-3.57432 1.35745,-2.35114 1.1807,-5.09882 -0.14986,-7.40338 L 106.03173,6.9600401 C 104.94008,5.0694 102.66795,3.73792 100.05208,3.73792 Z m 68.07668,149.13926 H 31.968024 L 100.04464,34.95512 Z"
         style="fill:#dd2414;fill-opacity:1;fill-rule:nonzero;stroke:none;stroke-width:0.239786"
         id="path3092" />
    </g>
  </g>
  <g
     id="g19671">
    <path
       id="path20330"
       style="color:#000000;fill:#000000;fill-rule:evenodd;stroke-width:0.146728;stroke-linejoin:round;stroke-miterlimit:10;-inkscape-stroke:none"
       d="m 74.329969,115.5964 a 0.07330591,0.07343628 0 0 0 -0.02492,0.003 c -1.593548,0.49799 -3.292922,0.98415 -4.659757,1.55325 -1.366834,0.5691 -2.413266,1.21679 -2.662953,2.08483 -0.105579,0.37815 -0.157293,0.72181 -0.0897,1.04991 0.06762,0.3281 0.257282,0.6343 0.619625,0.93361 0.724695,0.59861 2.135188,1.18637 4.729528,1.96025 2.587034,0.78967 8.860148,2.03993 13.331389,3.64474 2.235612,0.8024 4.017566,1.70512 4.64812,2.6397 0.315316,0.46728 0.354611,0.927 0.03981,1.42699 -0.314746,0.49999 -1.000271,1.03465 -2.14797,1.58482 -17.609496,8.46585 -21.035062,10.34937 -39.901101,17.89312 a 0.07350432,0.07363503 0 0 0 0.02824,0.14452 h 30.746067 a 0.07330591,0.07343628 0 0 0 0.03496,-0.0116 c 8.114981,-4.31232 13.713557,-8.18937 17.135593,-11.63028 3.422036,-3.44091 4.67412,-6.4546 4.06338,-9.01883 -0.353025,-1.47884 -1.658687,-2.66234 -3.473643,-3.62978 -1.814921,-0.96744 -4.143864,-1.72219 -6.571828,-2.33071 -4.8559,-1.21703 -10.111008,-1.85291 -12.374501,-2.4254 -1.099949,-0.28829 -1.972792,-0.4875 -2.56162,-0.83228 -0.588836,-0.34479 -0.900681,-0.82153 -0.912019,-1.72103 -0.0034,-0.20147 0.09277,-0.39763 0.274107,-0.59305 0.181303,-0.19544 0.444242,-0.38475 0.755867,-0.56317 0.623232,-0.35684 1.438638,-0.67053 2.176201,-0.93029 0.737554,-0.25976 1.395549,-0.46546 1.724363,-0.61964 0.08225,-0.0385 0.141829,-0.0721 0.186058,-0.11295 0.02211,-0.0205 0.04355,-0.0431 0.05146,-0.0797 0.0077,-0.0367 -0.0091,-0.0812 -0.03326,-0.10468 -0.04874,-0.0469 -0.110683,-0.0593 -0.202678,-0.0748 -0.09186,-0.0154 -0.21342,-0.0264 -0.373774,-0.0333 z m 38.990751,6.65655 a 0.07330591,0.07343628 0 0 0 -0.0432,0.004 c -1.33619,0.68365 -2.20853,1.23914 -2.72774,1.91042 -0.51923,0.67127 -0.6725,1.45461 -0.57645,2.56494 0.0371,0.52832 0.32951,1.01635 0.81567,1.47684 0.48618,0.46049 1.16745,0.89806 1.9968,1.324 1.65867,0.85185 3.91242,1.66388 6.38577,2.53503 4.94671,1.74231 10.77127,3.71537 14.43111,6.63662 1.38479,1.10479 1.80379,3.12936 1.86889,5.34253 0.0651,2.21314 -0.2226,4.60376 -0.2226,6.41898 a 0.07330591,0.07343628 0 0 0 0.0714,0.0748 c 0,0 8.87101,0.3655 21.05942,0.31232 v 8.5e-4 a 0.07330591,0.07343628 0 0 0 0.0697,-0.093 c -1.20377,-4.65067 -3.57118,-8.73038 -7.90081,-11.77979 -6.24502,-4.38995 -16.09604,-6.94848 -23.66756,-8.96566 -3.78577,-1.00859 -7.00375,-1.88455 -8.90419,-2.77426 -0.95025,-0.44485 -1.56413,-0.897 -1.76091,-1.34228 -0.0978,-0.22263 -0.10083,-0.44106 0.007,-0.67944 0.10751,-0.23837 0.3301,-0.49377 0.68276,-0.76417 a 0.07330591,0.07343628 0 0 1 0,-8.5e-4 0.07330591,0.07343628 0 0 1 0,-8.5e-4 l 1.9802,-1.54328 a 0.07330591,0.07343628 0 0 0 -0.0333,-0.13124 z" />
    <path
       fill-rule="evenodd"
       fill="rgb(7.449341%, 7.839966%, 7.839966%)"
       fill-opacity="1"
       d="m 88.091057,83.22952 c 9.285175,1.067622 17.786243,2.644679 26.584123,4.740049 1.49733,3.986949 2.45862,7.446738 2.51178,11.637476 -7.0702,-1.599213 -11.2565,-2.436469 -17.05973,-3.539534 C 94.35057,94.995466 88.325843,94.180356 82.336548,93.475998 83.745281,89.201086 85.371065,87.2652 88.091057,83.22952 Z m -12.350705,12.2621 c 4.970412,-7.10121 9.369347,-15.429515 13.108231,-15.168147 3.796455,0.261369 8.975073,1.098628 13.480337,1.909305 4.49196,0.784105 9.72816,2.0112 13.39173,2.910481 3.68572,0.890424 4.83751,8.07137 7.14108,18.707671 0.92144,4.19516 -1.93589,8.17769 -3.24716,10.95527 -0.36326,2.1751 -0.83726,3.82304 -1.53719,5.89183 l -6.61834,-1.17836 -0.031,-5.76336 -28.15232,-5.00585 -1.780848,5.58174 -6.25066,-1.09863 c 0.05316,-3.43321 0.0797,-5.24063 0.287953,-7.38915 -0.549311,-3.0168 -1.780839,-7.442315 0.208207,-10.3528 z m 0,0"
       id="path20146"
       style="fill:#000000;stroke-width:1.13406" />
  </g>
</svg>
