<?xml version="1.0" encoding="UTF-8" standalone="no"?>
<!-- Created with Inkscape (http://www.inkscape.org/) -->

<svg
   width="158.75mm"
   height="158.75mm"
   viewBox="0 0 158.75 158.75"
   version="1.1"
   id="svg1"
   inkscape:version="1.3.2 (091e20e, 2023-11-25, custom)"
   sodipodi:docname="Ciclabile ubicazione.svg"
   xmlns:inkscape="http://www.inkscape.org/namespaces/inkscape"
   xmlns:sodipodi="http://sodipodi.sourceforge.net/DTD/sodipodi-0.dtd"
   xmlns="http://www.w3.org/2000/svg"
   xmlns:svg="http://www.w3.org/2000/svg">
  <sodipodi:namedview
     id="namedview1"
     pagecolor="#ffffff"
     bordercolor="#000000"
     borderopacity="0.25"
     inkscape:showpageshadow="2"
     inkscape:pageopacity="0.0"
     inkscape:pagecheckerboard="0"
     inkscape:deskcolor="#d1d1d1"
     inkscape:document-units="mm"
     inkscape:zoom="0.73049944"
     inkscape:cx="323.06664"
     inkscape:cy="193.01863"
     inkscape:window-width="1920"
     inkscape:window-height="991"
     inkscape:window-x="-9"
     inkscape:window-y="-9"
     inkscape:window-maximized="1"
     inkscape:current-layer="layer1" />
  <defs
     id="defs1" />
  <g
     inkscape:label="Livello 1"
     inkscape:groupmode="layer"
     id="layer1"
     transform="translate(-19.182309,-40.878088)">
    <g
       id="g231"
       transform="matrix(0.26458333,0,0,0.26458333,363.48081,-841.06462)">
      <rect
         style="fill:#00408b;stroke-width:2.1285;stroke-linecap:round;paint-order:fill markers stroke"
         id="rect70-5-8-9-8-6-1-6"
         width="158.75"
         height="158.75"
         x="535.40985"
         y="1100.3615"
         transform="matrix(3.7795276,0,0,3.7795276,-3324.882,-825.51966)" />
      <rect
         style="fill:none;fill-opacity:0.419162;stroke:#ffffff;stroke-width:2.64583;stroke-linecap:round;paint-order:fill markers stroke"
         id="rect70-5-7-3-1-0-3-8-9"
         width="153.45833"
         height="153.45833"
         x="538.05579"
         y="1103.0073"
         ry="7.9375"
         rx="7.9375"
         transform="matrix(3.7795276,0,0,3.7795276,-3324.882,-825.51966)" />
      <path
         id="path203-9"
         style="color:#000000;fill:#ffffff;stroke-width:8.08081;stroke-linecap:round;-inkscape-stroke:none;paint-order:fill markers stroke"
         d="m -844.04949,3694.8804 c -9.73737,0 -19.09817,1.6388 -27.84888,4.6141 l 6.17616,15.9265 c 6.8202,-2.2166 14.09939,-3.4319 21.67272,-3.4319 38.60929,0 69.72928,31.1191 69.72928,69.7284 0,38.6093 -31.11999,69.7285 -69.72928,69.7285 -26.78625,0 -49.95465,-14.9851 -61.63965,-37.0521 l -16.80372,4.5058 c 13.96549,29.3148 43.88718,49.6428 78.44337,49.6428 47.85292,0 86.82099,-38.9721 86.82099,-86.825 0,-47.8537 -38.96807,-86.8371 -86.82099,-86.8371 z m -62.44555,26.6085 c -10.50723,10.8888 -18.20307,24.5001 -21.91087,39.6541 h 17.7099 c 3.22351,-10.4873 8.83967,-19.9095 16.22327,-27.6315 z" />
      <path
         id="path203"
         style="color:#000000;fill:#ffffff;stroke-width:8.08081;stroke-linecap:round;-inkscape-stroke:none;paint-order:fill markers stroke"
         d="m -1157.5278,3694.8804 c -47.8531,0 -86.8372,38.9834 -86.8372,86.8371 0,47.8529 38.9841,86.825 86.8372,86.825 47.8532,0 86.8206,-38.9721 86.8206,-86.825 0,-23.179 -9.1578,-44.2586 -24.0238,-59.8529 l -11.6382,12.4145 c 11.5285,12.4308 18.5701,29.0829 18.5701,47.4384 0,38.6093 -31.1194,69.7123 -69.7287,69.7123 -38.6092,0 -69.7287,-31.103 -69.7287,-69.7123 0,-38.6093 31.1195,-69.7284 69.7287,-69.7284 9.0624,0 17.7042,1.7325 25.6357,4.8565 l 3.5453,-16.9002 c -9.1257,-3.2703 -18.9486,-5.065 -29.181,-5.065 z" />
      <circle
         style="fill:#ffffff;stroke-width:11.7576;stroke-linecap:round;stroke-opacity:0.547904;paint-order:fill markers stroke"
         id="path213"
         cx="-950.10437"
         cy="3441.9551"
         r="27.259951" />
      <path
         id="path206"
         style="color:#000000;fill:#ffffff;stroke-width:2.13805;stroke-linecap:round;-inkscape-stroke:none;paint-order:fill markers stroke"
         d="m -913.82368,3477.4126 v 0.021 c -3.44733,-0.2343 -7.76436,0.8116 -9.61703,1.282 -5.92465,1.5013 -8.97115,3.9973 -11.34585,6.3681 -0.73777,0.5172 -1.44964,1.0817 -2.11299,1.7331 l -100.72625,98.9431 c -6.4547,6.341 -6.5458,16.7133 -0.2046,23.1676 1.1747,1.1952 2.5161,2.0977 3.917,2.8564 h -40.389 c -7.497,0 -13.1578,5.2684 -15.5802,11.0035 -2.4223,5.7349 -2.6229,12.462 0.8393,18.1315 l 5.174,8.4771 -0.7225,1.5617 -69.1148,119.8851 -1.044,1.7163 c -0.1405,0 -0.2811,-0.021 -0.4218,-0.021 -6.4337,4e-4 -11.6484,5.217 -11.6465,11.6506 6e-4,6.4319 5.2146,11.6462 11.6465,11.6466 6.432,-4e-4 11.646,-5.2147 11.6466,-11.6466 -7e-4,-1.8522 -0.4431,-3.6772 -1.2904,-5.3241 l 1.307,-2.159 20.2572,-35.1442 28.9388,-44.565 95.3435,75.8213 c -1.8788,3.6713 -2.8695,8.7143 -1.8207,15.6428 3.44596,22.7638 22.42864,20.1488 22.42864,20.1488 l 127.15531,-13.0956 c 1.91434,1.4379 4.24136,2.2198 6.63546,2.2298 6.14485,9e-4 11.12711,-4.9795 11.1287,-11.1245 -0.002,-4.9318 -3.24957,-9.2744 -7.9801,-10.6692 l -60.81322,-104.0002 12.41904,-21.5434 c 6.19582,-0.5383 11.58201,-1.6441 15.80568,-4.585 4.9382,-3.4388 3.47783,-9.0989 3.59542,-13.4922 l -27.60251,-0.088 -23.65632,8.6734 17.43844,7.2116 v 3.7376 l -10.25176,17.7891 h -62.02425 l -5.57897,-13.2501 0.78089,-0.4302 79.35828,-28.8593 c 15.45542,-5.9959 20.15985,-16.3062 19.79363,-24.0573 l -9.89682,-106.9147 c -2.90754,-11.2057 -14.09322,-18.1929 -21.76882,-18.7206 z m -40.53101,79.041 16.49887,38.2719 -77.15338,42.3725 c -1.3018,0.7273 -2.4987,1.621 -3.5579,2.6685 -5.8003,4.858 -7.5193,13.0564 -4.1591,19.8353 l 5.0235,10.0597 h -64.0954 l 7.6543,-13.2752 3.5955,-7.7337 -8.4603,-13.8554 c -0.9053,-1.4821 -1.1156,-4.8585 -0.029,-7.4331 1.0873,-2.5747 2.4805,-3.8209 4.7354,-3.8209 h 48.6113 c 3.2522,0 5.8885,-2.6358 5.8838,-5.888 -0.069,-1.7322 -0.8985,-3.346 -2.2675,-4.4097 2.7049,-0.6925 5.2818,-2.019 7.4164,-4.1175 l 8.2139,-8.0677 z m -131.87401,124.9671 h 74.3973 l 38.3178,76.7317 c 1.73215,3.4665 4.55554,5.9868 7.82141,7.4915 4.14579,1.6675 7.68914,1.7073 9.99287,1.1984 2.30372,-0.5088 2.80838,-0.6771 4.15499,-1.3487 7.96091,-3.9742 11.25356,-13.5539 7.52074,-21.5684 0.2597,-0.2183 0.50001,-0.4586 0.71825,-0.7183 l 29.81573,-51.7224 c 1.65545,-1.707 3.4782,-2.6407 5.26995,-2.5096 1.07506,0.079 2.13935,0.5403 3.14861,1.4489 l 44.00116,75.2242 -0.0919,-0.1048 c 2.09588,7.5059 -0.40014,11.3764 -5.60402,11.9889 l -77.25781,-9.287 c -3.8564,4.96 -9.78586,7.8633 -16.06876,7.8674 -7.87721,-0.021 -15.03699,-4.5795 -18.38636,-11.7093 l -5.75018,-0.5554 c 0,0 -3.50971,-0.3286 -6.08007,0.8436 l -95.16811,-75.6877 c -4.537,-3.2553 -2.62,-7.5834 -0.7517,-7.5834 z m 114.66941,0 h 48.19374 c 0.63037,0.7629 0.75128,1.7776 0.43847,2.8855 l -3.14026,5.4495 -25.89458,38.2135 z"
         sodipodi:nodetypes="ccccccscsscccccsssscccccscccccccsccccccccccccccsccccccccssscccccscccczcccsccccccccccscccccccc" />
    </g>
  </g>
</svg>
