<?xml version="1.0" encoding="UTF-8"?>
<svg xmlns="http://www.w3.org/2000/svg" xmlns:xlink="http://www.w3.org/1999/xlink" width="750.000000mm" height="750.000000mm" viewBox="0 0 7500 7500" version="1.1">
<g id="surface31">
<path style="fill-rule:evenodd;fill:rgb(94.509804%,94.117647%,91.764706%);fill-opacity:1;stroke-width:0.3;stroke-linecap:butt;stroke-linejoin:miter;stroke:rgb(16.470588%,16.078431%,16.470588%);stroke-opacity:1;stroke-miterlimit:3;" d="M -335 -375 C -345.608594 -375 -355.782812 -370.785547 -363.284375 -363.284375 C -370.785547 -355.782813 -375 -345.608594 -375 -335 L -375 335 C -375 345.608594 -370.785547 355.782812 -363.284375 363.284375 C -355.782812 370.785547 -345.608594 375 -335 375 L 335 375 C 345.608594 375 355.782813 370.785547 363.284375 363.284375 C 370.785547 355.782812 375 345.608594 375 335 L 375 -335 C 375 -345.608594 370.785547 -355.782813 363.284375 -363.284375 C 355.782813 -370.785547 345.608594 -375 335 -375 L -335 -375 " transform="matrix(10,0,0,-10,3750,3750)"/>
<path style=" stroke:none;fill-rule:evenodd;fill:rgb(0%,54.901961%,15.294118%);fill-opacity:1;" d="M 400 7350 C 261.929688 7350 150 7238.070312 150 7100 L 150 400 C 150 261.929688 261.929688 150 400 150 L 7100 150 C 7238.070312 150 7350 261.929688 7350 400 L 7350 7100 C 7350 7238.070312 7238.070312 7350 7100 7350 L 400 7350 "/>
<path style=" stroke:none;fill-rule:evenodd;fill:rgb(94.509804%,94.117647%,91.764706%);fill-opacity:1;" d="M 1220 6625 L 2312.5 3520 L 3520 3520 L 3405 6625 L 1220 6625 M 6280 6625 L 5187.5 3520 L 3980 3520 L 4095 6625 L 6280 6625 M 2600 2715 L 3244 875 L 3635 875 L 3566 2715 L 2600 2715 M 4900 2715 L 4256 875 L 3865 875 L 3934 2715 L 4900 2715 M 1450 3520 L 1450 3175 L 875 3175 L 875 2945 L 6625 2945 L 6625 3175 L 6050 3175 L 6050 3520 L 5475 3520 L 5475 3175 L 2025 3175 L 2025 3520 L 1450 3520 "/>
<path style=" stroke:none;fill-rule:evenodd;fill:rgb(73.333333%,11.764706%,6.27451%);fill-opacity:1;" d="M 150 6819.671875 L 6819.671875 150 L 7100 150 C 7238.070312 150 7350 261.929688 7350 400 L 7350 680.328125 L 680.328125 7350 L 400 7350 C 261.929688 7350 150 7238.070312 150 7100 L 150 6819.671875 "/>
</g>
</svg>
