<?xml version="1.0" encoding="UTF-8" standalone="no"?>
<svg
   xmlns:dc="http://purl.org/dc/elements/1.1/"
   xmlns:cc="http://creativecommons.org/ns#"
   xmlns:rdf="http://www.w3.org/1999/02/22-rdf-syntax-ns#"
   xmlns:svg="http://www.w3.org/2000/svg"
   xmlns="http://www.w3.org/2000/svg"
   viewBox="0 0 601.00018 901.00006"
   height="901.00006"
   width="601.00018"
   xml:space="preserve"
   id="svg5733"
   version="1.1"><metadata
     id="metadata5739"><rdf:RDF><cc:Work
         rdf:about=""><dc:format>image/svg+xml</dc:format><dc:type
           rdf:resource="http://purl.org/dc/dcmitype/StillImage" /><dc:title></dc:title></cc:Work></rdf:RDF></metadata><defs
     id="defs5737" /><g
     transform="matrix(1.3333333,0,0,-1.3333333,0,901.00008)"
     id="g5741"><g
       id="g5743"><path
         id="path5745"
         style="fill:#ffffff;fill-opacity:1;fill-rule:nonzero;stroke:none"
         d="M 27.406,675.375 C 0.316,675.391 0.375,648.34 0.375,648.34 c 0,-206.981 0,-413.957 0,-620.938 0,0 -0.059,-27.054 27.031,-27.027 h 395.942 c 27.265,-0.031 27.027,27.027 27.027,27.027 0,206.981 0,413.957 0,620.938 0,0 0.227,27.125 -27.027,27.035 z" /><path
         id="path5747"
         style="fill:#154889;fill-opacity:1;fill-rule:nonzero;stroke:none"
         d="m 27.406,666.363 c -9.949,0 -18.019,-8.066 -18.019,-18.019 0,-206.981 0,-413.961 0,-620.942 0,-9.957 8.07,-18.019 18.019,-18.019 h 395.942 c 9.949,0 18.019,8.062 18.019,18.019 0,206.981 0,413.961 0,620.942 0,9.953 -8.07,18.019 -18.019,18.019 z" /><path
         id="path5749"
         style="fill:#000000;fill-opacity:1;fill-rule:nonzero;stroke:none"
         d="M 27.406,675.75 C 13.738,675.758 6.813,668.879 3.398,662.031 -0.02,655.18 0,648.34 0,648.34 V 27.402 c 0,0 -0.02,-6.843 3.398,-13.691 C 6.813,6.859 13.738,-0.012 27.406,0 h 395.942 c 13.757,-0.016 20.683,6.859 24.074,13.711 3.394,6.848 3.328,13.687 3.328,13.691 V 648.34 c 0,0.004 0.063,6.855 -3.332,13.715 -3.395,6.859 -10.32,13.738 -24.07,13.695 z m 0,-0.375 h 395.942 c 27.25,0.09 27.027,-27.035 27.027,-27.035 V 27.402 c 0,0 0.238,-27.058 -27.027,-27.027 H 27.406 C 0.316,0.348 0.375,27.402 0.375,27.402 V 648.34 c 0,0 -0.059,27.051 27.031,27.035 z" /><path
         id="path5751"
         style="fill:#ffffff;fill-opacity:1;fill-rule:nonzero;stroke:none"
         d="m 90.375,585.695 h 270 V 181.129 h -270 z" /><path
         id="path5753"
         style="fill:#000000;fill-opacity:1;fill-rule:nonzero;stroke:none"
         d="m 216.438,557.688 -6.192,-4.235 10.578,-15.48 -92.953,-135.852 h -15 v -7.5 h 225.008 v 7.5 h -15 l -92.953,135.852 10.597,15.48 -6.21,4.235 -8.946,-13.082 z m 8.929,-91.985 43.508,-63.582 h -87 z" /><path
         id="path5755"
         style="fill:#000000;fill-opacity:1;fill-rule:nonzero;stroke:none"
         d="m 153.402,352.305 c -2.179,0 -4.031,-1.547 -4.422,-3.707 l -9.05,-51.489 c -0.102,-0.562 -0.102,-1.121 0.019,-1.683 l 9.692,-46.246 h -36.774 v -8.949 h 107.617 c 0,12.367 10.036,22.417 22.418,22.417 12.383,0 22.418,-10.05 22.418,-22.417 h 59.004 c 2.16,0 4.031,1.566 4.406,3.691 l 9.083,51.555 c 0.085,0.527 0.085,1.054 0,1.566 l -9.083,51.555 c -0.375,2.16 -2.246,3.707 -4.406,3.707 z m 17.758,-17.93 h 35.871 c 1.242,0 2.246,-1.004 2.246,-2.242 v -80.692 c 0,-1.242 -1.004,-2.261 -2.246,-2.261 H 171.16 c -1.242,0 -2.246,1.019 -2.246,2.261 v 80.692 c 0,1.238 1.004,2.242 2.246,2.242 z m 89.672,0 h 51.551 c 1.242,0 2.246,-1.004 2.246,-2.242 v -24.649 c 0,-1.242 -1.004,-2.261 -2.246,-2.261 h -51.551 c -1.242,0 -2.246,1.019 -2.246,2.261 v 24.649 c 0,1.238 1.004,2.242 2.246,2.242 z" /><path
         id="path5757"
         style="fill:#000000;fill-opacity:1;fill-rule:nonzero;stroke:none"
         d="m 260.832,240.231 c 0,-9.915 -8.047,-17.942 -17.93,-17.942 -9.914,0 -17.945,8.027 -17.945,17.942 0,9.902 8.031,17.929 17.945,17.929 9.883,0 17.93,-8.027 17.93,-17.929" /></g></g></svg>