<?xml version="1.0" encoding="UTF-8" standalone="no"?>
<svg
   xmlns:dc="http://purl.org/dc/elements/1.1/"
   xmlns:cc="http://creativecommons.org/ns#"
   xmlns:rdf="http://www.w3.org/1999/02/22-rdf-syntax-ns#"
   xmlns:svg="http://www.w3.org/2000/svg"
   xmlns="http://www.w3.org/2000/svg"
   xmlns:sodipodi="http://sodipodi.sourceforge.net/DTD/sodipodi-0.dtd"
   xmlns:inkscape="http://www.inkscape.org/namespaces/inkscape"
   inkscape:version="1.0 (4035a4fb49, 2020-05-01)"
   sodipodi:docname="Moldova_road_sign_1.16.2.svg"
   id="svg52693"
   version="1.1"
   height="587.08801"
   width="666.72656">
  <metadata
     id="metadata52699">
    <rdf:RDF>
      <cc:Work
         rdf:about="">
        <dc:format>image/svg+xml</dc:format>
        <dc:type
           rdf:resource="http://purl.org/dc/dcmitype/StillImage" />
        <dc:title></dc:title>
      </cc:Work>
    </rdf:RDF>
  </metadata>
  <defs
     id="defs52697" />
  <sodipodi:namedview
     inkscape:current-layer="svg52693"
     inkscape:window-maximized="1"
     inkscape:window-y="-9"
     inkscape:window-x="-9"
     inkscape:cy="320.10232"
     inkscape:cx="546.48845"
     inkscape:zoom="0.79912891"
     showgrid="false"
     id="namedview52695"
     inkscape:window-height="1001"
     inkscape:window-width="1920"
     inkscape:pageshadow="2"
     inkscape:pageopacity="0"
     guidetolerance="10"
     gridtolerance="10"
     objecttolerance="10"
     borderopacity="1"
     bordercolor="#666666"
     pagecolor="#ffffff" />
  <path
     id="path11355"
     d="m 0.2011,550.93909 c 0,19.85354 16.0943,35.94775 35.9478,35.94775 h 594.42876 c 19.8536,0 35.9477,-16.09421 35.9477,-35.94775 0,-6.31003 -1.6607,-12.50902 -4.8161,-17.97388 L 364.49476,18.17503 c -6.421,-11.12223 -18.2886,-17.97387 -31.1315,-17.97387 -12.8429,0 -24.7105,6.85164 -31.1316,17.97387 L 5.0173,532.96521 c -3.1554,5.46486 -4.8162,11.66385 -4.8162,17.97388 z"
     style="opacity:1;fill:#ffffff;stroke-width:0.999999" />
  <path
     id="path11357"
     d="M 1,550.93909 C 1,570.35168 16.7363,586.088 36.1489,586.088 h 594.42876 c 19.4126,0 35.1489,-15.73632 35.1489,-35.14891 0,-6.17023 -1.624,-12.23102 -4.7091,-17.57445 L 363.80296,18.57445 C 357.52406,7.69906 345.92106,1 333.36326,1 c -12.5577,0 -24.1609,6.69906 -30.4398,17.57445 L 5.7091,533.36464 C 2.624,538.70807 1,544.76886 1,550.93909 Z"
     style="opacity:1;fill:none;stroke:#000000;stroke-width:2px" />
  <path
     id="path11359"
     d="m 8.1895,550.93909 c 0,15.44155 12.5178,27.95937 27.9594,27.95937 h 594.42876 c 15.4415,0 27.9594,-12.51782 27.9594,-27.95937 0,-4.90807 -1.2917,-9.72906 -3.7458,-13.97968 L 357.57686,22.16923 c -4.9943,-8.65063 -14.2249,-13.97968 -24.2136,-13.97968 -9.9887,0 -19.2192,5.32905 -24.2136,13.97968 L 11.9352,536.95941 c -2.454,4.25062 -3.7457,9.07241 -3.7457,13.97968 z M 74.9996,523.8968 c 0,-1.40197 0.3691,-2.77997 1.0704,-3.9942 L 326.44536,86.24011 c 1.4266,-2.47161 4.0636,-3.9942 6.9179,-3.9942 2.8542,0 5.4904,1.52259 6.918,3.9942 l 250.3752,433.66249 c 0.7014,1.21423 1.0704,2.59223 1.0704,3.9942 0,4.41198 -3.5763,7.98839 -7.9883,7.98839 H 82.988 c -4.412,0 -7.9884,-3.57641 -7.9884,-7.98839 z"
     style="opacity:1;fill:#ed1c24;fill-opacity:1;stroke-width:0.999999" />
  <path
     id="path11361"
     d="m 548.03656,506.63394 v -21.26749 h -53.1683 c -40.9398,0 -56.3582,-63.80167 -159.505,-63.80167 -103.1469,0 -118.5653,63.80167 -159.505,63.80167 h -53.1683 v 21.26749 z"
     style="opacity:1;fill:#000000;stroke-width:0.999999" />
</svg>
