<?xml version="1.0" encoding="UTF-8" standalone="no"?>
<!-- Created with Inkscape (http://www.inkscape.org/) -->

<svg
   xmlns:dc="http://purl.org/dc/elements/1.1/"
   xmlns:cc="http://creativecommons.org/ns#"
   xmlns:rdf="http://www.w3.org/1999/02/22-rdf-syntax-ns#"
   xmlns:svg="http://www.w3.org/2000/svg"
   xmlns="http://www.w3.org/2000/svg"
   xmlns:sodipodi="http://sodipodi.sourceforge.net/DTD/sodipodi-0.dtd"
   xmlns:inkscape="http://www.inkscape.org/namespaces/inkscape"
   version="1.1"
   width="319.276"
   height="279.61874"
   id="svg2"
   xml:space="preserve"
   inkscape:version="0.48.4 r9939"
   sodipodi:docname="AJAX1.svg"><sodipodi:namedview
     pagecolor="#ffffff"
     bordercolor="#666666"
     borderopacity="1"
     objecttolerance="10"
     gridtolerance="10"
     guidetolerance="10"
     inkscape:pageopacity="0"
     inkscape:pageshadow="2"
     inkscape:window-width="1280"
     inkscape:window-height="1004"
     id="namedview9"
     showgrid="false"
     fit-margin-top="0.2"
     fit-margin-left="0.2"
     fit-margin-right="0.2"
     fit-margin-bottom="0.2"
     inkscape:zoom="1.418663"
     inkscape:cx="174.4516"
     inkscape:cy="154.48335"
     inkscape:window-x="-8"
     inkscape:window-y="-8"
     inkscape:window-maximized="1"
     inkscape:current-layer="svg2"
     showguides="true"
     inkscape:guide-bbox="true" /><defs
     id="defs52" /><metadata
     id="metadata4"><rdf:RDF><cc:Work
         rdf:about=""><dc:format>image/svg+xml</dc:format><dc:type
           rdf:resource="http://purl.org/dc/dcmitype/StillImage" /><dc:title /></cc:Work></rdf:RDF></metadata><path
     style="fill:#cd1e00;fill-opacity:1;fill-rule:nonzero;stroke:none"
     d="m 159.638,0.2 c 3.75736,1.3e-4 7.51377,1.87636 9.71878,5.65625 l 148.18797,256.81249 c 1.08125,1.71125 1.53125,3.61374 1.53125,5.59375 0,6.12 -4.94627,11.15625 -11.15629,11.15625 l -296.56343,0 C 5.14627,279.41874 0.2,274.38249 0.2,268.26249 c 0,-1.98001 0.45,-3.8825 1.53125,-5.59375 L 149.91922,5.85625 C 152.12423,2.07636 155.88064,0.20013 159.638,0.2 z"
     id="path11"
     inkscape:connector-curvature="0"
     sodipodi:nodetypes="cccssssccc" /><path
     inkscape:connector-curvature="0"
     style="fill:#ffffff;fill-opacity:1;fill-rule:nonzero;stroke:none"
     d="m 159.638,56.12835 109.574,189.71997 -219.1475,0 z"
     id="path13"
     sodipodi:nodetypes="cccc" /><path
     inkscape:connector-curvature="0"
     style="fill:#000000;fill-rule:nonzero;stroke:none"
     d="m 174.79544,212.917 c 1.55883,12.49745 10.77609,22.68027 23.05683,25.47232 12.28021,2.79098 24.99438,-2.40691 31.80152,-13.00276 6.80767,-10.59532 6.25033,-24.31956 -1.39254,-34.32857 -7.64342,-10.00902 -20.7363,-14.15982 -32.75044,-10.3829 l -9.7113,-21.10856 6.84147,-5.5884 c 3.76833,-3.07743 4.74837,-8.43248 2.31571,-12.64551 l -15.07923,-26.1187 c -1.4553,-2.52009 -3.9432,-4.27471 -6.80553,-4.79879 -2.86232,-0.52408 -5.81101,0.23441 -8.06503,2.0754 l -32.90224,26.87666 -12.28718,40.50006 c -15.49603,-3.26625 -30.856346,6.09691 -35.052204,21.36765 -4.195857,15.27127 4.223215,31.168 19.212334,36.27899 14.99018,5.10991 31.36701,-2.33449 37.37274,-16.98781 6.00573,-14.65439 -0.43611,-31.45069 -14.70052,-38.32971 l 2.10651,-7.03243 29.16126,33.37535 c -0.29825,3.10264 1.55669,6.00895 4.49625,7.04585 2.93903,1.03689 6.20689,-0.0617 7.92128,-2.66492 l 4.46085,-0.003 -4.3e-4,0 z"
     id="path15" /><path
     inkscape:connector-curvature="0"
     style="fill:#000000;fill-rule:nonzero;stroke:none"
     d="m 168.6717,99.30914 c 0,-6.654797 -5.39475,-12.049011 -12.04901,-12.049011 -6.65426,0 -12.04847,5.394214 -12.04847,12.049011 0,6.65426 5.39421,12.04847 12.04847,12.04847 6.65426,0 12.04901,-5.39421 12.04901,-12.04847 z"
     id="path17" /><path
     inkscape:connector-curvature="0"
     style="fill:#ffffff;fill-rule:nonzero;stroke:none"
     d="m 137.46508,146.42752 25.77325,-21.05278 11.66869,20.21114 -21.84453,17.84339 -0.71612,0.58469 -18.39966,-5.90059 3.51837,-11.68585 z"
     id="path19" /><path
     inkscape:connector-curvature="0"
     style="fill:#ffffff;fill-rule:nonzero;stroke:none"
     d="m 132.35034,163.42927 -1.05514,3.47491 26.03449,29.87255 -8.22757,-25.76842 c -0.23388,-0.73275 -0.3063,-1.50787 -0.21135,-2.27065 l -16.54043,-5.30839 z"
     id="path21" /><path
     inkscape:connector-curvature="0"
     style="fill:#ffffff;fill-rule:nonzero;stroke:none"
     d="m 165.59749,176.06887 3.78443,11.85215 3.5205,-11.47826 -5.57337,-1.78896 -1.73156,1.41507 z"
     id="path23" /><path
     inkscape:connector-curvature="0"
     style="fill:#ffffff;fill-rule:nonzero;stroke:none"
     d="m 171.56353,205.46938 10.93862,-35.83054 6.42843,14.0257 c -7.78396,4.73764 -12.98345,12.76513 -14.12441,21.80591 l -3.24264,-8.6e-4 z"
     id="path25" /><path
     inkscape:connector-curvature="0"
     style="fill:#ffffff;fill-rule:nonzero;stroke:none"
     d="m 181.6353,205.36478 c 1.07284,-6.36782 4.75481,-11.99859 10.15707,-15.53573 l 7.12201,15.54002 -17.27908,-0.004 z"
     id="path27" /><path
     inkscape:connector-curvature="0"
     style="fill:#ffffff;fill-rule:nonzero;stroke:none"
     d="m 198.35382,186.82833 9.57023,20.90151 c 0.52569,1.14632 0.42431,2.482 -0.26767,3.53606 -0.69145,1.0546 -1.87586,1.67899 -3.13644,1.65432 -7.63429,-0.14966 -15.27019,-0.1384 -22.90341,0.0349 1.54863,9.46724 8.77096,17.00176 18.1647,18.94842 9.39321,1.94719 19.01547,-2.09579 24.19887,-10.1678 5.1834,-8.07254 4.85672,-18.50372 -0.82179,-26.23618 -5.67906,-7.73192 -15.53519,-11.16499 -24.78839,-8.63364 l -0.0161,-0.0376 z"
     id="path29" /><path
     inkscape:connector-curvature="0"
     style="fill:#ffffff;fill-rule:nonzero;stroke:none"
     d="m 124.54224,189.17301 -3.22387,10.31639 c -0.97574,3.32578 -2.17356,6.58237 -3.58487,9.74777 -0.40768,0.88456 -0.93337,1.71064 -1.56313,2.45572 -1.22195,1.23913 -3.15896,1.42044 -4.59066,0.42967 -1.43116,-0.99076 -1.94344,-2.86768 -1.21337,-4.44851 1.43545,-2.79902 2.63971,-5.71123 3.5999,-8.70659 l 3.87454,-12.61815 c -11.91383,-2.19877 -23.515471,5.13459 -26.640639,16.83976 -3.125705,11.70516 3.275901,23.84536 14.699449,27.87815 11.42462,4.03386 24.02882,-1.39683 28.94509,-12.4701 4.91626,-11.07273 0.49028,-24.06369 -10.16351,-29.83286 -0.0767,-0.0413 -0.17058,-0.0338 -0.23924,0.0198 -0.0687,0.0542 -0.0987,0.14322 -0.0767,0.22744 0.022,0.0842 0.0912,0.14752 0.17702,0.16146 z"
     id="path31" /></svg>