<?xml version="1.0" encoding="UTF-8" standalone="no"?>
<!-- Created with Inkscape (http://www.inkscape.org/) -->

<svg
   xmlns:dc="http://purl.org/dc/elements/1.1/"
   xmlns:cc="http://creativecommons.org/ns#"
   xmlns:rdf="http://www.w3.org/1999/02/22-rdf-syntax-ns#"
   xmlns:svg="http://www.w3.org/2000/svg"
   xmlns="http://www.w3.org/2000/svg"
   xmlns:sodipodi="http://sodipodi.sourceforge.net/DTD/sodipodi-0.dtd"
   xmlns:inkscape="http://www.inkscape.org/namespaces/inkscape"
   version="1.1"
   width="319.276"
   height="279.61874"
   id="svg2"
   xml:space="preserve"
   inkscape:version="0.48.4 r9939"
   sodipodi:docname="AJAX1.svg"><sodipodi:namedview
     pagecolor="#ffffff"
     bordercolor="#666666"
     borderopacity="1"
     objecttolerance="10"
     gridtolerance="10"
     guidetolerance="10"
     inkscape:pageopacity="0"
     inkscape:pageshadow="2"
     inkscape:window-width="1280"
     inkscape:window-height="1004"
     id="namedview9"
     showgrid="false"
     fit-margin-top="0.2"
     fit-margin-left="0.2"
     fit-margin-right="0.2"
     fit-margin-bottom="0.2"
     inkscape:zoom="2.2290436"
     inkscape:cx="89.409014"
     inkscape:cy="89.294014"
     inkscape:window-x="-8"
     inkscape:window-y="-8"
     inkscape:window-maximized="1"
     inkscape:current-layer="svg2"
     showguides="true"
     inkscape:guide-bbox="true" /><defs
     id="defs52" /><metadata
     id="metadata4"><rdf:RDF><cc:Work
         rdf:about=""><dc:format>image/svg+xml</dc:format><dc:type
           rdf:resource="http://purl.org/dc/dcmitype/StillImage" /><dc:title /></cc:Work></rdf:RDF></metadata><path
     style="fill:#cd1e00;fill-opacity:1;fill-rule:nonzero;stroke:none"
     d="m 159.638,0.2 c 3.75736,1.3e-4 7.51377,1.87636 9.71878,5.65625 l 148.18797,256.81249 c 1.08125,1.71125 1.53125,3.61374 1.53125,5.59375 0,6.12 -4.94627,11.15625 -11.15629,11.15625 l -296.56343,0 C 5.14627,279.41874 0.2,274.38249 0.2,268.26249 c 0,-1.98001 0.45,-3.8825 1.53125,-5.59375 L 149.91922,5.85625 C 152.12423,2.07636 155.88064,0.20013 159.638,0.2 z"
     id="path11"
     inkscape:connector-curvature="0"
     sodipodi:nodetypes="cccssssccc" /><path
     inkscape:connector-curvature="0"
     style="fill:#ffffff;fill-opacity:1;fill-rule:nonzero;stroke:none"
     d="m 159.638,56.12835 109.574,189.71997 -219.1475,0 z"
     id="path13"
     sodipodi:nodetypes="cccc" /><path
     sodipodi:nodetypes="sssss"
     style="fill:#000000;fill-opacity:1;stroke:none"
     d="m 183.2185,166.26932 c 0,13.02288 -10.55711,23.58 -23.57998,23.58 -13.02289,0 -23.58002,-10.55712 -23.58002,-23.58 0,-13.02287 10.55713,-23.57998 23.58002,-23.57998 13.02287,0 23.57998,10.55711 23.57998,23.57998 z"
     id="path4177"
     inkscape:connector-curvature="0" /><path
     inkscape:connector-curvature="0"
     id="path3000"
     d="m 178.8885,166.26932 c 0,10.63149 -8.6185,19.25 -19.24998,19.25 -10.6315,0 -19.25002,-8.61851 -19.25002,-19.25 0,-10.63148 8.61852,-19.24998 19.25002,-19.24998 10.63148,0 19.24998,8.6185 19.24998,19.24998 z"
     style="fill:#fdbe00;fill-opacity:1;stroke:none"
     sodipodi:nodetypes="sssss" /><path
     inkscape:connector-curvature="0"
     id="path3782"
     d="m 183.2185,118.90933 c 0,13.02287 -10.55711,23.57999 -23.57998,23.57999 -13.02289,0 -23.58002,-10.55712 -23.58002,-23.57999 0,-13.02288 10.55713,-23.579984 23.58002,-23.579984 13.02287,0 23.57998,10.557104 23.57998,23.579984 z"
     style="fill:#000000;fill-opacity:1;stroke:none"
     sodipodi:nodetypes="sssss" /><path
     sodipodi:nodetypes="sssss"
     style="fill:#cd1e00;fill-opacity:1;stroke:none"
     d="m 178.8885,118.90933 c 0,10.63148 -8.6185,19.24999 -19.24998,19.24999 -10.6315,0 -19.25002,-8.61851 -19.25002,-19.24999 0,-10.63148 8.61852,-19.249987 19.25002,-19.249987 10.63148,0 19.24998,8.618507 19.24998,19.249987 z"
     id="path3784"
     inkscape:connector-curvature="0" /><path
     inkscape:connector-curvature="0"
     id="path3786"
     d="m 183.2185,213.62932 c 0,13.02288 -10.55711,23.58 -23.57998,23.58 -13.02289,0 -23.58002,-10.55712 -23.58002,-23.58 0,-13.02287 10.55713,-23.57998 23.58002,-23.57998 13.02287,0 23.57998,10.55711 23.57998,23.57998 z"
     style="fill:#000000;fill-opacity:1;stroke:none"
     sodipodi:nodetypes="sssss" /><path
     sodipodi:nodetypes="sssss"
     style="fill:#009160;fill-opacity:1;stroke:none"
     d="m 178.8885,213.62932 c 0,10.63149 -8.6185,19.25 -19.24998,19.25 -10.6315,0 -19.25002,-8.61851 -19.25002,-19.25 0,-10.63148 8.61852,-19.24998 19.25002,-19.24998 10.63148,0 19.24998,8.6185 19.24998,19.24998 z"
     id="path3788"
     inkscape:connector-curvature="0" /></svg>