<?xml version="1.0" encoding="UTF-8" standalone="no"?>
<!-- Created with Inkscape (http://www.inkscape.org/) -->

<svg
   xmlns:dc="http://purl.org/dc/elements/1.1/"
   xmlns:cc="http://creativecommons.org/ns#"
   xmlns:rdf="http://www.w3.org/1999/02/22-rdf-syntax-ns#"
   xmlns:svg="http://www.w3.org/2000/svg"
   xmlns="http://www.w3.org/2000/svg"
   xmlns:sodipodi="http://sodipodi.sourceforge.net/DTD/sodipodi-0.dtd"
   xmlns:inkscape="http://www.inkscape.org/namespaces/inkscape"
   version="1.1"
   width="178.61"
   height="178.61"
   id="svg2"
   xml:space="preserve"
   inkscape:version="0.48.4 r9939"
   sodipodi:docname="AJAX1.svg"><sodipodi:namedview
     pagecolor="#ffffff"
     bordercolor="#666666"
     borderopacity="1"
     objecttolerance="10"
     gridtolerance="10"
     guidetolerance="10"
     inkscape:pageopacity="0"
     inkscape:pageshadow="2"
     inkscape:window-width="1280"
     inkscape:window-height="1004"
     id="namedview9"
     showgrid="false"
     fit-margin-top="0.7"
     fit-margin-left="0.7"
     fit-margin-right="0.7"
     fit-margin-bottom="0.7"
     inkscape:zoom="2.7688264"
     inkscape:cx="80.19725"
     inkscape:cy="80.762506"
     inkscape:window-x="-8"
     inkscape:window-y="-8"
     inkscape:window-maximized="1"
     inkscape:current-layer="svg2"
     showguides="true"
     inkscape:guide-bbox="true" /><defs
     id="defs52" /><metadata
     id="metadata4"><rdf:RDF><cc:Work
         rdf:about=""><dc:format>image/svg+xml</dc:format><dc:type
           rdf:resource="http://purl.org/dc/dcmitype/StillImage" /><dc:title></dc:title></cc:Work></rdf:RDF></metadata><path
     inkscape:connector-curvature="0"
     style="fill:#ffffff;fill-rule:nonzero;stroke:#000000;stroke-opacity:1"
     d="m 9.1607,177.91 160.2893,0 c 4.59,0 8.46,-3.87 8.46,-8.46 l 0,-160.2893 C 177.91,4.57085 174.04,0.7 169.45,0.7 L 9.1607,0.7 C 4.56964,0.7 0.7,4.57085 0.7,9.1607 l 0,160.2893 c 0,4.59 3.86964,8.46 8.4607,8.46 z"
     id="path11" /><path
     inkscape:connector-curvature="0"
     style="fill:#005fa9;fill-rule:nonzero;stroke:none"
     d="m 169.45007,173.59009 c 2.43,0 4.14,-1.70999 4.14,-4.13997 l 0,-160.28821 c 0,-2.4304 -1.71,-4.14182 -4.14,-4.14182 l -160.28937,0 c -2.43165,0 -4.14063,1.71142 -4.14063,4.14182 l 0,160.28821 c 0,2.42998 1.70898,4.13997 4.14063,4.13997 l 160.28937,0 z"
     id="path13" /><path
     inkscape:connector-curvature="0"
     style="fill:#cd1e00;fill-opacity:1;fill-rule:nonzero;stroke:none"
     d="m 56.3201,147.04122 c -0.62988,1.07875 -2.15938,1.07875 -2.78925,0 L 26.89022,108.79084 c -0.62875,-0.72025 0,-1.4405 0.72013,-1.4405 l 0.359,0 17.73062,3.23975 0,-78.02975 18.80988,0 0,78.02975 17.73062,-3.23975 c 0.719,-0.36 1.07913,0.4505 1.07913,1.08038 l 0,0.36012 -26.9995,38.25038 z"
     id="path15" /><path
     inkscape:connector-curvature="0"
     style="fill:#ffffff;fill-rule:nonzero;stroke:none"
     d="m 125.07984,31.57034 c -0.36012,-0.8105 -1.07912,-0.8105 -1.43912,-0.8105 -0.62988,0 -0.99,0 -1.35013,0.8105 l -27.00074,38.2495 0,0.36013 c 0,0.62987 0.36012,1.08037 1.08037,1.08037 l 17.72937,-3.23975 0,78.03063 18.80988,0 0,-78.03063 17.73125,3.23975 0.35875,0 c 0.36,0 0.99,-0.4505 0.99,-1.08037 0,0 0,-0.36013 -0.27,-0.36013 l -26.63963,-38.2495 z"
     id="path17-1" /></svg>