<?xml version="1.0" encoding="UTF-8" standalone="no"?>
<!-- Created with Inkscape (http://www.inkscape.org/) -->
<svg
   xmlns:svg="http://www.w3.org/2000/svg"
   xmlns="http://www.w3.org/2000/svg"
   version="1.0"
   width="284.1875"
   height="284.125"
   id="svg2"
   xml:space="preserve"><defs
     id="defs5"><clipPath
       id="clipPath19"><path
         d="M 0.496094,0 L 2272.8,0 L 2272.8,2272.31 L 0.496094,2272.31 L 0.496094,0 z"
         id="path21" /></clipPath></defs><g
     transform="matrix(1.25,0,0,-1.25,0,284.125)"
     id="g11"><g
       transform="scale(0.1,0.1)"
       id="g13"><g
         id="g15"><g
           clip-path="url(#clipPath19)"
           id="g17"><path
             d="M 2271.73,1135.07 C 2271.73,1760.03 1760.53,2271.23 1135.57,2271.23 C 512.766,2271.23 1.56641,1760.03 1.56641,1135.07 C 1.56641,512.281 512.766,1.07031 1135.57,1.07031 C 1760.53,1.07031 2271.73,512.281 2271.73,1135.07"
             id="path23"
             style="fill:#e23828;fill-opacity:1;fill-rule:nonzero;stroke:none" /><path
             d="M 2271.73,1135.07 C 2271.73,1760.03 1760.53,2271.23 1135.57,2271.23 C 512.766,2271.23 1.56641,1760.03 1.56641,1135.07 C 1.56641,512.281 512.766,1.07031 1135.57,1.07031 C 1760.53,1.07031 2271.73,512.281 2271.73,1135.07 z"
             id="path25"
             style="fill:none;stroke:#e23828;stroke-width:2.1500001;stroke-linecap:butt;stroke-linejoin:miter;stroke-miterlimit:4;stroke-dasharray:none;stroke-opacity:1" /><path
             d="M 1987.32,1135.07 C 1987.32,1603.79 1604.29,1986.84 1135.57,1986.84 C 669.008,1986.84 285.965,1603.8 285.965,1135.07 C 285.965,668.52 669.008,285.469 1135.57,285.469 C 1604.29,285.469 1987.32,668.52 1987.32,1135.07"
             id="path27"
             style="fill:#ffffff;fill-opacity:1;fill-rule:nonzero;stroke:none" /><path
             d="M 1987.32,1135.07 C 1987.32,1603.79 1604.29,1986.84 1135.57,1986.84 C 669.008,1986.84 285.965,1603.8 285.965,1135.07 C 285.965,668.52 669.008,285.469 1135.57,285.469 C 1604.29,285.469 1987.32,668.52 1987.32,1135.07 z"
             id="path29"
             style="fill:none;stroke:#e23828;stroke-width:2.1500001;stroke-linecap:butt;stroke-linejoin:miter;stroke-miterlimit:4;stroke-dasharray:none;stroke-opacity:1" /><path
             d="M 1515.73,608.762 C 1558.93,608.762 1601.41,620.27 1641.01,643.32 C 1683.48,665.641 1720.21,697.309 1749.01,736.91 C 1771.32,767.879 1791.48,802.43 1805.89,836.27 C 1820.29,862.191 1828.21,887.391 1831.09,913.32 C 1845.48,981 1851.25,1049.39 1851.25,1117.79 C 1851.25,1163.15 1848.37,1208.52 1842.61,1253.88 C 1836.85,1307.88 1825.32,1361.88 1808.77,1415.88 C 1791.48,1452.6 1771.32,1492.92 1749.01,1526.76 C 1717.32,1569.24 1677.73,1603.8 1632.37,1629 C 1598.53,1649.16 1556.05,1660.68 1515.73,1663.56 C 1473.25,1660.68 1433.64,1649.16 1396.93,1629 C 1350.85,1603.8 1314.12,1569.24 1283.17,1526.76 C 1260.12,1492.92 1240.69,1455.48 1223.41,1415.88 C 1206.14,1364.76 1191.73,1310.76 1189.57,1253.88 C 1180.93,1208.52 1178.05,1163.15 1178.05,1117.79 C 1178.05,1049.39 1186.69,981 1200.37,913.32 C 1203.25,887.391 1211.89,862.191 1223.41,836.27 C 1240.69,799.559 1257.25,765.711 1280.3,734.031 C 1311.25,697.309 1347.96,665.641 1391.17,643.32 C 1427.89,620.27 1470.37,608.762 1515.73,608.762"
             id="path31"
             style="fill:#000000;fill-opacity:1;fill-rule:nonzero;stroke:none" /><path
             d="M 1515.73,608.762 C 1558.93,608.762 1601.41,620.27 1641.01,643.32 C 1683.48,665.641 1720.21,697.309 1749.01,736.91 C 1771.32,767.879 1791.48,802.43 1805.89,836.27 C 1820.29,862.191 1828.21,887.391 1831.09,913.32 C 1845.48,981 1851.25,1049.39 1851.25,1117.79 C 1851.25,1163.15 1848.37,1208.52 1842.61,1253.88 C 1836.85,1307.88 1825.32,1361.88 1808.77,1415.88 C 1791.48,1452.6 1771.32,1492.92 1749.01,1526.76 C 1717.32,1569.24 1677.73,1603.8 1632.37,1629 C 1598.53,1649.16 1556.05,1660.68 1515.73,1663.56 C 1473.25,1660.68 1433.64,1649.16 1396.93,1629 C 1350.85,1603.8 1314.12,1569.24 1283.17,1526.76 C 1260.12,1492.92 1240.69,1455.48 1223.41,1415.88 C 1206.14,1364.76 1191.73,1310.76 1189.57,1253.88 C 1180.93,1208.52 1178.05,1163.15 1178.05,1117.79 C 1178.05,1049.39 1186.69,981 1200.37,913.32 C 1203.25,887.391 1211.89,862.191 1223.41,836.27 C 1240.69,799.559 1257.25,765.711 1280.3,734.031 C 1311.25,697.309 1347.96,665.641 1391.17,643.32 C 1427.89,620.27 1470.37,608.762 1515.73,608.762 z"
             id="path33"
             style="fill:none;stroke:#000000;stroke-width:2.1500001;stroke-linecap:butt;stroke-linejoin:miter;stroke-miterlimit:4;stroke-dasharray:none;stroke-opacity:1" /><path
             d="M 785.648,1509.47 L 785.648,1509.47 L 785.648,1509.47 L 785.648,1509.47 z"
             id="path35"
             style="fill:#000000;fill-opacity:1;fill-rule:nonzero;stroke:none" /><path
             d="M 785.645,1509.47 L 785.645,1509.47 z"
             id="path37"
             style="fill:none;stroke:#000000;stroke-width:2.1500001;stroke-linecap:butt;stroke-linejoin:miter;stroke-miterlimit:4;stroke-dasharray:none;stroke-opacity:1" /><path
             d="M 1515.73,608.762 C 1558.93,608.762 1601.41,620.27 1641.01,643.32 C 1683.48,665.641 1720.21,697.309 1749.01,736.91 C 1771.32,767.879 1791.48,802.43 1805.89,836.27 C 1820.29,862.191 1828.21,887.391 1831.09,913.32 C 1845.48,981 1851.25,1049.39 1851.25,1117.79 C 1851.25,1163.15 1848.37,1208.52 1842.61,1253.88 C 1836.85,1307.88 1825.32,1361.88 1808.77,1415.88 C 1791.48,1452.6 1771.32,1492.92 1749.01,1526.76 C 1717.32,1569.24 1677.73,1603.8 1632.37,1629 C 1598.53,1649.16 1556.05,1660.68 1515.73,1663.56 C 1473.25,1660.68 1433.64,1649.16 1396.93,1629 C 1350.85,1603.8 1314.12,1569.24 1283.17,1526.76 C 1260.12,1492.92 1240.69,1455.48 1223.41,1415.88 C 1206.14,1364.76 1191.73,1310.76 1189.57,1253.88 C 1180.93,1208.52 1178.05,1163.15 1178.05,1117.79 C 1178.05,1049.39 1186.69,981 1200.37,913.32 C 1203.25,887.391 1211.89,862.191 1223.41,836.27 C 1240.69,799.559 1257.25,765.711 1280.3,734.031 C 1311.25,697.309 1347.96,665.641 1391.17,643.32 C 1427.89,620.27 1470.37,608.762 1515.73,608.762"
             id="path39"
             style="fill:#000000;fill-opacity:1;fill-rule:nonzero;stroke:none" /><path
             d="M 1515.73,608.762 C 1558.93,608.762 1601.41,620.27 1641.01,643.32 C 1683.48,665.641 1720.21,697.309 1749.01,736.91 C 1771.32,767.879 1791.48,802.43 1805.89,836.27 C 1820.29,862.191 1828.21,887.391 1831.09,913.32 C 1845.48,981 1851.25,1049.39 1851.25,1117.79 C 1851.25,1163.15 1848.37,1208.52 1842.61,1253.88 C 1836.85,1307.88 1825.32,1361.88 1808.77,1415.88 C 1791.48,1452.6 1771.32,1492.92 1749.01,1526.76 C 1717.32,1569.24 1677.73,1603.8 1632.37,1629 C 1598.53,1649.16 1556.05,1660.68 1515.73,1663.56 C 1473.25,1660.68 1433.64,1649.16 1396.93,1629 C 1350.85,1603.8 1314.12,1569.24 1283.17,1526.76 C 1260.12,1492.92 1240.69,1455.48 1223.41,1415.88 C 1206.14,1364.76 1191.73,1310.76 1189.57,1253.88 C 1180.93,1208.52 1178.05,1163.15 1178.05,1117.79 C 1178.05,1049.39 1186.69,981 1200.37,913.32 C 1203.25,887.391 1211.89,862.191 1223.41,836.27 C 1240.69,799.559 1257.25,765.711 1280.3,734.031 C 1311.25,697.309 1347.96,665.641 1391.17,643.32 C 1427.89,620.27 1470.37,608.762 1515.73,608.762 z"
             id="path41"
             style="fill:none;stroke:#000000;stroke-width:2.1500001;stroke-linecap:butt;stroke-linejoin:miter;stroke-miterlimit:4;stroke-dasharray:none;stroke-opacity:1" /><path
             d="M 748.926,1242.35 L 748.926,1097.64 L 777.008,1094.76 C 842.527,1086.11 896.527,1040.75 922.445,978.121 C 925.324,967.309 927.484,955.801 927.484,944.27 C 927.484,887.391 893.645,839.16 842.527,816.84 C 782.766,785.16 709.324,808.191 674.766,865.07 C 661.086,887.391 652.445,910.43 649.566,935.641 L 447.965,924.828 C 447.965,921.949 447.965,919.07 447.965,916.199 C 447.965,811.07 504.125,716.75 598.445,671.398 C 658.207,640.43 723.008,623.148 788.527,623.148 C 794.285,623.148 800.047,623.148 805.805,623.148 C 925.324,623.148 1035.48,688.672 1092.37,790.91 C 1115.42,827.641 1126.93,870.84 1129.82,913.32 C 1129.82,924.828 1132.69,932.75 1132.69,941.398 C 1132.69,1046.51 1061.41,1140.11 962.047,1171.81 C 1047.01,1220.03 1101.01,1310.76 1101.01,1410.11 C 1101.01,1421.63 1098.12,1436.03 1098.12,1450.43 C 1089.48,1498.67 1067.16,1546.91 1030.44,1580.75 C 978.598,1628.99 913.797,1660.67 845.395,1671.47 C 825.234,1674.35 805.797,1674.35 785.637,1674.35 C 714.355,1674.35 643.797,1654.91 581.156,1614.59 C 518.516,1572.11 476.035,1506.59 464.516,1433.15 L 661.074,1407.23 C 674.758,1466.98 725.875,1506.59 785.637,1509.46 C 856.918,1506.58 910.918,1450.42 910.918,1382.03 C 910.918,1330.9 882.117,1285.54 833.875,1265.39 C 808.676,1250.98 779.875,1242.33 748.918,1242.33"
             id="path43"
             style="fill:#000000;fill-opacity:1;fill-rule:nonzero;stroke:none" /><path
             d="M 748.926,1242.35 L 748.926,1097.64 L 777.008,1094.76 C 842.527,1086.11 896.527,1040.75 922.445,978.121 C 925.324,967.309 927.484,955.801 927.484,944.27 C 927.484,887.391 893.645,839.16 842.527,816.84 C 782.766,785.16 709.324,808.191 674.766,865.07 C 661.086,887.391 652.445,910.43 649.566,935.641 L 447.965,924.828 C 447.965,921.949 447.965,919.07 447.965,916.199 C 447.965,811.07 504.125,716.75 598.445,671.398 C 658.207,640.43 723.008,623.148 788.527,623.148 C 794.285,623.148 800.047,623.148 805.805,623.148 C 925.324,623.148 1035.48,688.672 1092.37,790.91 C 1115.42,827.641 1126.93,870.84 1129.82,913.32 C 1129.82,924.828 1132.69,932.75 1132.69,941.398 C 1132.69,1046.51 1061.41,1140.11 962.047,1171.81 C 1047.01,1220.03 1101.01,1310.76 1101.01,1410.11 C 1101.01,1421.63 1098.12,1436.03 1098.12,1450.43 C 1089.48,1498.67 1067.16,1546.91 1030.44,1580.75 C 978.598,1628.99 913.797,1660.67 845.395,1671.47 C 825.234,1674.35 805.797,1674.35 785.637,1674.35 C 714.355,1674.35 643.797,1654.91 581.156,1614.59 C 518.516,1572.11 476.035,1506.59 464.516,1433.15 L 661.074,1407.23 C 674.758,1466.98 725.875,1506.59 785.637,1509.46 C 856.918,1506.58 910.918,1450.42 910.918,1382.03 C 910.918,1330.9 882.117,1285.54 833.875,1265.39 C 808.676,1250.98 779.875,1242.33 748.918,1242.33 L 748.926,1242.35 z"
             id="path45"
             style="fill:none;stroke:#000000;stroke-width:2.1500001;stroke-linecap:butt;stroke-linejoin:miter;stroke-miterlimit:4;stroke-dasharray:none;stroke-opacity:1" /><path
             d="M 1575.48,1441.81 L 1584.12,1433.16 L 1589.89,1421.64 L 1595.64,1410.12 L 1604.29,1399.32 L 1610.05,1387.8 L 1615.09,1373.4 L 1620.85,1359 L 1623.73,1345.32 L 1629.48,1333.8 L 1632.37,1319.4 L 1635.25,1305 L 1638.12,1291.33 L 1641.01,1279.8 L 1643.89,1265.41 L 1646.77,1253.88 L 1646.77,1240.2 L 1649.64,1228.67 L 1649.64,1217.15 L 1652.53,1205.64 L 1652.53,1168.92 L 1655.41,1163.15 L 1655.41,1075.31 L 1652.53,1069.56 L 1652.53,1035 L 1649.64,1029.96 L 1649.64,1006.91 L 1646.77,1001.15 L 1646.77,983.871 L 1643.89,978.121 L 1643.89,973.078 L 1641.01,967.309 L 1641.01,961.551 L 1638.12,955.801 L 1638.12,947.148 L 1635.25,941.398 L 1635.25,935.641 L 1632.37,929.871 L 1632.37,921.949 L 1629.48,916.199 L 1626.61,910.43 L 1623.73,904.672 L 1623.73,896.039 L 1620.85,890.27 L 1617.96,884.512 L 1615.09,878.762 L 1615.09,875.871 L 1612.21,870.84 L 1610.05,865.07 L 1607.17,862.191 L 1604.29,856.441 L 1601.41,853.559 L 1598.53,847.789 L 1595.64,842.039 L 1592.77,839.16 L 1587.01,833.391 L 1584.12,827.641 L 1581.25,824.762 L 1575.48,819.719 L 1572.61,816.84 L 1566.85,811.07 L 1561.09,808.191 L 1558.93,805.309 L 1553.17,802.43 L 1550.3,799.559 L 1544.53,799.559 L 1541.64,796.68 L 1535.89,793.789 L 1530.12,793.789 L 1527.25,790.91 L 1502.05,790.91 L 1499.17,793.789 L 1493.41,793.789 L 1490.54,796.68 L 1484.77,799.559 L 1481.89,799.559 L 1476.12,802.43 L 1473.25,805.309 L 1467.48,808.191 L 1461.73,811.07 L 1458.85,816.84 L 1453.09,819.719 L 1450.93,824.762 L 1445.18,827.641 L 1442.29,833.391 L 1436.53,839.16 L 1433.64,842.039 L 1430.78,847.789 L 1427.89,853.559 L 1425.01,856.441 L 1422.12,862.191 L 1419.25,865.07 L 1416.37,870.84 L 1416.37,875.871 L 1413.48,878.762 L 1410.61,884.512 L 1407.73,890.27 L 1407.73,896.039 L 1404.85,904.672 L 1401.96,910.43 L 1399.82,916.199 L 1399.82,921.949 L 1396.93,929.871 L 1394.05,935.641 L 1394.05,941.398 L 1391.17,947.148 L 1391.17,955.801 L 1388.29,961.551 L 1388.29,967.309 L 1385.42,973.078 L 1385.42,983.871 L 1382.53,989.629 L 1382.53,1006.91 L 1379.64,1009.8 L 1379.64,1035 L 1376.77,1043.63 L 1376.77,1081.07 L 1373.89,1086.11 L 1373.89,1148.76 L 1376.77,1154.51 L 1376.77,1196.99 L 1379.64,1205.64 L 1379.64,1228.67 L 1382.53,1240.2 L 1382.53,1253.88 L 1385.42,1265.41 L 1388.29,1279.8 L 1391.17,1291.33 L 1394.05,1305 L 1396.93,1319.4 L 1399.82,1333.8 L 1404.85,1345.32 L 1410.61,1359 L 1416.37,1373.4 L 1419.25,1387.8 L 1427.89,1399.32 L 1433.64,1410.12 L 1439.41,1421.64 L 1448.05,1433.16 L 1453.09,1441.81 L 1461.73,1450.44 L 1467.48,1458.36 L 1476.12,1464.12 L 1484.77,1469.88 L 1490.54,1472.77 L 1499.17,1475.64 L 1507.09,1478.52 L 1521.48,1478.52 L 1530.12,1475.64 L 1538.77,1472.77 L 1547.41,1469.88 L 1553.17,1464.12 L 1561.09,1458.36 L 1569.73,1450.44 L 1575.48,1441.82"
             id="path47"
             style="fill:#ffffff;fill-opacity:1;fill-rule:nonzero;stroke:none" /><path
             d="M 1575.48,1441.81 L 1584.12,1433.16 L 1589.89,1421.64 L 1595.64,1410.12 L 1604.29,1399.32 L 1610.05,1387.8 L 1615.09,1373.4 L 1620.85,1359 L 1623.73,1345.32 L 1629.48,1333.8 L 1632.37,1319.4 L 1635.25,1305 L 1638.12,1291.33 L 1641.01,1279.8 L 1643.89,1265.41 L 1646.77,1253.88 L 1646.77,1240.2 L 1649.64,1228.67 L 1649.64,1217.15 L 1652.53,1205.64 L 1652.53,1168.92 L 1655.41,1163.15 L 1655.41,1075.31 L 1652.53,1069.56 L 1652.53,1035 L 1649.64,1029.96 L 1649.64,1006.91 L 1646.77,1001.15 L 1646.77,983.871 L 1643.89,978.121 L 1643.89,973.078 L 1641.01,967.309 L 1641.01,961.551 L 1638.12,955.801 L 1638.12,947.148 L 1635.25,941.398 L 1635.25,935.641 L 1632.37,929.871 L 1632.37,921.949 L 1629.48,916.199 L 1626.61,910.43 L 1623.73,904.672 L 1623.73,896.039 L 1620.85,890.27 L 1617.96,884.512 L 1615.09,878.762 L 1615.09,875.871 L 1612.21,870.84 L 1610.05,865.07 L 1607.17,862.191 L 1604.29,856.441 L 1601.41,853.559 L 1598.53,847.789 L 1595.64,842.039 L 1592.77,839.16 L 1587.01,833.391 L 1584.12,827.641 L 1581.25,824.762 L 1575.48,819.719 L 1572.61,816.84 L 1566.85,811.07 L 1561.09,808.191 L 1558.93,805.309 L 1553.17,802.43 L 1550.3,799.559 L 1544.53,799.559 L 1541.64,796.68 L 1535.89,793.789 L 1530.12,793.789 L 1527.25,790.91 L 1521.48,790.91 L 1518.61,790.91 L 1515.73,790.91 L 1512.85,790.91 L 1509.96,790.91 L 1502.05,790.91 L 1499.17,793.789 L 1493.41,793.789 L 1490.54,796.68 L 1484.77,799.559 L 1481.89,799.559 L 1476.12,802.43 L 1473.25,805.309 L 1467.48,808.191 L 1461.73,811.07 L 1458.85,816.84 L 1453.09,819.719 L 1450.93,824.762 L 1445.18,827.641 L 1442.29,833.391 L 1436.53,839.16 L 1433.64,842.039 L 1430.78,847.789 L 1427.89,853.559 L 1425.01,856.441 L 1422.12,862.191 L 1419.25,865.07 L 1416.37,870.84 L 1416.37,875.871 L 1413.48,878.762 L 1410.61,884.512 L 1407.73,890.27 L 1407.73,896.039 L 1404.85,904.672 L 1401.96,910.43 L 1399.82,916.199 L 1399.82,921.949 L 1396.93,929.871 L 1394.05,935.641 L 1394.05,941.398 L 1391.17,947.148 L 1391.17,955.801 L 1388.29,961.551 L 1388.29,967.309 L 1385.42,973.078 L 1385.42,983.871 L 1382.53,989.629 L 1382.53,1006.91 L 1379.64,1009.8 L 1379.64,1035 L 1376.77,1043.63 L 1376.77,1081.07 L 1373.89,1086.11 L 1373.89,1148.76 L 1376.77,1154.51 L 1376.77,1196.99 L 1379.64,1205.64 L 1379.64,1228.67 L 1382.53,1240.2 L 1382.53,1253.88 L 1385.42,1265.41 L 1388.29,1279.8 L 1391.17,1291.33 L 1394.05,1305 L 1396.93,1319.4 L 1399.82,1333.8 L 1404.85,1345.32 L 1410.61,1359 L 1416.37,1373.4 L 1419.25,1387.8 L 1427.89,1399.32 L 1433.64,1410.12 L 1439.41,1421.64 L 1448.05,1433.16 L 1453.09,1441.81 L 1461.73,1450.44 L 1467.48,1458.36 L 1476.12,1464.12 L 1484.77,1469.88 L 1490.54,1472.77 L 1499.17,1475.64 L 1507.09,1478.52 L 1521.48,1478.52 L 1530.12,1475.64 L 1538.77,1472.77 L 1547.41,1469.88 L 1553.17,1464.12 L 1561.09,1458.36 L 1569.73,1450.44 L 1575.48,1441.82 L 1575.48,1441.81 z"
             id="path49"
             style="fill:none;stroke:#000000;stroke-width:2.1500001;stroke-linecap:butt;stroke-linejoin:miter;stroke-miterlimit:4;stroke-dasharray:none;stroke-opacity:1" /></g></g></g></g></svg>