<?xml version="1.0" encoding="UTF-8" standalone="no"?>
<!-- Created with Inkscape (http://www.inkscape.org/) -->

<svg
   width="159.27916mm"
   height="159.27916mm"
   viewBox="0 0 159.27916 159.27916"
   version="1.1"
   id="svg26915"
   inkscape:version="1.2.1 (9c6d41e410, 2022-07-14)"
   sodipodi:docname="1992 -  divieto carri a mano.svg"
   xmlns:inkscape="http://www.inkscape.org/namespaces/inkscape"
   xmlns:sodipodi="http://sodipodi.sourceforge.net/DTD/sodipodi-0.dtd"
   xmlns="http://www.w3.org/2000/svg"
   xmlns:svg="http://www.w3.org/2000/svg">
  <sodipodi:namedview
     id="namedview26917"
     pagecolor="#ffffff"
     bordercolor="#000000"
     borderopacity="0.25"
     inkscape:showpageshadow="2"
     inkscape:pageopacity="0.0"
     inkscape:pagecheckerboard="0"
     inkscape:deskcolor="#d1d1d1"
     inkscape:document-units="mm"
     showgrid="false"
     inkscape:zoom="0.76257015"
     inkscape:cx="235.38818"
     inkscape:cy="150.15012"
     inkscape:window-width="1920"
     inkscape:window-height="991"
     inkscape:window-x="-9"
     inkscape:window-y="-9"
     inkscape:window-maximized="1"
     inkscape:current-layer="layer1" />
  <defs
     id="defs26912" />
  <g
     inkscape:label="Livello 1"
     inkscape:groupmode="layer"
     id="layer1"
     transform="translate(-43.18519,-27.918822)">
    <g
       id="g26889"
       transform="translate(-880.7572,-785.69935)">
      <circle
         style="fill:#000000;fill-rule:evenodd;stroke-width:8.23434"
         id="path5438-9-9-7-9-1-9-9-3-1-4"
         cx="1003.582"
         cy="893.25775"
         r="79.63958" />
      <circle
         style="fill:#ffffff;fill-rule:evenodd;stroke-width:7.2697"
         id="path2578-4-52-7-2-5-7-8-2-5-5-0"
         cx="1003.582"
         cy="893.25775"
         r="79.375" />
      <circle
         style="fill:#d40000;fill-rule:evenodd;stroke-width:7.02738"
         id="path2578-41-65-5-2-3-5-9-4-2-4-3"
         cx="1003.582"
         cy="893.25769"
         r="76.729164" />
      <circle
         style="fill:#ffffff;fill-rule:evenodd;stroke-width:5.20995"
         id="path2578-41-6-8-9-7-7-4-2-6-62-9-7"
         cx="1003.582"
         cy="893.25769"
         r="56.885418" />
      <g
         id="g26777"
         transform="matrix(2.6032266,0,0,2.6032266,-775.02884,-437.18308)">
        <g
           id="path25748">
          <path
             style="color:#000000;fill:#d30000;fill-rule:evenodd;stroke-width:1.74625;stroke-linejoin:bevel"
             d="m 663.01086,512.81815 26.20875,-3.73912"
             id="path26655" />
          <path
             id="path26657"
             style="color:#000000;fill:#000000;fill-rule:evenodd;stroke-linejoin:bevel"
             d="m 689.09592,508.21497 -26.20925,3.73828 0.24805,1.72857 18.21904,-2.5988 3.34967,2.54506 0.39429,2.78381 0.96893,-0.13643 -0.81235,-5.74848 4.08967,-0.58343 z m -4.81211,2.4505 0.22428,1.5844 -1.79214,-1.36116 z" />
        </g>
        <circle
           style="fill:none;fill-opacity:0.686154;fill-rule:evenodd;stroke:#000000;stroke-width:1.515;stroke-linejoin:bevel"
           id="path26369"
           cx="673.77374"
           cy="512.91486"
           r="4.3284011" />
        <ellipse
           style="fill:#000000;fill-rule:evenodd;stroke-width:1.70188;stroke-linejoin:bevel;stroke-opacity:0.686154"
           id="path26423"
           cx="673.77399"
           cy="512.91492"
           rx="1.349"
           ry="1.3490713" />
        <circle
           style="fill:#000000;fill-rule:evenodd;stroke-width:1.2968;stroke-linejoin:bevel"
           id="path26660"
           cx="694.21619"
           cy="500.186"
           r="1.6188854" />
        <path
           style="fill:#000000;fill-rule:evenodd;stroke-width:0.978958;stroke-linejoin:bevel"
           d="m 689.96611,507.57885 3.54638,-4.56204 c 0.81684,-0.81684 2.65837,-0.97637 3.27704,0.0449 0.61867,1.02131 0.88288,4.12249 1.29065,6.18374 l 3.53518,7.30606 c 0,0 0.40195,1.09074 -0.47136,1.47016 -0.87331,0.37942 -1.51507,-0.62845 -1.51507,-0.62845 l -2.94039,-6.1501 c -0.0748,-0.0985 -0.19453,-0.14485 -0.2918,-0.0112 l -1.81247,1.78443 c -0.0799,0.0925 -0.0591,0.2018 0.006,0.30862 l 1.62169,3.32194 c 0,0 0.31563,0.90477 -0.42087,1.30746 -0.7365,0.40269 -1.44211,-0.38157 -1.44211,-0.38157 l -2.05938,-3.97288 c -0.28409,-0.61132 -0.27158,-1.1583 0.22444,-1.63853 l 2.53635,-2.51391 c 0.21503,-0.19343 0.12939,-0.4207 0,-0.60601 l -1.36917,-2.53636 -1.95278,2.46901 c 0,0 -0.88615,0.91323 -1.65535,0.26936 -0.7692,-0.64387 -0.1066,-1.46461 -0.1066,-1.46461 z"
           id="path26768"
           sodipodi:nodetypes="cczcczcccccczccccccczcc" />
      </g>
    </g>
  </g>
</svg>
