<?xml version="1.0" encoding="UTF-8"?>
<svg width="159.28mm" height="159.28mm" version="1.1" viewBox="0 0 159.28 159.28" xmlns="http://www.w3.org/2000/svg">
<g transform="translate(7.8183 -9.1828)">
<g transform="translate(-158.02 365.71)" fill-rule="evenodd">
<circle cx="229.84" cy="-276.89" r="79.64" stroke-width="8.2343"/>
<circle cx="229.84" cy="-276.89" r="79.375" fill="#fff" stroke-width="7.2697"/>
<circle cx="229.84" cy="-276.89" r="76.729" fill="#d40000" stroke-width="7.0274"/>
<circle cx="229.84" cy="-276.89" r="56.885" fill="#fff" stroke-width="5.21"/>
<path d="m194.77-306.44h27.979v11.077l-13.323 49.906h-13.971l12.867-48.04h-13.552z" stroke-linejoin="bevel" stroke-width=".98477"/>
<path d="m239.34-251.35q2.2224 0 2.2224-7.7209 0-1.8932-0.19754-3.2596t-0.5268-2.2554q-0.31278-0.88897-0.72434-1.3005-0.3951-0.42802-0.83959-0.42802-0.70788 0-1.1853 0.87251-0.46094 0.87251-0.72434 2.0743-0.24695 1.2018-0.34571 2.4694-0.0988 1.2511-0.0988 2.0249 0 3.6382 0.62557 5.5808 0.62557 1.9426 1.7944 1.9426zm0.0988 5.8935q-1.5475 0-3.0456-1.0371-1.4981-1.0536-2.6834-2.8644-1.1688-1.8273-1.8932-4.2638-0.70789-2.4529-0.6585-5.2515 0-2.9303 0.72435-5.3997 0.72434-2.4858 1.8767-4.2638 1.1688-1.7944 2.634-2.7986 1.4652-1.0207 2.9797-1.0207t2.9632 1.0865q1.4652 1.0701 2.5846 2.9303 1.1359 1.8438 1.8273 4.3132 0.69142 2.4529 0.69142 5.1856 0.0329 2.7986-0.67496 5.2515-0.70788 2.4364-1.8602 4.2473-1.1524 1.7944-2.5846 2.848-1.4322 1.0371-2.8809 1.0371z" stroke-linejoin="bevel" stroke-width=".42587"/>
<path d="m259-251.35q2.2224 0 2.2224-7.7209 0-1.8932-0.19754-3.2596t-0.5268-2.2554q-0.31278-0.88897-0.72434-1.3005-0.3951-0.42802-0.83958-0.42802-0.70789 0-1.1853 0.87251-0.46094 0.87251-0.72434 2.0743-0.24694 1.2018-0.34571 2.4694-0.0988 1.2511-0.0988 2.0249 0 3.6382 0.62558 5.5808 0.62557 1.9426 1.7944 1.9426zm0.0988 5.8935q-1.5475 0-3.0456-1.0371-1.4981-1.0536-2.6834-2.8644-1.1688-1.8273-1.8932-4.2638-0.70789-2.4529-0.6585-5.2515 0-2.9303 0.72435-5.3997 0.72434-2.4858 1.8767-4.2638 1.1688-1.7944 2.634-2.7986 1.4652-1.0207 2.9797-1.0207t2.9632 1.0865q1.4652 1.0701 2.5846 2.9303 1.1359 1.8438 1.8273 4.3132 0.69142 2.4529 0.69142 5.1856 0.0329 2.7986-0.67496 5.2515-0.70788 2.4364-1.8602 4.2473-1.1524 1.7944-2.5846 2.848-1.4322 1.0371-2.8809 1.0371z" stroke-linejoin="bevel" stroke-width=".42587"/>
<path d="m238.73-306.65v7.9621h2.5992v3.9317h-2.5992v8.8011q0 1.1516 0.26321 1.3983 0.27966 0.24676 0.75673 0.24676 0.29611 0 0.87189-0.24676 0.57577-0.24676 1.3818-0.82254l0.90479 4.0798q-0.46062 0.26322-1.1022 0.50998-0.64157 0.2303-1.316 0.41126t-1.3325 0.27967q-0.65803 0.0987-1.168 0.0987-1.6451 0-2.5663-0.67448-0.90479-0.67448-1.3325-1.5135-0.41127-0.83899-0.49353-1.5793-0.0822-0.74028-0.0822-0.87188v-10.117h-2.6979v-3.9317h2.665v-5.7577z" stroke-linejoin="bevel" stroke-width=".42557"/>
<path d="m225.14-250.04q-0.95266-0.63511-1.7289-0.63511-1.1467 0-2.0112 0.88209-0.84682 0.86446-0.84682 1.9583 0 0.89974 0.40577 1.5878 0.42341 0.68803 1.0762 1.0585 0.12349 0.0529 0.38812 0.0706t0.38812 0.0706q0.14112 0.0706 0.14112 0.21169 0 0.19407-1.3055 0.19407-0.21169 0-0.33519 0.14115-0.10585 0.15877-0.10585 0.28227v0.82917q0 0.14115 0.1235 0.29992 0.12349 0.17642 0.31755 0.17642 1.5172 0 2.3817-0.2117 0.86446-0.21169 1.4819-0.61747 1.3055-1.1996 1.3055-2.9991 0-1.0056-0.44105-1.8877-0.44105-0.89974-1.2349-1.4114z" stroke-linejoin="bevel" stroke-width=".45639"/>
</g>
</g>
</svg>
