<?xml version="1.0" encoding="UTF-8" standalone="no"?>
<!-- Created with Inkscape (http://www.inkscape.org/) -->

<svg
   xmlns:dc="http://purl.org/dc/elements/1.1/"
   xmlns:cc="http://creativecommons.org/ns#"
   xmlns:rdf="http://www.w3.org/1999/02/22-rdf-syntax-ns#"
   xmlns:svg="http://www.w3.org/2000/svg"
   xmlns="http://www.w3.org/2000/svg"
   xmlns:sodipodi="http://sodipodi.sourceforge.net/DTD/sodipodi-0.dtd"
   xmlns:inkscape="http://www.inkscape.org/namespaces/inkscape"
   width="600"
   height="600"
   id="svg5000"
   version="1.1"
   inkscape:version="0.48.5 r10040"
   sodipodi:docname="CANC 81.svg">
  <defs
     id="defs5002" />
  <sodipodi:namedview
     id="base"
     pagecolor="#ffffff"
     bordercolor="#666666"
     borderopacity="1.0"
     inkscape:pageopacity="0.0"
     inkscape:pageshadow="2"
     inkscape:zoom="0.35"
     inkscape:cx="313.78187"
     inkscape:cy="437.26098"
     inkscape:document-units="px"
     inkscape:current-layer="layer1"
     showgrid="false"
     fit-margin-top="0"
     fit-margin-left="0"
     fit-margin-right="0"
     fit-margin-bottom="0"
     inkscape:window-width="1366"
     inkscape:window-height="705"
     inkscape:window-x="-8"
     inkscape:window-y="-8"
     inkscape:window-maximized="1"
     inkscape:snap-object-midpoints="true"
     inkscape:snap-global="false"
     inkscape:object-paths="true" />
  <metadata
     id="metadata5005">
    <rdf:RDF>
      <cc:Work
         rdf:about="">
        <dc:format>image/svg+xml</dc:format>
        <dc:type
           rdf:resource="http://purl.org/dc/dcmitype/StillImage" />
        <dc:title />
      </cc:Work>
    </rdf:RDF>
  </metadata>
  <g
     inkscape:label="Livello 1"
     inkscape:groupmode="layer"
     id="layer1"
     transform="translate(0,-452.375)">
    <path
       sodipodi:type="arc"
       style="fill:#ffffff;fill-opacity:1;stroke:#000000;stroke-width:1.23414862;stroke-miterlimit:4;stroke-opacity:1;stroke-dasharray:none"
       id="path6483-2-8"
       sodipodi:cx="1092.9851"
       sodipodi:cy="238.36539"
       sodipodi:rx="361.63461"
       sodipodi:ry="377.79706"
       d="m 1454.6197,238.36539 a 361.63461,377.79706 0 1 1 -723.26921,0 361.63461,377.79706 0 1 1 723.26921,0 z"
       transform="matrix(0.828184,0,0,0.79275366,-605.19278,563.40997)" />
    <path
       style="fill:#d40000;fill-opacity:1;stroke:none;opacity:1"
       d="m 300,462.375 c -160.16258,0 -290.0000018,129.83742 -290.0000018,290 0,160.16258 129.8374218,290 290.0000018,290 160.16258,0 290,-129.83742 290,-290 0,-160.16258 -129.83742,-290 -290,-290 z m 0,75 c 118.74122,0 215,96.25878 215,215 0,118.74122 -96.25878,215 -215,215 -118.74122,0 -215.000002,-96.25878 -215.000002,-215 0,-118.74122 96.258782,-215 215.000002,-215 z"
       id="path6993-7-7"
       inkscape:connector-curvature="0" />
    <g
       id="g7071"
       transform="matrix(3.7669712,0,0,3.7669712,1243.7283,-5076.2827)">
      <path
         inkscape:connector-curvature="0"
         id="rect4641-9-0-5-9-3"
         style="fill:#000000;stroke-width:7.76155996;stroke-linecap:round"
         d="m -274.03854,1524.2992 h 65.36406 v 31.5999 h -65.36406 z"
         sodipodi:nodetypes="ccccc" />
      <circle
         sodipodi:ry="7.2536507"
         sodipodi:rx="7.2536507"
         sodipodi:cy="1564.1793"
         sodipodi:cx="-72.878906"
         style="fill:#000000;stroke-width:4.07099009;stroke-linecap:round"
         id="path5702-0-5-5-1"
         cx="-72.878906"
         cy="1564.1793"
         r="7.2536507"
         d="m -65.625256,1564.1793 c 0,4.0061 -3.24757,7.2537 -7.25365,7.2537 -4.006081,0 -7.253651,-3.2476 -7.253651,-7.2537 0,-4.0061 3.24757,-7.2536 7.253651,-7.2536 4.00608,0 7.25365,3.2475 7.25365,7.2536 z"
         transform="translate(-212.37222,0)" />
      <ellipse
         sodipodi:ry="3.2106323"
         sodipodi:rx="3.2107637"
         sodipodi:cy="1564.1793"
         sodipodi:cx="-72.878906"
         style="fill:#ffffff;stroke-width:1.80194998;stroke-linecap:round"
         id="path5702-5-6-5-0-7"
         cx="-72.878906"
         cy="1564.1793"
         rx="3.2107637"
         ry="3.2106323"
         d="m -69.668143,1564.1793 c 0,1.7732 -1.437507,3.2107 -3.210763,3.2107 -1.773256,0 -3.210764,-1.4375 -3.210764,-3.2107 0,-1.7732 1.437508,-3.2106 3.210764,-3.2106 1.773256,0 3.210763,1.4374 3.210763,3.2106 z"
         transform="translate(-212.37222,0)" />
      <circle
         sodipodi:ry="7.2536507"
         sodipodi:rx="7.2536507"
         sodipodi:cy="1564.1793"
         sodipodi:cx="-15.582705"
         style="fill:#000000;stroke-width:4.07099009;stroke-linecap:round"
         id="path5702-8-4-4-1-0"
         cx="-15.582705"
         cy="1564.1793"
         r="7.2536507"
         d="m -8.3290539,1564.1793 c 0,4.0061 -3.2475701,7.2537 -7.2536511,7.2537 -4.00608,0 -7.25365,-3.2476 -7.25365,-7.2537 0,-4.0061 3.24757,-7.2536 7.25365,-7.2536 4.006081,0 7.2536511,3.2475 7.2536511,7.2536 z"
         transform="translate(-212.37222,0)" />
      <ellipse
         sodipodi:ry="3.2106323"
         sodipodi:rx="3.2107637"
         sodipodi:cy="1564.1793"
         sodipodi:cx="-15.582705"
         style="fill:#ffffff;stroke-width:1.80194998;stroke-linecap:round"
         id="path5702-5-9-6-7-5-9"
         cx="-15.582705"
         cy="1564.1793"
         rx="3.2107637"
         ry="3.2106323"
         d="m -12.371941,1564.1793 c 0,1.7732 -1.437508,3.2107 -3.210764,3.2107 -1.773255,0 -3.210763,-1.4375 -3.210763,-3.2107 0,-1.7732 1.437508,-3.2106 3.210763,-3.2106 1.773256,0 3.210764,1.4374 3.210764,3.2106 z"
         transform="translate(-212.37222,0)" />
      <path
         inkscape:connector-curvature="0"
         id="rect4641-5-8-8-4"
         style="fill:#000000;stroke-width:4.24759007;stroke-linecap:round"
         d="m -292.18288,1533.8723 -5.01014,13.2161 -0.001,17.5442 h 2.98276 c -0.0104,-0.1504 -0.0156,-0.3029 -0.0182,-0.4543 8e-5,-4.9583 4.01952,-8.9777 8.97774,-8.9777 4.95823,0 8.97767,4.0194 8.97775,8.9777 -0.002,0.1504 -0.008,0.3031 -0.0181,0.4543 h 39.39086 c -0.0156,-0.1504 -0.0259,-0.3026 -0.0314,-0.4543 0.008,-2.4755 1.03506,-4.8383 2.84253,-6.5297 h -41.77063 v -23.7763 z m 70.38419,23.7763 c 1.79956,1.6953 2.82044,4.0575 2.82195,6.5297 -0.008,0.153 -0.0181,0.3031 -0.0335,0.4543 l 10.33571,-3.5026 v -3.4814 z"
         sodipodi:nodetypes="cccccscccccccccccccc" />
      <path
         inkscape:connector-curvature="0"
         id="rect5571-8-9-8-6"
         style="fill:#ffffff;stroke-width:4.72985983;stroke-linecap:round"
         d="m -290.96755,1537.3642 -3.35794,8.8587 h 16.20953 v -8.8587 z" />
      <g
         style="font-size:33.5006485px;font-style:normal;font-weight:normal;line-height:125%;letter-spacing:0px;word-spacing:0px;fill:#ffffff;fill-opacity:1;stroke:none;font-family:Sans"
         id="text7308">
        <path
           d="m -260.45467,1539.0724 c 0,-4.7348 1.07211,-8.1185 3.21634,-10.151 1.20569,-1.1613 2.46762,-1.742 3.78579,-1.7421 1.78639,10e-5 3.28278,0.8152 4.48918,2.4455 0.89285,1.1839 1.33928,2.1443 1.33929,2.881 l -3.95244,1.1389 c -0.49142,-1.5853 -1.10586,-2.3779 -1.84331,-2.378 -1.40677,1e-4 -2.1882,1.9988 -2.34427,5.9962 1.07211,-1.0047 2.17762,-1.4961 3.31653,-1.4743 1.1832,0.022 2.24407,0.5027 3.1826,1.4405 1.25068,1.2732 1.87602,3.1942 1.87603,5.7631 -1e-5,2.5013 -0.67,4.5 -2.00996,5.9961 -1.1396,1.2957 -2.44617,1.9435 -3.91972,1.9435 -1.89887,0 -3.47364,-0.8152 -4.72432,-2.4455 -1.60783,-2.0549 -2.41174,-5.1929 -2.41174,-9.4139 z m 4.85825,4.2203 c -1e-5,2.301 0.64748,3.4515 1.94248,3.4515 1.25067,0 1.87602,-1.1726 1.87603,-3.5179 -1e-5,-1.0271 -0.20108,-1.8423 -0.6032,-2.4455 -0.35715,-0.5139 -0.75894,-0.7708 -1.20536,-0.7709 -0.49142,10e-5 -0.92694,0.2345 -1.30657,0.7034 -0.46893,0.6032 -0.70339,1.463 -0.70338,2.5794 z"
           style="font-variant:normal;font-stretch:normal;fill:#ffffff;font-family:CodiceBiancoCondensed;-inkscape-font-specification:CodiceBiancoCondensed"
           id="path7325" />
      </g>
      <g
         style="font-size:26.46186638px;font-style:normal;font-weight:normal;line-height:125%;letter-spacing:0px;word-spacing:0px;fill:#ffffff;fill-opacity:1;stroke:none;font-family:Sans"
         id="text7312">
        <path
           d="m -239.20084,1532.1966 7.46178,0 0,2.8845 -4.20735,0 -0.52894,3.4927 c 0.44091,-0.1233 0.88184,-0.1849 1.32277,-0.1849 1.16448,0 2.11712,0.4231 2.85792,1.2694 0.86461,0.988 1.29692,2.4612 1.29693,4.4198 -1e-5,2.1874 -0.60002,3.9161 -1.80003,5.1861 -1.05844,1.1117 -2.31957,1.6676 -3.78338,1.6676 -1.1645,0 -2.24958,-0.4323 -3.25525,-1.297 -1.16449,-1.0056 -1.74673,-2.3023 -1.74673,-3.8899 l 3.28189,-0.6089 c 0.54644,1.5171 1.08427,2.2757 1.61349,2.2756 1.27054,1e-4 1.90581,-1.12 1.90582,-3.3602 -10e-6,-1.9408 -0.50284,-2.9112 -1.5085,-2.9112 -0.7408,0 -1.19061,0.3265 -1.34942,0.9796 l -2.93707,-0.6614 z"
           style="font-variant:normal;font-stretch:normal;fill:#ffffff;font-family:CodiceBiancoCondensed;-inkscape-font-specification:CodiceBiancoCondensed"
           id="path7331" />
      </g>
      <g
         style="font-size:26.46186638px;font-style:normal;font-weight:normal;line-height:125%;letter-spacing:0px;word-spacing:0px;fill:#ffffff;fill-opacity:1;stroke:none;font-family:Sans"
         id="text7316">
        <path
           d="m -223.50011,1537.9124 1.98496,0 0,2.249 -1.95831,0 0,7.3302 c -1e-5,0.688 0.38816,1.0321 1.16449,1.032 0.51144,10e-5 0.98763,-0.1588 1.42856,-0.4764 l 0.52975,2.4081 c -1.05844,0.4054 -2.03746,0.6081 -2.93707,0.6081 -1.0762,0 -1.92305,-0.291 -2.54055,-0.873 -0.61751,-0.5819 -0.92627,-1.3316 -0.92627,-2.249 l 0,-7.78 -1.85252,0 0,-2.249 1.95831,0 0,-3.8633 3.14865,-1.641 z"
           style="font-variant:normal;font-stretch:normal;fill:#ffffff;font-family:CodiceBiancoCondensed;-inkscape-font-specification:CodiceBiancoCondensed"
           id="path7334" />
      </g>
      <g
         style="font-size:26.46186638px;font-style:normal;font-weight:normal;line-height:125%;letter-spacing:0px;word-spacing:0px;fill:#ffffff;fill-opacity:1;stroke:none;font-family:Sans"
         id="text7320">
        <path
           d="m -244.03325,1547.4383 c 0.56421,0 1.06247,0.2293 1.49478,0.688 0.43231,0.4587 0.64846,1.0321 0.64847,1.7201 -1e-5,0.9529 -0.34403,1.694 -1.03206,2.2232 -0.59974,0.4587 -1.34942,0.688 -2.24903,0.688 -0.31764,0 -0.47646,-0.2118 -0.47645,-0.6355 -1e-5,-0.1766 0.23809,-0.3222 0.71428,-0.4369 0.47618,-0.1147 0.71427,-0.3042 0.71428,-0.5685 -1e-5,-0.2649 -0.22908,-0.4237 -0.68723,-0.4765 -0.31764,-0.053 -0.58238,-0.2203 -0.79423,-0.5027 -0.21185,-0.2823 -0.31777,-0.5823 -0.31777,-0.9 0,-0.4937 0.21171,-0.9169 0.63514,-1.2699 0.42342,-0.3528 0.87336,-0.5293 1.34982,-0.5293 z"
           style="font-variant:normal;font-stretch:normal;fill:#ffffff;font-family:CodiceBiancoCondensed;-inkscape-font-specification:CodiceBiancoCondensed"
           id="path7328" />
      </g>
    </g>
  </g>
</svg>
