<?xml version="1.0" encoding="UTF-8" standalone="no"?>
<!-- Created with Inkscape (http://www.inkscape.org/) -->

<svg
   xmlns:dc="http://purl.org/dc/elements/1.1/"
   xmlns:cc="http://creativecommons.org/ns#"
   xmlns:rdf="http://www.w3.org/1999/02/22-rdf-syntax-ns#"
   xmlns:svg="http://www.w3.org/2000/svg"
   xmlns="http://www.w3.org/2000/svg"
   xmlns:sodipodi="http://sodipodi.sourceforge.net/DTD/sodipodi-0.dtd"
   xmlns:inkscape="http://www.inkscape.org/namespaces/inkscape"
   width="600.03906"
   height="599.96027"
   id="svg14469"
   version="1.1"
   inkscape:version="0.48.5 r10040"
   sodipodi:docname="Nuovo documento 77">
  <defs
     id="defs14471" />
  <sodipodi:namedview
     id="base"
     pagecolor="#ffffff"
     bordercolor="#666666"
     borderopacity="1.0"
     inkscape:pageopacity="0.0"
     inkscape:pageshadow="2"
     inkscape:zoom="0.35"
     inkscape:cx="375.00856"
     inkscape:cy="519.96616"
     inkscape:document-units="px"
     inkscape:current-layer="layer1"
     showgrid="false"
     fit-margin-top="0"
     fit-margin-left="0"
     fit-margin-right="0"
     fit-margin-bottom="0"
     inkscape:window-width="1366"
     inkscape:window-height="705"
     inkscape:window-x="-8"
     inkscape:window-y="-8"
     inkscape:window-maximized="1" />
  <metadata
     id="metadata14474">
    <rdf:RDF>
      <cc:Work
         rdf:about="">
        <dc:format>image/svg+xml</dc:format>
        <dc:type
           rdf:resource="http://purl.org/dc/dcmitype/StillImage" />
        <dc:title></dc:title>
      </cc:Work>
    </rdf:RDF>
  </metadata>
  <g
     inkscape:label="Livello 1"
     inkscape:groupmode="layer"
     id="layer1"
     transform="translate(0.00856218,-452.36809)">
    <path
       transform="matrix(1.3575544,0,0,1.2605862,204.00641,1472.3399)"
       d="m 291.32799,-571.1452 c 0,131.21616 -98.77374,237.58787 -220.617312,237.58787 -121.843576,0 -220.617308,-106.37171 -220.617308,-237.58787 0,-131.21616 98.773732,-237.58788 220.617308,-237.58788 121.843572,0 220.617312,106.37172 220.617312,237.58788 z"
       sodipodi:ry="237.58788"
       sodipodi:rx="220.61731"
       sodipodi:cy="-571.1452"
       sodipodi:cx="70.710678"
       id="path13811"
       style="fill:#ffffff;fill-opacity:1;stroke:#000000;stroke-width:0.7644254;stroke-opacity:1"
       sodipodi:type="arc" />
    <path
       sodipodi:type="arc"
       style="fill:#00408b;fill-opacity:1;stroke:none"
       id="path13813"
       sodipodi:cx="70.710678"
       sodipodi:cy="-571.1452"
       sodipodi:rx="220.61731"
       sodipodi:ry="237.58788"
       d="m 291.32799,-571.1452 c 0,131.21616 -98.77374,237.58787 -220.617312,237.58787 -121.843576,0 -220.617308,-106.37171 -220.617308,-237.58787 0,-131.21616 98.773732,-237.58788 220.617308,-237.58788 121.843572,0 220.617312,106.37172 220.617312,237.58788 z"
       transform="matrix(1.3144934,0,0,1.220601,207.55101,1449.0024)" />
    <g
       style="font-size:387.37948608px;font-style:normal;font-weight:normal;line-height:125%;letter-spacing:0px;word-spacing:0px;fill:#ffffff;fill-opacity:1;stroke:none;font-family:Sans"
       id="text13815">
      <path
         d="m 127.76687,691.74545 c -1.29254,-14.20968 3.48744,-29.83425 14.33995,-46.87377 13.94189,-21.17665 32.6638,-31.50897 56.16577,-30.99698 19.11193,0.26037 35.18771,6.91215 48.22737,19.95534 13.03939,13.04374 19.55915,28.47522 19.55931,46.2945 -1.6e-4,12.90971 -3.74375,25.43301 -11.23079,37.56994 -5.42245,8.7799 -16.0109,18.20587 -31.7654,28.27795 4.64982,1.29268 12.52713,4.78014 23.63194,10.46237 18.33165,13.42979 27.49754,32.41178 27.49771,56.94601 -1.7e-4,21.17701 -7.55238,39.51273 -22.65664,55.00723 -15.10456,15.49457 -33.24522,23.24183 -54.42205,23.24182 -25.31465,10e-6 -44.55672,-9.81214 -57.72625,-29.43649 -9.29203,-13.94977 -13.93802,-28.67194 -13.93801,-44.16656 l 47.25207,-10.85249 c 0.5201,24.28223 8.39741,36.42329 23.63195,36.42323 6.45465,6e-5 12.00699,-3.09924 16.65703,-9.29792 4.64983,-6.19853 6.9748,-14.59403 6.97492,-25.18652 -1.2e-4,-12.39711 -3.09745,-21.43296 -9.29201,-27.10758 -4.39783,-4.39761 -11.11266,-7.1127 -20.14449,-8.14528 -6.97498,-0.77223 -13.94989,-1.41455 -20.92473,-1.92696 l 0,-44.9468 c 14.72211,1.7e-4 26.08687,-4.38968 34.09431,-13.16958 7.48709,-7.99928 11.23069,-18.84388 11.23079,-32.53383 -1e-4,-13.6895 -5.16626,-20.53437 -15.49849,-20.53461 -14.2021,2.4e-4 -23.75811,12.52749 -28.66807,37.58177 z"
         style="font-variant:normal;font-stretch:normal;text-align:center;letter-spacing:12px;text-anchor:middle;fill:#ffffff;font-family:CodiceBiancoCondensed;-inkscape-font-specification:CodiceBiancoCondensed"
         id="path14505"
         inkscape:connector-curvature="0" />
      <path
         d="m 395.37965,616.97204 c 22.98162,2.8e-4 42.28477,12.84869 57.9095,38.54525 15.62442,25.69706 23.4367,58.42985 23.43688,98.19847 -1.8e-4,38.99657 -8.64985,71.92442 -25.94903,98.78366 -16.27493,25.05454 -35.12688,37.58179 -56.5559,37.58177 -19.63228,2e-5 -37.19564,-10.07222 -52.69013,-30.21673 -19.36427,-25.56672 -29.04638,-61.46581 -29.04637,-107.69736 -10e-6,-40.54099 9.03584,-73.85502 27.10758,-99.94221 16.27474,-23.50163 34.87054,-35.25257 55.78747,-35.25285 z M 364.00437,751.7888 c -6e-5,23.50203 2.84113,44.03268 8.52358,61.59201 5.68231,17.55951 12.65327,26.33922 20.91291,26.33916 9.29978,6e-5 16.91701,-10.84847 22.8517,-32.54565 4.9099,-17.8194 7.36491,-36.28122 7.36503,-55.38552 -1.2e-4,-16.27463 -1.80887,-32.15928 -5.42624,-47.65402 -5.16234,-22.46923 -13.03964,-33.70395 -23.63195,-33.70419 -9.55216,2.4e-4 -17.29943,10.46259 -23.24182,31.3871 -4.90221,16.77938 -7.35327,33.4364 -7.35321,49.97111 z"
         style="font-variant:normal;font-stretch:normal;text-align:center;letter-spacing:12px;text-anchor:middle;fill:#ffffff;font-family:CodiceBiancoCondensed;-inkscape-font-specification:CodiceBiancoCondensed"
         id="path14507"
         inkscape:connector-curvature="0" />
    </g>
  </g>
</svg>
