<?xml version="1.0" encoding="UTF-8" standalone="no"?>
<!-- Created with Inkscape (http://www.inkscape.org/) -->

<svg
   xmlns:dc="http://purl.org/dc/elements/1.1/"
   xmlns:cc="http://creativecommons.org/ns#"
   xmlns:rdf="http://www.w3.org/1999/02/22-rdf-syntax-ns#"
   xmlns:svg="http://www.w3.org/2000/svg"
   xmlns="http://www.w3.org/2000/svg"
   xmlns:sodipodi="http://sodipodi.sourceforge.net/DTD/sodipodi-0.dtd"
   xmlns:inkscape="http://www.inkscape.org/namespaces/inkscape"
   version="1.0"
   width="600.20398"
   height="599.82776"
   id="svg2"
   sodipodi:version="0.32"
   inkscape:version="0.48.5 r10040"
   sodipodi:docname="CANC Portalone.svg">
  <metadata
     id="metadata9">
    <rdf:RDF>
      <cc:Work
         rdf:about="">
        <dc:format>image/svg+xml</dc:format>
        <dc:type
           rdf:resource="http://purl.org/dc/dcmitype/StillImage" />
      </cc:Work>
    </rdf:RDF>
  </metadata>
  <sodipodi:namedview
     inkscape:window-height="768"
     inkscape:window-width="1280"
     inkscape:pageshadow="2"
     inkscape:pageopacity="0.0"
     guidetolerance="10.0"
     gridtolerance="10.0"
     objecttolerance="10.0"
     borderopacity="1.0"
     bordercolor="#666666"
     pagecolor="#ffffff"
     id="base"
     inkscape:zoom="0.2521875"
     inkscape:cx="-120.18992"
     inkscape:cy="-188.38481"
     inkscape:window-x="-4"
     inkscape:window-y="-4"
     inkscape:current-layer="svg2"
     showgrid="false"
     fit-margin-top="0"
     fit-margin-left="0"
     fit-margin-right="0"
     fit-margin-bottom="0"
     inkscape:window-maximized="0" />
  <defs
     id="defs5" />
  <path
     sodipodi:type="arc"
     style="fill:#00408b;fill-opacity:1;stroke:#000000;stroke-width:3.84782219;stroke-miterlimit:4;stroke-opacity:1;stroke-dasharray:none"
     id="path13252"
     sodipodi:cx="70.710678"
     sodipodi:cy="-571.1452"
     sodipodi:rx="220.61731"
     sodipodi:ry="237.58788"
     d="m 291.32799,-571.1452 a 220.61731,237.58788 0 1 1 -441.23462,0 220.61731,237.58788 0 1 1 441.23462,0 z"
     transform="matrix(1.3484889,0,0,1.2521683,204.75961,1015.0781)" />
  <g
     style="font-size:387.37948608px;font-style:normal;font-weight:normal;line-height:125%;letter-spacing:0px;word-spacing:0px;fill:#ffffff;fill-opacity:1;stroke:none;font-family:Sans"
     id="text13264"
     transform="translate(0.11221282,399.90798)">
    <path
       d="m 127.76681,-160.61672 c -1.29254,-14.20967 3.48744,-29.83425 14.33995,-46.87377 13.94189,-21.17665 32.6638,-31.50897 56.16577,-30.99698 19.11193,0.26038 35.18771,6.91215 48.22737,19.95534 13.03939,13.04374 19.55915,28.47522 19.55931,46.2945 -1.6e-4,12.90971 -3.74375,25.43301 -11.23079,37.56995 -5.42245,8.77989 -16.0109,18.20587 -31.7654,28.27794 4.64982,1.29269 12.52713,4.78014 23.63194,10.46237 18.33165,13.429795 27.49754,32.411781 27.4977,56.946014 -1.6e-4,21.177005 -7.55237,39.51272819 -22.65664,55.007225 -15.10455,15.49457 -33.24521,23.241837 -54.42204,23.241824 -25.31465,1.3e-5 -44.55672,-9.812141 -57.72626,-29.4364908 -9.29202,-13.9497663 -13.93801,-28.6719372 -13.938,-44.1665572 l 47.25207,-10.85249 c 0.5201,24.282223 8.39741,36.4232852 23.63195,36.423224 6.45465,6.12e-5 12.00699,-3.09924 16.65703,-9.297912 4.64983,-6.198531 6.9748,-14.59403 6.97491,-25.186523 -1.1e-4,-12.397107 -3.09744,-21.432958 -9.292,-27.107579 -4.39784,-4.397614 -11.11266,-7.112704 -20.14449,-8.145278 -6.97498,-0.772231 -13.94989,-1.414553 -20.92473,-1.926967 l 0,-44.9468 c 14.72211,1.8e-4 26.08687,-4.38968 34.09431,-13.16958 7.48709,-7.99928 11.23068,-18.84387 11.23079,-32.53382 -1.1e-4,-13.68951 -5.16626,-20.53437 -15.49849,-20.53462 -14.2021,2.5e-4 -23.75811,12.52749 -28.66807,37.58177 z"
       style="font-variant:normal;font-stretch:normal;text-align:center;letter-spacing:12px;text-anchor:middle;fill:#ffffff;font-family:CodiceBiancoCondensed;-inkscape-font-specification:CodiceBiancoCondensed"
       id="path15059"
       inkscape:connector-curvature="0" />
    <path
       d="m 395.37959,-235.39013 c 22.98162,2.9e-4 42.28477,12.84869 57.9095,38.54525 15.62442,25.69706 23.4367,58.42985 23.43688,98.198477 -1.8e-4,38.996566 -8.64985,71.92442 -25.94903,98.78366049 C 434.50201,25.191797 415.65006,37.719041 394.22104,37.719026 374.58876,37.719041 357.0254,27.646806 341.53091,7.5022911 322.16664,-18.064432 312.48453,-53.963517 312.48454,-100.19507 c -10e-6,-40.54099 9.03584,-73.85502 27.10758,-99.9422 16.27474,-23.50163 34.87054,-35.25257 55.78747,-35.25286 z m -31.37528,134.81676 c -7e-5,23.502034 2.84112,44.032685 8.52358,61.592014 5.6823,17.559512 12.65327,26.339222 20.91291,26.339157 9.29978,6.5e-5 16.917,-10.848473 22.8517,-32.545646 4.9099,-17.819404 7.36491,-36.281227 7.36503,-55.385525 -1.2e-4,-16.27462 -1.80887,-32.15928 -5.42624,-47.65401 -5.16234,-22.46924 -13.03964,-33.70396 -23.63195,-33.70419 -9.55216,2.3e-4 -17.29943,10.46259 -23.24182,31.3871 -4.90221,16.77938 -7.35328,33.43639 -7.35321,49.9711 z"
       style="font-variant:normal;font-stretch:normal;text-align:center;letter-spacing:12px;text-anchor:middle;fill:#ffffff;font-family:CodiceBiancoCondensed;-inkscape-font-specification:CodiceBiancoCondensed"
       id="path15061"
       inkscape:connector-curvature="0" />
  </g>
  <path
     style="fill:none;stroke:#d40000;stroke-width:75;stroke-linecap:butt;stroke-linejoin:miter;stroke-miterlimit:4;stroke-opacity:1;stroke-dasharray:none"
     d="M 91.337412,507.19597 515.74951,99.84552"
     id="path13837"
     inkscape:connector-curvature="0"
     sodipodi:nodetypes="cc" />
  <path
     transform="matrix(1.3348907,0,0,1.2395414,205.72121,1007.8663)"
     d="m 291.32799,-571.1452 a 220.61731,237.58788 0 1 1 -441.23462,0 220.61731,237.58788 0 1 1 441.23462,0 z"
     sodipodi:ry="237.58788"
     sodipodi:rx="220.61731"
     sodipodi:cy="-571.1452"
     sodipodi:cx="70.710678"
     id="path13839"
     style="fill:none;stroke:#ffffff;stroke-width:6.99663353;stroke-miterlimit:4;stroke-opacity:1;stroke-dasharray:none"
     sodipodi:type="arc" />
</svg>
